<svg width="332" height="477" viewBox="0 0 332 477" fill="none" xmlns="http://www.w3.org/2000/svg">
<g clip-path="url(#clip0)">
<g filter="url(#filter0_d)">
<path d="M31.2886 53.8564C31.2886 36.46 45.3912 22.3574 62.7876 22.3574L175.75 22.3574C193.146 22.3574 207.249 36.46 207.249 53.8564V216.593C207.249 233.989 193.146 248.092 175.75 248.092H62.7876C45.3912 248.092 31.2886 233.989 31.2886 216.593L31.2886 53.8564Z" fill="#ECF0F3"/>
<g filter="url(#filter1_dd)">
<rect x="54.0986" y="181.836" width="131.427" height="43.4469" rx="10.8617" fill="#ECF0F3"/>
</g>
<path d="M77.3147 208.784V200.204H74.2241V198.528H82.5273V200.204H79.4059V208.784H77.3147ZM83.0403 208.784V201.788C83.1838 201.686 83.435 201.562 83.7938 201.419C84.1628 201.265 84.5882 201.132 85.07 201.019C85.5518 200.896 86.0387 200.835 86.5307 200.835C86.8997 200.835 87.1919 200.865 87.4072 200.927C87.6327 200.978 87.8121 201.045 87.9453 201.127V202.603C87.7403 202.572 87.5045 202.547 87.238 202.526C86.9818 202.506 86.7152 202.5 86.4385 202.511C86.1719 202.511 85.9105 202.521 85.6543 202.541C85.4083 202.562 85.1879 202.588 84.9931 202.618V208.784H83.0403ZM92.3131 209.015C91.8723 209.015 91.4572 208.974 91.0677 208.892C90.6781 208.81 90.3296 208.671 90.0221 208.477C89.7146 208.282 89.4685 208.02 89.284 207.692C89.1098 207.354 89.0226 206.939 89.0226 206.447C89.0226 205.914 89.1303 205.468 89.3455 205.109C89.5608 204.74 89.8734 204.463 90.2835 204.279C90.7038 204.084 91.2163 203.987 91.8211 203.987C92.1901 203.987 92.5335 204.023 92.8513 204.094C93.1691 204.156 93.4561 204.248 93.7124 204.371C93.9686 204.484 94.1788 204.607 94.3428 204.74L94.4812 205.832C94.2659 205.688 93.9891 205.576 93.6509 205.494C93.3228 205.401 92.9641 205.355 92.5745 205.355C92.0312 205.355 91.6263 205.442 91.3598 205.617C91.0933 205.791 90.96 206.063 90.96 206.432C90.96 206.678 91.0318 206.888 91.1753 207.062C91.3188 207.236 91.5033 207.364 91.7288 207.446C91.9543 207.528 92.1901 207.569 92.4361 207.569C92.9999 207.569 93.4048 207.534 93.6509 207.462C93.9071 207.38 94.0353 207.211 94.0353 206.954V203.91C94.0353 203.408 93.8764 203.044 93.5586 202.818C93.2408 202.582 92.7949 202.465 92.2209 202.465C91.7801 202.465 91.3291 202.541 90.8678 202.695C90.4065 202.839 90.0323 203.028 89.7453 203.264V201.496C90.0221 201.311 90.4372 201.158 90.9908 201.035C91.5443 200.901 92.1389 200.835 92.7744 200.835C93.0409 200.835 93.3228 200.86 93.6201 200.912C93.9174 200.953 94.2044 201.029 94.4812 201.142C94.7579 201.255 95.0091 201.414 95.2346 201.619C95.4601 201.824 95.6395 202.08 95.7728 202.388C95.906 202.685 95.9727 203.049 95.9727 203.479L95.9573 207.154C95.9573 207.626 95.8035 208 95.496 208.277C95.1987 208.543 94.7733 208.733 94.2198 208.846C93.6765 208.958 93.0409 209.015 92.3131 209.015ZM98.1312 201.68C98.3465 201.568 98.6028 201.46 98.9 201.357C99.1973 201.255 99.5202 201.168 99.8687 201.096C100.217 201.014 100.571 200.953 100.93 200.912C101.288 200.86 101.627 200.835 101.945 200.835C102.652 200.835 103.241 200.932 103.713 201.127C104.195 201.311 104.558 201.609 104.804 202.019C105.051 202.429 105.174 202.962 105.174 203.618V208.784H103.221V203.956C103.221 203.761 103.195 203.577 103.144 203.403C103.093 203.218 103.005 203.059 102.882 202.926C102.759 202.782 102.59 202.675 102.375 202.603C102.16 202.521 101.883 202.48 101.545 202.48C101.288 202.48 101.027 202.506 100.761 202.557C100.504 202.608 100.279 202.675 100.084 202.757V208.784H98.1312V201.68ZM109.597 209.015C109.043 209.015 108.571 208.953 108.182 208.83C107.792 208.718 107.418 208.579 107.06 208.415V206.647C107.295 206.801 107.541 206.949 107.798 207.093C108.064 207.226 108.346 207.334 108.643 207.416C108.951 207.498 109.284 207.539 109.643 207.539C110.042 207.539 110.34 207.462 110.535 207.308C110.74 207.154 110.842 206.96 110.842 206.724C110.842 206.519 110.765 206.36 110.611 206.247C110.458 206.124 110.258 206.022 110.012 205.94C109.766 205.858 109.504 205.776 109.228 205.694C108.971 205.632 108.71 205.55 108.443 205.448C108.187 205.345 107.951 205.207 107.736 205.032C107.521 204.858 107.347 204.638 107.213 204.371C107.09 204.094 107.029 203.761 107.029 203.372C107.029 202.91 107.121 202.521 107.306 202.203C107.49 201.885 107.731 201.629 108.028 201.434C108.336 201.229 108.664 201.086 109.012 201.004C109.371 200.912 109.72 200.871 110.058 200.881C110.652 200.891 111.129 200.958 111.488 201.081C111.847 201.204 112.185 201.352 112.503 201.527V203.126C112.144 202.931 111.795 202.757 111.457 202.603C111.129 202.439 110.745 202.357 110.304 202.357C109.904 202.357 109.591 202.429 109.366 202.572C109.151 202.705 109.043 202.895 109.043 203.141C109.043 203.356 109.11 203.531 109.243 203.664C109.376 203.787 109.55 203.889 109.766 203.971C109.991 204.043 110.232 204.115 110.488 204.187C110.745 204.258 111.006 204.34 111.273 204.433C111.549 204.515 111.806 204.638 112.041 204.802C112.287 204.956 112.482 205.171 112.626 205.448C112.779 205.724 112.856 206.083 112.856 206.524C112.846 207.129 112.682 207.616 112.364 207.985C112.057 208.343 111.657 208.605 111.165 208.769C110.673 208.933 110.15 209.015 109.597 209.015ZM117.525 209.015C117.084 209.015 116.669 208.974 116.279 208.892C115.89 208.81 115.541 208.671 115.234 208.477C114.926 208.282 114.68 208.02 114.496 207.692C114.321 207.354 114.234 206.939 114.234 206.447C114.234 205.914 114.342 205.468 114.557 205.109C114.772 204.74 115.085 204.463 115.495 204.279C115.915 204.084 116.428 203.987 117.033 203.987C117.402 203.987 117.745 204.023 118.063 204.094C118.381 204.156 118.668 204.248 118.924 204.371C119.18 204.484 119.39 204.607 119.554 204.74L119.693 205.832C119.477 205.688 119.201 205.576 118.862 205.494C118.534 205.401 118.176 205.355 117.786 205.355C117.243 205.355 116.838 205.442 116.571 205.617C116.305 205.791 116.172 206.063 116.172 206.432C116.172 206.678 116.243 206.888 116.387 207.062C116.53 207.236 116.715 207.364 116.94 207.446C117.166 207.528 117.402 207.569 117.648 207.569C118.211 207.569 118.616 207.534 118.862 207.462C119.119 207.38 119.247 207.211 119.247 206.954V203.91C119.247 203.408 119.088 203.044 118.77 202.818C118.452 202.582 118.006 202.465 117.432 202.465C116.992 202.465 116.541 202.541 116.079 202.695C115.618 202.839 115.244 203.028 114.957 203.264V201.496C115.234 201.311 115.649 201.158 116.202 201.035C116.756 200.901 117.35 200.835 117.986 200.835C118.252 200.835 118.534 200.86 118.832 200.912C119.129 200.953 119.416 201.029 119.693 201.142C119.97 201.255 120.221 201.414 120.446 201.619C120.672 201.824 120.851 202.08 120.984 202.388C121.118 202.685 121.184 203.049 121.184 203.479L121.169 207.154C121.169 207.626 121.015 208 120.708 208.277C120.41 208.543 119.985 208.733 119.431 208.846C118.888 208.958 118.252 209.015 117.525 209.015ZM126.864 208.953C126.351 208.953 125.859 208.882 125.388 208.738C124.916 208.584 124.496 208.354 124.127 208.046C123.758 207.728 123.466 207.318 123.251 206.816C123.035 206.303 122.928 205.694 122.928 204.986C122.928 204.238 123.03 203.602 123.235 203.08C123.44 202.557 123.722 202.131 124.081 201.803C124.44 201.465 124.855 201.219 125.326 201.065C125.808 200.912 126.316 200.835 126.849 200.835C127.269 200.835 127.689 200.876 128.109 200.958C128.54 201.04 128.929 201.158 129.278 201.311V203.018C128.919 202.864 128.566 202.741 128.217 202.649C127.879 202.547 127.525 202.495 127.156 202.495C126.428 202.495 125.864 202.675 125.465 203.033C125.065 203.392 124.865 203.977 124.865 204.786C124.865 205.637 125.05 206.268 125.419 206.678C125.788 207.077 126.392 207.277 127.233 207.277C127.612 207.277 127.976 207.221 128.325 207.108C128.683 206.995 129.006 206.867 129.293 206.724V208.415C128.935 208.589 128.56 208.723 128.171 208.815C127.781 208.907 127.346 208.953 126.864 208.953ZM133.983 209.03C133.184 209.03 132.574 208.835 132.154 208.446C131.733 208.046 131.523 207.472 131.523 206.724V202.572H130.324V201.035H131.523V198.882H133.553V201.035H135.337V202.572H133.553V206.416C133.553 206.724 133.609 206.954 133.722 207.108C133.845 207.262 134.06 207.339 134.368 207.339C134.532 207.339 134.701 207.313 134.875 207.262C135.06 207.211 135.214 207.144 135.337 207.062V208.753C135.142 208.856 134.921 208.928 134.675 208.969C134.44 209.01 134.209 209.03 133.983 209.03ZM137.203 208.784V201.111H139.156L139.172 208.784H137.203ZM137.157 199.881V198.267H139.202V199.881H137.157ZM144.775 209.015C143.494 209.015 142.535 208.661 141.9 207.954C141.264 207.247 140.947 206.227 140.947 204.894C140.947 203.459 141.269 202.418 141.915 201.773C142.571 201.127 143.52 200.804 144.76 200.804C145.621 200.804 146.333 200.958 146.897 201.265C147.471 201.562 147.902 202.014 148.189 202.618C148.476 203.223 148.619 203.982 148.619 204.894C148.619 206.227 148.286 207.247 147.62 207.954C146.954 208.661 146.005 209.015 144.775 209.015ZM144.76 207.416C145.211 207.416 145.575 207.313 145.852 207.108C146.139 206.903 146.349 206.611 146.482 206.232C146.615 205.852 146.682 205.407 146.682 204.894C146.682 204.31 146.61 203.833 146.467 203.464C146.333 203.095 146.123 202.823 145.836 202.649C145.559 202.475 145.201 202.388 144.76 202.388C144.309 202.388 143.945 202.48 143.668 202.664C143.391 202.849 143.192 203.126 143.069 203.495C142.946 203.864 142.884 204.33 142.884 204.894C142.884 205.704 143.028 206.329 143.315 206.77C143.612 207.2 144.094 207.416 144.76 207.416ZM150.341 201.68C150.556 201.568 150.813 201.46 151.11 201.357C151.407 201.255 151.73 201.168 152.079 201.096C152.427 201.014 152.781 200.953 153.14 200.912C153.498 200.86 153.837 200.835 154.155 200.835C154.862 200.835 155.451 200.932 155.923 201.127C156.405 201.311 156.768 201.609 157.014 202.019C157.261 202.429 157.384 202.962 157.384 203.618V208.784H155.431V203.956C155.431 203.761 155.405 203.577 155.354 203.403C155.303 203.218 155.215 203.059 155.092 202.926C154.969 202.782 154.8 202.675 154.585 202.603C154.37 202.521 154.093 202.48 153.755 202.48C153.498 202.48 153.237 202.506 152.971 202.557C152.714 202.608 152.489 202.675 152.294 202.757V208.784H150.341V201.68ZM161.807 209.015C161.253 209.015 160.781 208.953 160.392 208.83C160.002 208.718 159.628 208.579 159.27 208.415V206.647C159.505 206.801 159.751 206.949 160.008 207.093C160.274 207.226 160.556 207.334 160.853 207.416C161.161 207.498 161.494 207.539 161.853 207.539C162.252 207.539 162.55 207.462 162.745 207.308C162.95 207.154 163.052 206.96 163.052 206.724C163.052 206.519 162.975 206.36 162.821 206.247C162.668 206.124 162.468 206.022 162.222 205.94C161.976 205.858 161.714 205.776 161.438 205.694C161.181 205.632 160.92 205.55 160.653 205.448C160.397 205.345 160.161 205.207 159.946 205.032C159.731 204.858 159.557 204.638 159.423 204.371C159.3 204.094 159.239 203.761 159.239 203.372C159.239 202.91 159.331 202.521 159.516 202.203C159.7 201.885 159.941 201.629 160.238 201.434C160.546 201.229 160.874 201.086 161.222 201.004C161.581 200.912 161.93 200.871 162.268 200.881C162.862 200.891 163.339 200.958 163.698 201.081C164.057 201.204 164.395 201.352 164.713 201.527V203.126C164.354 202.931 164.005 202.757 163.667 202.603C163.339 202.439 162.955 202.357 162.514 202.357C162.114 202.357 161.801 202.429 161.576 202.572C161.361 202.705 161.253 202.895 161.253 203.141C161.253 203.356 161.32 203.531 161.453 203.664C161.586 203.787 161.76 203.889 161.976 203.971C162.201 204.043 162.442 204.115 162.698 204.187C162.955 204.258 163.216 204.34 163.483 204.433C163.759 204.515 164.016 204.638 164.251 204.802C164.497 204.956 164.692 205.171 164.836 205.448C164.989 205.724 165.066 206.083 165.066 206.524C165.056 207.129 164.892 207.616 164.574 207.985C164.267 208.343 163.867 208.605 163.375 208.769C162.883 208.933 162.36 209.015 161.807 209.015Z" fill="#636363"/>
</g>
<g filter="url(#filter2_d)">
<rect x="39.7395" y="288.787" width="268.316" height="122.423" rx="23.7242" fill="#ECF0F3"/>
</g>
<g filter="url(#filter3_dd)">
<rect x="74.5212" y="342.849" width="200.375" height="38.6351" rx="8.18075" fill="#ECF0F3"/>
</g>
<path d="M159.893 369.409V359.331H161.948V363.532H166.133V359.331H168.188V369.409H166.133V365.254H161.948V369.409H159.893ZM173.751 369.636C172.996 369.636 172.331 369.48 171.757 369.167C171.193 368.855 170.755 368.407 170.442 367.823C170.13 367.228 169.974 366.513 169.974 365.677C169.974 364.348 170.291 363.33 170.926 362.625C171.571 361.92 172.477 361.567 173.646 361.567C174.472 361.567 175.141 361.749 175.655 362.111C176.169 362.474 176.542 362.993 176.773 363.668C177.005 364.343 177.116 365.143 177.106 366.07H171.213L171.077 364.771H175.58L175.217 365.315C175.197 364.519 175.056 363.95 174.794 363.607C174.542 363.255 174.134 363.078 173.57 363.078C173.228 363.078 172.93 363.159 172.679 363.32C172.427 363.471 172.23 363.728 172.089 364.091C171.958 364.453 171.893 364.952 171.893 365.587C171.893 366.372 172.074 366.972 172.437 367.385C172.81 367.798 173.379 368.004 174.144 368.004C174.456 368.004 174.754 367.974 175.036 367.913C175.328 367.853 175.595 367.777 175.836 367.687C176.088 367.586 176.305 367.495 176.486 367.415V369.122C176.123 369.273 175.721 369.394 175.277 369.485C174.834 369.585 174.325 369.636 173.751 369.636ZM180.711 369.409H178.807V358.908H180.711V369.409ZM186.613 369.621C186.442 369.621 186.21 369.601 185.918 369.56C185.636 369.53 185.344 369.465 185.042 369.364C184.75 369.263 184.498 369.117 184.286 368.926L184.709 368.306V372.295H182.821V363.335C182.821 363.013 182.916 362.741 183.108 362.519C183.309 362.298 183.571 362.116 183.893 361.975C184.226 361.834 184.598 361.734 185.011 361.673C185.424 361.603 185.852 361.567 186.296 361.567C187.011 361.567 187.65 361.698 188.215 361.96C188.789 362.212 189.237 362.64 189.559 363.245C189.892 363.839 190.058 364.66 190.058 365.707C190.058 366.493 189.922 367.183 189.65 367.777C189.378 368.362 188.985 368.815 188.471 369.137C187.968 369.46 187.348 369.621 186.613 369.621ZM186.145 368.049C186.588 368.049 186.955 367.964 187.248 367.792C187.54 367.621 187.756 367.359 187.897 367.007C188.048 366.654 188.124 366.201 188.124 365.647C188.124 365.163 188.069 364.74 187.958 364.378C187.857 364.005 187.666 363.718 187.384 363.517C187.112 363.305 186.724 363.199 186.22 363.199C185.727 363.199 185.349 363.25 185.087 363.35C184.835 363.451 184.709 363.592 184.709 363.773V367.672C184.941 367.803 185.183 367.898 185.434 367.959C185.686 368.019 185.923 368.049 186.145 368.049Z" fill="#636363"/>
</g>
<defs>
<filter id="filter0_d" x="13.47" y="21.9306" width="229.309" height="279.084" filterUnits="userSpaceOnUse" color-interpolation-filters="sRGB">
<feFlood flood-opacity="0" result="BackgroundImageFix"/>
<feColorMatrix in="SourceAlpha" type="matrix" values="0 0 0 0 0 0 0 0 0 0 0 0 0 0 0 0 0 0 127 0"/>
<feOffset dx="8.85596" dy="26.2478"/>
<feGaussianBlur stdDeviation="13.3373"/>
<feColorMatrix type="matrix" values="0 0 0 0 0 0 0 0 0 0 0 0 0 0 0 0 0 0 0.37 0"/>
<feBlend mode="normal" in2="BackgroundImageFix" result="effect1_dropShadow"/>
<feBlend mode="normal" in="SourceGraphic" in2="effect1_dropShadow" result="shape"/>
</filter>
<filter id="filter1_dd" x="39.9784" y="168.802" width="157.495" height="73.8598" filterUnits="userSpaceOnUse" color-interpolation-filters="sRGB">
<feFlood flood-opacity="0" result="BackgroundImageFix"/>
<feColorMatrix in="SourceAlpha" type="matrix" values="0 0 0 0 0 0 0 0 0 0 0 0 0 0 0 0 0 0 127 0"/>
<feMorphology radius="3.25852" operator="dilate" in="SourceAlpha" result="effect1_dropShadow"/>
<feOffset dx="-5.43086" dy="-4.34469"/>
<feGaussianBlur stdDeviation="2.71543"/>
<feColorMatrix type="matrix" values="0 0 0 0 1 0 0 0 0 1 0 0 0 0 1 0 0 0 1 0"/>
<feBlend mode="normal" in2="BackgroundImageFix" result="effect1_dropShadow"/>
<feColorMatrix in="SourceAlpha" type="matrix" values="0 0 0 0 0 0 0 0 0 0 0 0 0 0 0 0 0 0 127 0"/>
<feMorphology radius="2.17235" operator="dilate" in="SourceAlpha" result="effect2_dropShadow"/>
<feOffset dx="3.25852" dy="8.68938"/>
<feGaussianBlur stdDeviation="3.25852"/>
<feColorMatrix type="matrix" values="0 0 0 0 0 0 0 0 0 0 0 0 0 0 0 0 0 0 0.25 0"/>
<feBlend mode="normal" in2="effect1_dropShadow" result="effect2_dropShadow"/>
<feBlend mode="normal" in="SourceGraphic" in2="effect2_dropShadow" result="shape"/>
</filter>
<filter id="filter2_d" x="19.2876" y="288.787" width="309.22" height="164.145" filterUnits="userSpaceOnUse" color-interpolation-filters="sRGB">
<feFlood flood-opacity="0" result="BackgroundImageFix"/>
<feColorMatrix in="SourceAlpha" type="matrix" values="0 0 0 0 0 0 0 0 0 0 0 0 0 0 0 0 0 0 127 0"/>
<feOffset dy="21.2699"/>
<feGaussianBlur stdDeviation="10.2259"/>
<feColorMatrix type="matrix" values="0 0 0 0 0 0 0 0 0 0 0 0 0 0 0 0 0 0 0.33 0"/>
<feBlend mode="normal" in2="BackgroundImageFix" result="effect1_dropShadow"/>
<feBlend mode="normal" in="SourceGraphic" in2="effect1_dropShadow" result="shape"/>
</filter>
<filter id="filter3_dd" x="63.8863" y="333.032" width="220.009" height="61.5412" filterUnits="userSpaceOnUse" color-interpolation-filters="sRGB">
<feFlood flood-opacity="0" result="BackgroundImageFix"/>
<feColorMatrix in="SourceAlpha" type="matrix" values="0 0 0 0 0 0 0 0 0 0 0 0 0 0 0 0 0 0 127 0"/>
<feMorphology radius="2.45422" operator="dilate" in="SourceAlpha" result="effect1_dropShadow"/>
<feOffset dx="-4.09037" dy="-3.2723"/>
<feGaussianBlur stdDeviation="2.04519"/>
<feColorMatrix type="matrix" values="0 0 0 0 1 0 0 0 0 1 0 0 0 0 1 0 0 0 1 0"/>
<feBlend mode="normal" in2="BackgroundImageFix" result="effect1_dropShadow"/>
<feColorMatrix in="SourceAlpha" type="matrix" values="0 0 0 0 0 0 0 0 0 0 0 0 0 0 0 0 0 0 127 0"/>
<feMorphology radius="1.63615" operator="dilate" in="SourceAlpha" result="effect2_dropShadow"/>
<feOffset dx="2.45422" dy="6.5446"/>
<feGaussianBlur stdDeviation="2.45422"/>
<feColorMatrix type="matrix" values="0 0 0 0 0 0 0 0 0 0 0 0 0 0 0 0 0 0 0.25 0"/>
<feBlend mode="normal" in2="effect1_dropShadow" result="effect2_dropShadow"/>
<feBlend mode="normal" in="SourceGraphic" in2="effect2_dropShadow" result="shape"/>
</filter>
<clipPath id="clip0">
<rect width="332" height="476.068" fill="white" transform="translate(0 0.830078)"/>
</clipPath>
</defs>
</svg>
