<svg width="3300" height="2063" viewBox="0 0 3300 2063" fill="none" xmlns="http://www.w3.org/2000/svg">
<g clip-path="url(#clip0)">
<rect width="3300" height="2062.5" fill="#E4E9EC"/>
<rect width="3300" height="2062.5" fill="#818181"/>
<rect x="187.917" y="543.125" width="845.625" height="889.167" fill="#FCFCFC"/>
<line y1="-1.14583" x2="1226.81" y2="-1.14583" transform="matrix(0.688 0.72571 -0.446488 0.89479 187.917 543.125)" stroke="black" stroke-width="2.29167"/>
<line y1="-1.14583" x2="1226.81" y2="-1.14583" transform="matrix(-0.688983 0.724778 0.447458 0.894305 1033.17 543.125)" stroke="black" stroke-width="2.29167"/>
<rect x="1093.12" y="543.125" width="726.458" height="496.153" fill="#FCFCFC"/>
<line y1="-1.14583" x2="878.963" y2="-1.14583" transform="matrix(0.824953 0.565201 -0.60921 0.793009 1093.12 543.125)" stroke="black" stroke-width="2.29167"/>
<line y1="-1.14583" x2="879.458" y2="-1.14583" transform="matrix(-0.825667 0.564158 0.61025 0.792209 1819.26 543.125)" stroke="black" stroke-width="2.29167"/>
<rect x="1879.17" y="543.125" width="536.25" height="496.153" fill="#FCFCFC"/>
<line y1="-1.14583" x2="730.27" y2="-1.14583" transform="matrix(0.732948 0.680285 -0.493286 0.869867 1879.17 543.125)" stroke="black" stroke-width="2.29167"/>
<line y1="-1.14583" x2="730.396" y2="-1.14583" transform="matrix(-0.733868 0.679292 0.494299 0.869292 2415.18 543.125)" stroke="black" stroke-width="2.29167"/>
<rect x="1093.12" y="1100.5" width="726.458" height="496.153" fill="#FCFCFC"/>
<line y1="-1.14583" x2="878.963" y2="-1.14583" transform="matrix(0.824953 0.565201 -0.60921 0.793009 1093.12 1100.5)" stroke="black" stroke-width="2.29167"/>
<line y1="-1.14583" x2="879.458" y2="-1.14583" transform="matrix(-0.825667 0.564158 0.61025 0.792209 1819.26 1100.5)" stroke="black" stroke-width="2.29167"/>
<rect width="3300" height="151.25" fill="#FCFCFC"/>
<path d="M2019.05 688.878C2017.57 689.922 2015.67 690.747 2013.35 691.353C2011.03 691.938 2008.19 692.23 2004.83 692.23C2001.49 692.23 1998.11 692.032 1994.71 691.635V685.557C1997.76 686.246 2000.83 686.591 2003.92 686.591C2007.01 686.591 2009.33 686.424 2010.87 686.089C2012.42 685.734 2013.66 685.275 2014.6 684.711C2016.34 683.666 2017.2 682.309 2017.2 680.638C2017.2 679.343 2016.87 678.34 2016.2 677.63C2015.14 676.523 2013.6 675.51 2011.6 674.591L2003.57 670.925C2000.82 669.63 1998.86 668.429 1997.72 667.322C1995.25 664.941 1994.02 662.184 1994.02 659.05C1994.02 655.834 1995.42 653.233 1998.22 651.249C2001.29 649.077 2005.65 647.99 2011.31 647.99C2014.97 647.99 2018.31 648.137 2021.34 648.429V654.413C2018.77 653.828 2015.9 653.536 2012.72 653.536C2009.57 653.536 2007.27 653.703 2005.83 654.037C2004.41 654.351 2003.29 654.758 2002.48 655.259C2000.99 656.178 2000.25 657.39 2000.25 658.894C2000.25 660.356 2000.72 661.567 2001.66 662.528C2002.5 663.343 2004.02 664.283 2006.24 665.348L2014.48 669.264C2017.21 670.559 2019.13 671.781 2020.21 672.93C2021.32 674.079 2022.13 675.238 2022.66 676.408C2023.18 677.557 2023.44 678.946 2023.44 680.575C2023.44 682.183 2023.08 683.708 2022.37 685.149C2021.66 686.57 2020.56 687.813 2019.05 688.878ZM2046.09 648.304H2050.38L2068.78 691.917H2062.26L2057.84 680.951H2038.48L2034.09 691.917H2027.7L2046.09 648.304ZM2055.84 675.938L2048.19 656.826L2040.51 675.938H2055.84ZM2068.27 648.304H2074.79L2088.48 684.147L2102.11 648.304H2108.63L2091.46 691.917H2085.44L2068.27 648.304ZM2112.14 648.304H2118.4V691.917H2112.14V648.304ZM2128.09 648.304H2132.6L2155.38 680.481L2155.03 675.969V648.304H2161.23V691.917H2156.75L2137.74 665.191L2133.94 659.74L2134.29 665.191V691.917H2128.09V648.304ZM2203.63 691.478C2201.22 692.105 2198.05 692.418 2194.1 692.418C2190.17 692.418 2186.8 691.927 2183.98 690.946C2181.18 689.964 2178.77 688.512 2176.74 686.591C2172.4 682.538 2170.23 676.899 2170.23 669.672C2170.23 664.951 2171.35 660.878 2173.61 657.452C2176.66 652.795 2181.35 649.829 2187.68 648.554C2189.62 648.178 2192 647.99 2194.82 647.99C2197.64 647.99 2200.07 648.126 2202.12 648.398V654.413C2200.33 653.954 2197.76 653.724 2194.41 653.724C2191.09 653.724 2188.37 654.1 2186.24 654.852C2184.11 655.604 2182.34 656.68 2180.94 658.079C2178.14 660.815 2176.74 664.68 2176.74 669.672C2176.74 674.747 2178.12 678.81 2180.88 681.86C2183.89 685.181 2188.18 686.841 2193.76 686.841C2195.05 686.841 2196.25 686.789 2197.36 686.685V670.612H2203.63V691.478ZM2238.56 688.878C2237.08 689.922 2235.18 690.747 2232.86 691.353C2230.54 691.938 2227.7 692.23 2224.34 692.23C2220.99 692.23 2217.62 692.032 2214.22 691.635V685.557C2217.27 686.246 2220.34 686.591 2223.43 686.591C2226.52 686.591 2228.84 686.424 2230.38 686.089C2231.93 685.734 2233.17 685.275 2234.11 684.711C2235.84 683.666 2236.71 682.309 2236.71 680.638C2236.71 679.343 2236.38 678.34 2235.71 677.63C2234.64 676.523 2233.11 675.51 2231.1 674.591L2223.08 670.925C2220.33 669.63 2218.37 668.429 2217.22 667.322C2214.76 664.941 2213.53 662.184 2213.53 659.05C2213.53 655.834 2214.93 653.233 2217.72 651.249C2220.8 649.077 2225.16 647.99 2230.82 647.99C2234.48 647.99 2237.82 648.137 2240.85 648.429V654.413C2238.28 653.828 2235.41 653.536 2232.23 653.536C2229.08 653.536 2226.78 653.703 2225.34 654.037C2223.92 654.351 2222.8 654.758 2221.99 655.259C2220.5 656.178 2219.76 657.39 2219.76 658.894C2219.76 660.356 2220.23 661.567 2221.17 662.528C2222.01 663.343 2223.53 664.283 2225.75 665.348L2233.99 669.264C2236.72 670.559 2238.63 671.781 2239.72 672.93C2240.83 674.079 2241.64 675.238 2242.16 676.408C2242.69 677.557 2242.95 678.946 2242.95 680.575C2242.95 682.183 2242.59 683.708 2241.88 685.149C2241.17 686.57 2240.06 687.813 2238.56 688.878ZM2273.06 650.184C2276.71 649.599 2279.91 649.306 2282.64 649.306C2285.4 649.306 2287.73 649.505 2289.63 649.902C2291.55 650.298 2293.17 650.831 2294.49 651.5C2295.82 652.147 2296.9 652.889 2297.71 653.724C2298.53 654.56 2299.15 655.426 2299.59 656.325C2300.32 657.787 2300.69 659.311 2300.69 660.899C2300.69 662.486 2300.45 663.938 2299.97 665.254C2299.51 666.549 2298.84 667.865 2297.96 669.202C2297.09 670.539 2296.01 671.928 2294.74 673.369L2290.48 678.069L2282.33 686.403H2300.66V691.917H2271.99V689.035L2285.24 675.593L2289.47 671.113C2291.83 668.523 2293.32 666.33 2293.92 664.533C2294.26 663.573 2294.42 662.664 2294.42 661.808C2294.42 660.93 2294.3 660.105 2294.05 659.332C2293.8 658.56 2293.26 657.849 2292.45 657.202C2290.55 655.656 2287.54 654.883 2283.43 654.883C2279.31 654.883 2275.85 655.322 2273.06 656.199V650.184Z" fill="black"/>
<rect x="2477.29" y="543.125" width="536.25" height="496.153" fill="#FCFCFC"/>
<line y1="-1.14583" x2="730.27" y2="-1.14583" transform="matrix(0.732948 0.680285 -0.493286 0.869867 2477.29 543.125)" stroke="black" stroke-width="2.29167"/>
<line y1="-1.14583" x2="730.396" y2="-1.14583" transform="matrix(-0.733868 0.679292 0.494299 0.869292 3013.31 543.125)" stroke="black" stroke-width="2.29167"/>
<path d="M2638.08 790.207C2636.01 790.583 2633.22 790.771 2629.71 790.771C2626.22 790.771 2623.07 790.291 2620.25 789.33C2617.45 788.369 2615.04 786.949 2613.01 785.069C2608.67 781.038 2606.49 775.419 2606.49 768.213C2606.49 763.513 2607.61 759.44 2609.85 755.993C2612.87 751.336 2617.52 748.37 2623.79 747.095C2625.71 746.719 2628 746.531 2630.65 746.531C2633.32 746.531 2635.46 746.678 2637.07 746.97V752.954C2635.61 752.495 2633.34 752.265 2630.27 752.265C2627.22 752.265 2624.63 752.641 2622.5 753.393C2620.37 754.145 2618.61 755.221 2617.21 756.62C2614.41 759.356 2613.01 763.221 2613.01 768.213C2613.01 773.247 2614.39 777.236 2617.15 780.181C2620.13 783.356 2624.43 784.944 2630.02 784.944C2633.3 784.944 2635.99 784.693 2638.08 784.192V790.207ZM2644.5 768.714C2644.5 765.309 2645.01 762.228 2646.03 759.471C2647.06 756.714 2648.48 754.364 2650.29 752.422C2654.12 748.37 2659.08 746.343 2665.18 746.343C2671.3 746.343 2676.25 748.37 2680.03 752.422C2683.87 756.537 2685.79 761.967 2685.79 768.714C2685.79 775.461 2683.87 780.871 2680.03 784.944C2676.27 788.954 2671.32 790.959 2665.18 790.959C2659.06 790.959 2654.1 788.954 2650.29 784.944C2646.43 780.85 2644.5 775.44 2644.5 768.714ZM2650.76 768.683C2650.76 773.445 2651.92 777.382 2654.24 780.495C2656.85 783.962 2660.5 785.696 2665.18 785.696C2669.86 785.696 2673.49 783.962 2676.08 780.495C2678.38 777.424 2679.53 773.508 2679.53 768.745C2679.53 763.941 2678.38 759.983 2676.08 756.871C2673.49 753.362 2669.86 751.607 2665.18 751.607C2660.48 751.607 2656.83 753.362 2654.24 756.871C2651.92 759.983 2650.76 763.92 2650.76 768.683ZM2694 746.845H2698.51L2721.29 779.022L2720.95 774.51V746.845H2727.15V790.458H2722.67L2703.65 763.732L2699.86 758.281L2700.21 763.732V790.458H2694V746.845ZM2747.52 752.359H2734.39V746.845H2766.91V752.359H2753.78V790.458H2747.52V752.359ZM2788.72 746.845H2793.01L2811.4 790.458H2804.88L2800.47 779.492H2781.1L2776.72 790.458H2770.33L2788.72 746.845ZM2798.46 774.479L2790.82 755.367L2783.14 774.479H2798.46ZM2846.74 790.207C2844.67 790.583 2841.89 790.771 2838.38 790.771C2834.89 790.771 2831.73 790.291 2828.91 789.33C2826.12 788.369 2823.7 786.949 2821.68 785.069C2817.33 781.038 2815.16 775.419 2815.16 768.213C2815.16 763.513 2816.28 759.44 2818.51 755.993C2821.54 751.336 2826.19 748.37 2832.46 747.095C2834.38 746.719 2836.66 746.531 2839.32 746.531C2841.99 746.531 2844.13 746.678 2845.74 746.97V752.954C2844.28 752.495 2842.01 752.265 2838.94 752.265C2835.89 752.265 2833.3 752.641 2831.17 753.393C2829.04 754.145 2827.28 755.221 2825.88 756.62C2823.08 759.356 2821.68 763.221 2821.68 768.213C2821.68 773.247 2823.06 777.236 2825.81 780.181C2828.8 783.356 2833.09 784.944 2838.69 784.944C2841.97 784.944 2844.65 784.693 2846.74 784.192V790.207ZM2865.26 752.359H2852.13V746.845H2884.65V752.359H2871.53V790.458H2865.26V752.359Z" fill="black"/>
<rect x="1876.88" y="1102.29" width="536.25" height="496.153" fill="#FCFCFC"/>
<line y1="-1.14583" x2="730.27" y2="-1.14583" transform="matrix(0.732948 0.680285 -0.493286 0.869867 1876.88 1102.29)" stroke="black" stroke-width="2.29167"/>
<line y1="-1.14583" x2="730.396" y2="-1.14583" transform="matrix(-0.733868 0.679292 0.494299 0.869292 2412.89 1102.29)" stroke="black" stroke-width="2.29167"/>
<path d="M2084.08 1306.01H2112.25V1311.46H2090.34V1324.31H2106.92V1329.57H2090.34V1344.11H2112.25V1349.62H2084.08V1306.01ZM2121.55 1306.04H2132.14C2139.28 1306.04 2144.94 1307.81 2149.12 1311.34C2153.63 1315.12 2155.89 1320.63 2155.89 1327.88C2155.89 1335.13 2153.7 1340.63 2149.31 1344.39C2145.22 1347.88 2139.6 1349.62 2132.45 1349.62H2121.55V1306.04ZM2149.47 1327.91C2149.47 1316.7 2143.56 1311.09 2131.73 1311.09H2127.82V1344.61H2132.08C2141.1 1344.61 2146.59 1341.35 2148.56 1334.84C2149.16 1332.77 2149.47 1330.46 2149.47 1327.91ZM2164.41 1306.01H2170.68V1349.62H2164.41V1306.01ZM2191.07 1311.53H2177.95V1306.01H2210.47V1311.53H2197.34V1349.62H2191.07V1311.53Z" fill="black"/>
<path d="M1301.08 648.304H1313.45C1321.7 648.304 1327.02 650.748 1329.4 655.635C1330.26 657.432 1330.68 659.562 1330.68 662.027C1330.68 664.492 1330.25 666.601 1329.37 668.356C1328.49 670.11 1327.31 671.552 1325.83 672.68C1322.94 674.852 1319.09 675.938 1314.27 675.938H1307.34V691.917H1301.08V648.304ZM1313.04 670.925C1316.82 670.925 1319.62 670.194 1321.44 668.732C1323.26 667.27 1324.17 664.993 1324.17 661.902C1324.17 657.787 1322.26 655.134 1318.43 653.943C1317.1 653.526 1315.48 653.317 1313.58 653.317H1307.34V670.925H1313.04ZM1352.46 648.304H1356.75L1375.14 691.917H1368.63L1364.21 680.951H1344.85L1340.46 691.917H1334.07L1352.46 648.304ZM1362.2 675.938L1354.56 656.826L1346.88 675.938H1362.2ZM1391.59 672.93L1376.02 648.304H1382.79L1394.94 667.792L1406.85 648.304H1413.62L1398.11 672.868V691.917H1391.59V672.93ZM1418.16 648.304H1422.17L1437.71 666.163L1453.19 648.304H1457.2V691.917H1450.93V658.706L1449.09 661.212L1437.71 674.465L1426.34 661.244L1424.43 658.737V691.917H1418.16V648.304ZM1466.57 648.304H1494.73V653.755H1472.83V666.601H1489.41V671.865H1472.83V686.403H1494.73V691.917H1466.57V648.304ZM1504.01 648.304H1508.52L1531.3 680.481L1530.95 675.969V648.304H1537.16V691.917H1532.68L1513.66 665.191L1509.87 659.74L1510.21 665.191V691.917H1504.01V648.304ZM1557.52 653.818H1544.4V648.304H1576.92V653.818H1563.79V691.917H1557.52V653.818ZM1609.16 688.878C1607.67 689.922 1605.77 690.747 1603.45 691.353C1601.14 691.938 1598.3 692.23 1594.93 692.23C1591.59 692.23 1588.22 692.032 1584.81 691.635V685.557C1587.86 686.246 1590.93 686.591 1594.02 686.591C1597.12 686.591 1599.43 686.424 1600.98 686.089C1602.53 685.734 1603.77 685.275 1604.71 684.711C1606.44 683.666 1607.31 682.309 1607.31 680.638C1607.31 679.343 1606.97 678.34 1606.31 677.63C1605.24 676.523 1603.71 675.51 1601.7 674.591L1593.68 670.925C1590.92 669.63 1588.97 668.429 1587.82 667.322C1585.36 664.941 1584.12 662.184 1584.12 659.05C1584.12 655.834 1585.52 653.233 1588.32 651.249C1591.39 649.077 1595.76 647.99 1601.42 647.99C1605.07 647.99 1608.42 648.137 1611.44 648.429V654.413C1608.88 653.828 1606 653.536 1602.83 653.536C1599.67 653.536 1597.38 653.703 1595.94 654.037C1594.51 654.351 1593.4 654.758 1592.58 655.259C1591.1 656.178 1590.36 657.39 1590.36 658.894C1590.36 660.356 1590.83 661.567 1591.77 662.528C1592.6 663.343 1594.13 664.283 1596.34 665.348L1604.58 669.264C1607.32 670.559 1609.23 671.781 1610.32 672.93C1611.42 674.079 1612.24 675.238 1612.76 676.408C1613.28 677.557 1613.54 678.946 1613.54 680.575C1613.54 682.183 1613.19 683.708 1612.48 685.149C1611.77 686.57 1610.66 687.813 1609.16 688.878Z" fill="black"/>
<path d="M1332.36 1369.5C1330.87 1370.55 1328.97 1371.37 1326.66 1371.98C1324.34 1372.56 1321.5 1372.86 1318.13 1372.86C1314.79 1372.86 1311.42 1372.66 1308.01 1372.26V1366.18C1311.06 1366.87 1314.13 1367.22 1317.22 1367.22C1320.32 1367.22 1322.63 1367.05 1324.18 1366.71C1325.73 1366.36 1326.97 1365.9 1327.91 1365.34C1329.64 1364.29 1330.51 1362.93 1330.51 1361.26C1330.51 1359.97 1330.18 1358.97 1329.51 1358.25C1328.44 1357.15 1326.91 1356.13 1324.9 1355.22L1316.88 1351.55C1314.12 1350.25 1312.17 1349.05 1311.02 1347.95C1308.56 1345.57 1307.32 1342.81 1307.32 1339.68C1307.32 1336.46 1308.72 1333.86 1311.52 1331.87C1314.59 1329.7 1318.96 1328.62 1324.62 1328.62C1328.27 1328.62 1331.62 1328.76 1334.65 1329.05V1335.04C1332.08 1334.45 1329.2 1334.16 1326.03 1334.16C1322.87 1334.16 1320.58 1334.33 1319.14 1334.66C1317.72 1334.98 1316.6 1335.38 1315.78 1335.88C1314.3 1336.8 1313.56 1338.01 1313.56 1339.52C1313.56 1340.98 1314.03 1342.19 1314.97 1343.15C1315.8 1343.97 1317.33 1344.91 1319.54 1345.97L1327.78 1349.89C1330.52 1351.18 1332.43 1352.41 1333.52 1353.56C1334.62 1354.7 1335.44 1355.86 1335.96 1357.03C1336.48 1358.18 1336.74 1359.57 1336.74 1361.2C1336.74 1362.81 1336.39 1364.33 1335.68 1365.77C1334.97 1367.19 1333.86 1368.44 1332.36 1369.5ZM1359.4 1328.93H1363.69L1382.08 1372.54H1375.56L1371.15 1361.58H1351.78L1347.4 1372.54H1341.01L1359.4 1328.93ZM1369.14 1356.56L1361.5 1337.45L1353.82 1356.56H1369.14ZM1381.58 1328.93H1388.1L1401.79 1364.77L1415.42 1328.93H1421.93L1404.76 1372.54H1398.75L1381.58 1328.93ZM1425.44 1328.93H1431.71V1372.54H1425.44V1328.93ZM1441.39 1328.93H1445.9L1468.68 1361.11L1468.34 1356.59V1328.93H1474.54V1372.54H1470.06L1451.04 1345.82L1447.25 1340.36L1447.59 1345.82V1372.54H1441.39V1328.93ZM1516.93 1372.1C1514.53 1372.73 1511.35 1373.04 1507.41 1373.04C1503.48 1373.04 1500.11 1372.55 1497.29 1371.57C1494.49 1370.59 1492.07 1369.14 1490.05 1367.22C1485.7 1363.16 1483.53 1357.52 1483.53 1350.3C1483.53 1345.58 1484.66 1341.5 1486.92 1338.08C1489.97 1333.42 1494.65 1330.45 1500.98 1329.18C1502.93 1328.8 1505.31 1328.62 1508.13 1328.62C1510.95 1328.62 1513.38 1328.75 1515.43 1329.02V1335.04C1513.63 1334.58 1511.06 1334.35 1507.72 1334.35C1504.4 1334.35 1501.67 1334.73 1499.54 1335.48C1497.41 1336.23 1495.65 1337.3 1494.25 1338.7C1491.45 1341.44 1490.05 1345.3 1490.05 1350.3C1490.05 1355.37 1491.43 1359.44 1494.18 1362.48C1497.19 1365.81 1501.48 1367.47 1507.06 1367.47C1508.36 1367.47 1509.56 1367.41 1510.66 1367.31V1351.24H1516.93V1372.1ZM1551.87 1369.5C1550.38 1370.55 1548.48 1371.37 1546.16 1371.98C1543.84 1372.56 1541 1372.86 1537.64 1372.86C1534.3 1372.86 1530.93 1372.66 1527.52 1372.26V1366.18C1530.57 1366.87 1533.64 1367.22 1536.73 1367.22C1539.82 1367.22 1542.14 1367.05 1543.69 1366.71C1545.23 1366.36 1546.48 1365.9 1547.42 1365.34C1549.15 1364.29 1550.02 1362.93 1550.02 1361.26C1550.02 1359.97 1549.68 1358.97 1549.01 1358.25C1547.95 1357.15 1546.41 1356.13 1544.41 1355.22L1536.39 1351.55C1533.63 1350.25 1531.68 1349.05 1530.53 1347.95C1528.06 1345.57 1526.83 1342.81 1526.83 1339.68C1526.83 1336.46 1528.23 1333.86 1531.03 1331.87C1534.1 1329.7 1538.47 1328.62 1544.13 1328.62C1547.78 1328.62 1551.12 1328.76 1554.15 1329.05V1335.04C1551.58 1334.45 1548.71 1334.16 1545.54 1334.16C1542.38 1334.16 1540.08 1334.33 1538.64 1334.66C1537.22 1334.98 1536.11 1335.38 1535.29 1335.88C1533.81 1336.8 1533.07 1338.01 1533.07 1339.52C1533.07 1340.98 1533.54 1342.19 1534.48 1343.15C1535.31 1343.97 1536.84 1344.91 1539.05 1345.97L1547.29 1349.89C1550.03 1351.18 1551.94 1352.41 1553.02 1353.56C1554.13 1354.7 1554.95 1355.86 1555.47 1357.03C1555.99 1358.18 1556.25 1359.57 1556.25 1361.2C1556.25 1362.81 1555.9 1364.33 1555.19 1365.77C1554.48 1367.19 1553.37 1368.44 1551.87 1369.5ZM1596.29 1338.55L1585.05 1346.22V1339.89L1599.05 1329.93H1602.53V1372.54H1596.29V1338.55Z" fill="black"/>
<rect x="187.917" y="1432.29" width="845.625" height="164.788" fill="#FCFCFC"/>
<rect x="418.229" y="1463.23" width="385" height="107.708" fill="#FCFCFC" stroke="black" stroke-width="2.29167"/>
<rect x="1263.85" y="920.104" width="385" height="107.708" fill="#FCFCFC" stroke="black" stroke-width="2.29167"/>
<path d="M431.008 648.304H435.018L450.559 666.163L466.036 648.304H470.047V691.917H463.781V658.706L461.932 661.212L450.559 674.465L439.185 661.244L437.274 658.737V691.917H431.008V648.304ZM490.162 672.93L474.59 648.304H481.357L493.514 667.792L505.42 648.304H512.187L496.678 672.868V691.917H490.162V672.93ZM552.793 648.304H557.085L575.477 691.917H568.96L564.542 680.951H545.179L540.793 691.917H534.401L552.793 648.304ZM562.537 675.938L554.892 656.826L547.216 675.938H562.537ZM610.819 691.666C608.751 692.042 605.962 692.23 602.453 692.23C598.965 692.23 595.811 691.75 592.991 690.789C590.192 689.828 587.78 688.408 585.754 686.528C581.409 682.497 579.237 676.878 579.237 669.672C579.237 664.972 580.354 660.899 582.589 657.452C585.618 652.795 590.265 649.829 596.532 648.554C598.453 648.178 600.74 647.99 603.393 647.99C606.067 647.99 608.208 648.137 609.816 648.429V654.413C608.354 653.954 606.088 653.724 603.017 653.724C599.968 653.724 597.378 654.1 595.247 654.852C593.116 655.604 591.351 656.68 589.952 658.079C587.153 660.815 585.754 664.68 585.754 669.672C585.754 674.706 587.132 678.695 589.889 681.64C592.876 684.815 597.169 686.403 602.767 686.403C606.046 686.403 608.73 686.152 610.819 685.651V691.666ZM648.291 691.666C646.223 692.042 643.435 692.23 639.926 692.23C636.437 692.23 633.283 691.75 630.463 690.789C627.665 689.828 625.252 688.408 623.226 686.528C618.881 682.497 616.709 676.878 616.709 669.672C616.709 664.972 617.826 660.899 620.061 657.452C623.09 652.795 627.738 649.829 634.004 648.554C635.926 648.178 638.213 647.99 640.865 647.99C643.539 647.99 645.68 648.137 647.288 648.429V654.413C645.826 653.954 643.56 653.724 640.489 653.724C637.44 653.724 634.85 654.1 632.719 654.852C630.589 655.604 628.824 656.68 627.424 658.079C624.625 660.815 623.226 664.68 623.226 669.672C623.226 674.706 624.604 678.695 627.362 681.64C630.349 684.815 634.641 686.403 640.239 686.403C643.518 686.403 646.202 686.152 648.291 685.651V691.666ZM654.714 670.173C654.714 666.768 655.226 663.687 656.249 660.93C657.273 658.173 658.693 655.823 660.51 653.881C664.333 649.829 669.293 647.802 675.393 647.802C681.513 647.802 686.463 649.829 690.244 653.881C694.087 657.996 696.009 663.426 696.009 670.173C696.009 676.92 694.087 682.33 690.244 686.403C686.484 690.413 681.534 692.418 675.393 692.418C669.273 692.418 664.312 690.413 660.51 686.403C656.646 682.309 654.714 676.899 654.714 670.173ZM660.98 670.142C660.98 674.904 662.139 678.841 664.458 681.954C667.069 685.421 670.714 687.155 675.393 687.155C680.071 687.155 683.706 685.421 686.296 681.954C688.594 678.883 689.742 674.967 689.742 670.204C689.742 665.4 688.594 661.442 686.296 658.33C683.706 654.821 680.071 653.066 675.393 653.066C670.693 653.066 667.048 654.821 664.458 658.33C662.139 661.442 660.98 665.379 660.98 670.142ZM720.823 687.029C727.674 687.029 731.1 682.82 731.1 674.403V648.304H737.366V674.403C737.366 680.565 735.81 685.181 732.698 688.251C729.878 691.029 725.92 692.418 720.823 692.418C712.949 692.418 707.842 689.17 705.502 682.674C704.667 680.397 704.249 677.64 704.249 674.403V648.304H710.515V674.403C710.515 682.82 713.951 687.029 720.823 687.029ZM747.016 648.304H751.528L774.306 680.481L773.961 675.969V648.304H780.165V691.917H775.684L756.666 665.191L752.875 659.74L753.22 665.191V691.917H747.016V648.304ZM800.53 653.818H787.402V648.304H819.924V653.818H806.796V691.917H800.53V653.818Z" fill="black"/>
<path d="M486.764 1536.79C485.281 1537.84 483.381 1538.66 481.062 1539.27C478.744 1539.85 475.903 1540.15 472.54 1540.15C469.198 1540.15 465.825 1539.95 462.42 1539.55V1533.47C465.47 1534.16 468.54 1534.51 471.631 1534.51C474.723 1534.51 477.041 1534.34 478.587 1534.01C480.133 1533.65 481.375 1533.19 482.315 1532.63C484.049 1531.58 484.916 1530.22 484.916 1528.55C484.916 1527.26 484.582 1526.26 483.913 1525.55C482.848 1524.44 481.313 1523.43 479.308 1522.51L471.287 1518.84C468.53 1517.55 466.577 1516.34 465.428 1515.24C462.963 1512.86 461.731 1510.1 461.731 1506.97C461.731 1503.75 463.13 1501.15 465.929 1499.16C469 1496.99 473.365 1495.91 479.026 1495.91C482.681 1495.91 486.023 1496.05 489.052 1496.35V1502.33C486.482 1501.74 483.61 1501.45 480.435 1501.45C477.281 1501.45 474.984 1501.62 473.543 1501.95C472.122 1502.27 471.005 1502.67 470.19 1503.18C468.707 1504.09 467.966 1505.31 467.966 1506.81C467.966 1508.27 468.436 1509.48 469.375 1510.44C470.211 1511.26 471.736 1512.2 473.95 1513.26L482.19 1517.18C484.926 1518.48 486.838 1519.7 487.924 1520.85C489.031 1522 489.845 1523.15 490.368 1524.32C490.89 1525.47 491.151 1526.86 491.151 1528.49C491.151 1530.1 490.796 1531.62 490.086 1533.07C489.375 1534.49 488.268 1535.73 486.764 1536.79ZM499.391 1496.22H527.558V1501.67H505.657V1514.52H522.232V1519.78H505.657V1534.32H527.558V1539.83H499.391V1496.22ZM536.863 1496.22H565.03V1501.67H543.13V1514.52H559.704V1519.78H543.13V1534.32H565.03V1539.83H536.863V1496.22ZM595.422 1496.22H599.432L614.972 1514.08L630.45 1496.22H634.461V1539.83H628.194V1506.62L626.346 1509.13L614.972 1522.38L603.599 1509.16L601.688 1506.65V1539.83H595.422V1496.22ZM642.419 1518.09C642.419 1514.68 642.93 1511.6 643.954 1508.85C644.977 1506.09 646.398 1503.74 648.215 1501.8C652.037 1497.74 656.998 1495.72 663.097 1495.72C669.217 1495.72 674.168 1497.74 677.948 1501.8C681.792 1505.91 683.713 1511.34 683.713 1518.09C683.713 1524.84 681.792 1530.25 677.948 1534.32C674.189 1538.33 669.238 1540.33 663.097 1540.33C656.977 1540.33 652.017 1538.33 648.215 1534.32C644.351 1530.22 642.419 1524.81 642.419 1518.09ZM648.685 1518.06C648.685 1522.82 649.844 1526.76 652.163 1529.87C654.774 1533.34 658.419 1535.07 663.097 1535.07C667.776 1535.07 671.411 1533.34 674.001 1529.87C676.298 1526.8 677.447 1522.88 677.447 1518.12C677.447 1513.32 676.298 1509.36 674.001 1506.25C671.411 1502.74 667.776 1500.98 663.097 1500.98C658.398 1500.98 654.753 1502.74 652.163 1506.25C649.844 1509.36 648.685 1513.3 648.685 1518.06ZM692.455 1496.22H704.831C713.081 1496.22 718.397 1498.66 720.778 1503.55C721.635 1505.35 722.063 1507.37 722.063 1509.63C722.063 1511.86 721.76 1513.75 721.154 1515.3C720.57 1516.85 719.745 1518.17 718.679 1519.28C716.632 1521.41 713.812 1522.81 710.22 1523.48C711.703 1528.05 714.22 1531.21 717.771 1532.94C718.94 1533.52 719.922 1533.84 720.716 1533.88C722.053 1533.92 722.993 1533.88 723.536 1533.75V1539.83H722.126C717.426 1539.83 713.426 1538.16 710.126 1534.82C707.222 1531.92 705.269 1528.26 704.267 1523.85H698.721V1539.83H692.455V1496.22ZM704.424 1518.84C708.204 1518.84 711.003 1518.11 712.82 1516.65C714.638 1515.19 715.546 1512.91 715.546 1509.82C715.546 1505.7 713.635 1503.05 709.813 1501.86C708.476 1501.44 706.857 1501.23 704.956 1501.23H698.721V1518.84H704.424ZM729.426 1496.22H757.593V1501.67H735.692V1514.52H752.267V1519.78H735.692V1534.32H757.593V1539.83H729.426V1496.22Z" fill="black"/>
<path d="M1332.39 993.669C1330.91 994.713 1329.01 995.538 1326.69 996.144C1324.37 996.729 1321.53 997.021 1318.16 997.021C1314.82 997.021 1311.45 996.823 1308.04 996.426V990.348C1311.09 991.037 1314.16 991.382 1317.26 991.382C1320.35 991.382 1322.67 991.215 1324.21 990.88C1325.76 990.525 1327 990.066 1327.94 989.502C1329.67 988.457 1330.54 987.1 1330.54 985.429C1330.54 984.134 1330.21 983.131 1329.54 982.421C1328.47 981.314 1326.94 980.301 1324.93 979.382L1316.91 975.716C1314.15 974.421 1312.2 973.22 1311.05 972.113C1308.59 969.732 1307.36 966.975 1307.36 963.841C1307.36 960.625 1308.75 958.024 1311.55 956.04C1314.62 953.868 1318.99 952.781 1324.65 952.781C1328.31 952.781 1331.65 952.928 1334.68 953.22V959.204C1332.11 958.619 1329.24 958.327 1326.06 958.327C1322.91 958.327 1320.61 958.494 1319.17 958.828C1317.75 959.142 1316.63 959.549 1315.81 960.05C1314.33 960.969 1313.59 962.181 1313.59 963.685C1313.59 965.147 1314.06 966.358 1315 967.319C1315.84 968.134 1317.36 969.074 1319.57 970.139L1327.81 974.055C1330.55 975.35 1332.46 976.572 1333.55 977.721C1334.66 978.87 1335.47 980.029 1335.99 981.199C1336.51 982.348 1336.78 983.737 1336.78 985.366C1336.78 986.974 1336.42 988.499 1335.71 989.94C1335 991.361 1333.89 992.604 1332.39 993.669ZM1345.02 953.095H1373.18V958.546H1351.28V971.392H1367.86V976.656H1351.28V991.194H1373.18V996.708H1345.02V953.095ZM1382.49 953.095H1410.65V958.546H1388.75V971.392H1405.33V976.656H1388.75V991.194H1410.65V996.708H1382.49V953.095ZM1441.05 953.095H1445.06L1460.6 970.954L1476.07 953.095H1480.09V996.708H1473.82V963.497L1471.97 966.003L1460.6 979.256L1449.22 966.035L1447.31 963.528V996.708H1441.05V953.095ZM1488.04 974.964C1488.04 971.559 1488.56 968.478 1489.58 965.721C1490.6 962.964 1492.02 960.614 1493.84 958.672C1497.66 954.62 1502.62 952.593 1508.72 952.593C1514.84 952.593 1519.79 954.62 1523.57 958.672C1527.42 962.787 1529.34 968.217 1529.34 974.964C1529.34 981.711 1527.42 987.121 1523.57 991.194C1519.81 995.204 1514.86 997.209 1508.72 997.209C1502.6 997.209 1497.64 995.204 1493.84 991.194C1489.98 987.1 1488.04 981.69 1488.04 974.964ZM1494.31 974.933C1494.31 979.695 1495.47 983.632 1497.79 986.745C1500.4 990.212 1504.04 991.946 1508.72 991.946C1513.4 991.946 1517.04 990.212 1519.63 986.745C1521.92 983.674 1523.07 979.758 1523.07 974.995C1523.07 970.191 1521.92 966.233 1519.63 963.121C1517.04 959.612 1513.4 957.857 1508.72 957.857C1504.02 957.857 1500.38 959.612 1497.79 963.121C1495.47 966.233 1494.31 970.17 1494.31 974.933ZM1538.08 953.095H1550.46C1558.71 953.095 1564.02 955.539 1566.4 960.426C1567.26 962.223 1567.69 964.249 1567.69 966.505C1567.69 968.74 1567.38 970.63 1566.78 972.176C1566.19 973.721 1565.37 975.048 1564.3 976.155C1562.26 978.285 1559.44 979.685 1555.84 980.353C1557.33 984.927 1559.84 988.081 1563.4 989.815C1564.57 990.4 1565.55 990.713 1566.34 990.755C1567.68 990.797 1568.62 990.755 1569.16 990.63V996.708H1567.75C1563.05 996.708 1559.05 995.037 1555.75 991.695C1552.85 988.792 1550.89 985.136 1549.89 980.729H1544.35V996.708H1538.08V953.095ZM1550.05 975.716C1553.83 975.716 1556.63 974.985 1558.45 973.523C1560.26 972.061 1561.17 969.784 1561.17 966.693C1561.17 962.578 1559.26 959.925 1555.44 958.734C1554.1 958.317 1552.48 958.108 1550.58 958.108H1544.35V975.716H1550.05ZM1575.05 953.095H1603.22V958.546H1581.32V971.392H1597.89V976.656H1581.32V991.194H1603.22V996.708H1575.05V953.095Z" fill="black"/>
<path d="M194.978 298.052H205.004V325.623H237.99V298.052H248.016V367.833H237.99V334.446H205.004V367.833H194.978V298.052ZM263.456 298.052H308.523V306.774H273.482V327.328H300.001V335.75H273.482V359.01H308.523V367.833H263.456V298.052ZM323.411 298.052H333.438V359.01H363.315V367.833H323.411V298.052ZM374.845 298.052H384.871V359.01H414.749V367.833H374.845V298.052ZM424.023 333.043C424.023 327.595 424.842 322.666 426.479 318.254C428.117 313.843 430.389 310.083 433.297 306.975C439.413 300.491 447.35 297.25 457.109 297.25C466.901 297.25 474.821 300.491 480.87 306.975C487.02 313.559 490.094 322.248 490.094 333.043C490.094 343.837 487.02 352.493 480.87 359.01C474.855 365.427 466.934 368.635 457.109 368.635C447.317 368.635 439.379 365.427 433.297 359.01C427.114 352.46 424.023 343.804 424.023 333.043ZM434.049 332.993C434.049 340.612 435.904 346.912 439.613 351.892C443.791 357.439 449.623 360.213 457.109 360.213C464.595 360.213 470.41 357.439 474.554 351.892C478.23 346.979 480.068 340.713 480.068 333.093C480.068 325.406 478.23 319.073 474.554 314.093C470.41 308.479 464.595 305.672 457.109 305.672C449.589 305.672 443.757 308.479 439.613 314.093C435.904 319.073 434.049 325.373 434.049 332.993ZM535.212 310.584C535.212 304.101 536.465 299.322 538.971 296.247C541.779 292.838 546.357 291.134 552.707 291.134V299.155C548.496 299.155 546.023 301.327 545.288 305.672C545.02 307.075 544.887 308.713 544.887 310.584V316.7H535.212V310.584ZM563.084 298.052H570.303L606.747 349.535L606.196 342.317V298.052H616.122V367.833H608.953L578.524 325.072L572.458 316.349L573.01 325.072V367.833H563.084V298.052ZM654.672 298.052H661.54L690.966 367.833H680.539L673.471 350.287H642.49L635.472 367.833H625.245L654.672 298.052ZM670.262 342.267L658.031 311.687L645.749 342.267H670.262ZM699.639 298.052H706.055L730.92 326.626L755.684 298.052H762.101V367.833H752.075V314.695L749.117 318.705L730.92 339.91L712.723 318.756L709.665 314.745V367.833H699.639V298.052ZM777.09 298.052H822.157V306.774H787.116V327.328H813.635V335.75H787.116V359.01H822.157V367.833H777.09V298.052ZM852.235 297.25C852.235 303.733 850.982 308.512 848.475 311.587C845.668 314.996 841.089 316.7 834.74 316.7V308.679C838.951 308.679 841.424 306.507 842.159 302.162C842.426 300.759 842.56 299.121 842.56 297.25V291.134H852.235V297.25Z" fill="white"/>
<path d="M193.082 57.0537H199.348V95.1527H218.022V100.667H193.082V57.0537ZM223.818 78.923C223.818 75.5183 224.33 72.4374 225.353 69.6803C226.377 66.9231 227.797 64.5732 229.614 62.6307C233.437 58.5785 238.398 56.5524 244.497 56.5524C250.617 56.5524 255.567 58.5785 259.348 62.6307C263.191 66.7455 265.113 72.1763 265.113 78.923C265.113 85.6697 263.191 91.0796 259.348 95.1527C255.588 99.1631 250.638 101.168 244.497 101.168C238.377 101.168 233.416 99.1631 229.614 95.1527C225.75 91.0587 223.818 85.6488 223.818 78.923ZM230.084 78.8917C230.084 83.6541 231.244 87.5914 233.562 90.7036C236.173 94.171 239.818 95.9046 244.497 95.9046C249.176 95.9046 252.81 94.171 255.4 90.7036C257.698 87.6331 258.847 83.7167 258.847 78.9543C258.847 74.1502 257.698 70.192 255.4 67.0797C252.81 63.5706 249.176 61.8161 244.497 61.8161C239.797 61.8161 236.152 63.5706 233.562 67.0797C231.244 70.192 230.084 74.1293 230.084 78.8917ZM306.063 100.228C303.661 100.855 300.486 101.168 296.538 101.168C292.611 101.168 289.238 100.677 286.418 99.6957C283.619 98.714 281.207 97.2623 279.181 95.3407C274.836 91.2885 272.664 85.6488 272.664 78.4217C272.664 73.7011 273.792 69.628 276.047 66.2025C279.097 61.5445 283.786 58.5785 290.115 57.3044C292.058 56.9284 294.439 56.7404 297.259 56.7404C300.079 56.7404 302.512 56.8762 304.559 57.1477V63.1633C302.763 62.7038 300.194 62.474 296.851 62.474C293.53 62.474 290.805 62.85 288.674 63.602C286.543 64.3539 284.778 65.4296 283.379 66.8291C280.58 69.5654 279.181 73.4296 279.181 78.4217C279.181 83.4974 280.559 87.56 283.316 90.6096C286.324 93.9307 290.617 95.5913 296.194 95.5913C297.489 95.5913 298.69 95.5391 299.797 95.4347V79.3617H306.063V100.228ZM314.742 78.923C314.742 75.5183 315.253 72.4374 316.277 69.6803C317.3 66.9231 318.721 64.5732 320.538 62.6307C324.36 58.5785 329.321 56.5524 335.42 56.5524C341.54 56.5524 346.491 58.5785 350.271 62.6307C354.115 66.7455 356.036 72.1763 356.036 78.923C356.036 85.6697 354.115 91.0796 350.271 95.1527C346.512 99.1631 341.561 101.168 335.42 101.168C329.3 101.168 324.34 99.1631 320.538 95.1527C316.674 91.0587 314.742 85.6488 314.742 78.923ZM321.008 78.8917C321.008 83.6541 322.167 87.5914 324.486 90.7036C327.097 94.171 330.742 95.9046 335.42 95.9046C340.099 95.9046 343.734 94.171 346.324 90.7036C348.621 87.6331 349.77 83.7167 349.77 78.9543C349.77 74.1502 348.621 70.192 346.324 67.0797C343.734 63.5706 340.099 61.8161 335.42 61.8161C330.721 61.8161 327.076 63.5706 324.486 67.0797C322.167 70.192 321.008 74.1293 321.008 78.8917Z" fill="black"/>
<path d="M2908.24 60.087H2932.02V64.6899H2913.53V75.5358H2927.53V79.98H2913.53V92.2544H2932.02V96.9102H2908.24V60.087ZM2948.64 78.2605L2937 60.087H2942.9L2951.6 74.1867L2960.49 60.087H2966.04L2954.19 77.9166L2967.07 96.9102H2961.2L2951.31 81.8317L2942.13 96.9102H2936.34L2948.64 78.2605ZM2971.57 60.087H2976.86V96.9102H2971.57V60.087ZM2994.08 64.7428H2983V60.087H3010.46V64.7428H2999.37V96.9102H2994.08V64.7428Z" fill="black"/>
<path d="M2611.4 96.6985C2609.65 97.016 2607.3 97.1747 2604.33 97.1747C2601.39 97.1747 2598.73 96.7691 2596.34 95.9578C2593.98 95.1466 2591.94 93.9474 2590.23 92.3602C2586.57 88.9565 2584.73 84.2125 2584.73 78.1282C2584.73 74.1602 2585.67 70.7212 2587.56 67.8114C2590.12 63.8786 2594.04 61.3744 2599.33 60.2986C2600.96 59.9812 2602.89 59.8224 2605.13 59.8224C2607.38 59.8224 2609.19 59.9459 2610.55 60.1928V65.2454C2609.32 64.8574 2607.4 64.6634 2604.81 64.6634C2602.23 64.6634 2600.05 64.9809 2598.25 65.6157C2596.45 66.2506 2594.96 67.1589 2593.78 68.3404C2591.42 70.6507 2590.23 73.9133 2590.23 78.1282C2590.23 82.3784 2591.4 85.7468 2593.73 88.2334C2596.25 90.914 2599.87 92.2544 2604.6 92.2544C2607.37 92.2544 2609.63 92.0427 2611.4 91.6195V96.6985ZM2616.82 78.5515C2616.82 75.6769 2617.25 73.0756 2618.12 70.7477C2618.98 68.4198 2620.18 66.4358 2621.71 64.7957C2624.94 61.3744 2629.13 59.6637 2634.28 59.6637C2639.45 59.6637 2643.63 61.3744 2646.82 64.7957C2650.06 68.2699 2651.68 72.8552 2651.68 78.5515C2651.68 84.2478 2650.06 88.8154 2646.82 92.2544C2643.64 95.6404 2639.46 97.3334 2634.28 97.3334C2629.11 97.3334 2624.92 95.6404 2621.71 92.2544C2618.45 88.7978 2616.82 84.2301 2616.82 78.5515ZM2622.11 78.525C2622.11 82.5459 2623.09 85.8703 2625.05 88.498C2627.25 91.4255 2630.33 92.8892 2634.28 92.8892C2638.23 92.8892 2641.3 91.4255 2643.48 88.498C2645.42 85.9055 2646.39 82.5988 2646.39 78.5779C2646.39 74.5217 2645.42 71.1798 2643.48 68.5521C2641.3 65.5893 2638.23 64.1079 2634.28 64.1079C2630.31 64.1079 2627.23 65.5893 2625.05 68.5521C2623.09 71.1798 2622.11 74.5041 2622.11 78.525ZM2658.62 60.087H2662.43L2681.66 87.2547L2681.37 83.4454V60.087H2686.6V96.9102H2682.82L2666.76 74.3454L2663.56 69.7425L2663.85 74.3454V96.9102H2658.62V60.087ZM2703.8 64.7428H2692.71V60.087H2720.17V64.7428H2709.09V96.9102H2703.8V64.7428ZM2738.58 60.087H2742.21L2757.74 96.9102H2752.23L2748.5 87.6515H2732.16L2728.45 96.9102H2723.06L2738.58 60.087ZM2746.81 83.4189L2740.36 67.2823L2733.88 83.4189H2746.81ZM2787.58 96.6985C2785.83 97.016 2783.48 97.1747 2780.51 97.1747C2777.57 97.1747 2774.91 96.7691 2772.52 95.9578C2770.16 95.1466 2768.12 93.9474 2766.41 92.3602C2762.75 88.9565 2760.91 84.2125 2760.91 78.1282C2760.91 74.1602 2761.85 70.7212 2763.74 67.8114C2766.3 63.8786 2770.22 61.3744 2775.51 60.2986C2777.14 59.9812 2779.07 59.8224 2781.31 59.8224C2783.56 59.8224 2785.37 59.9459 2786.73 60.1928V65.2454C2785.5 64.8574 2783.58 64.6634 2780.99 64.6634C2778.41 64.6634 2776.23 64.9809 2774.43 65.6157C2772.63 66.2506 2771.14 67.1589 2769.96 68.3404C2767.6 70.6507 2766.41 73.9133 2766.41 78.1282C2766.41 82.3784 2767.58 85.7468 2769.91 88.2334C2772.43 90.914 2776.05 92.2544 2780.78 92.2544C2783.55 92.2544 2785.81 92.0427 2787.58 91.6195V96.6985ZM2803.21 64.7428H2792.13V60.087H2819.58V64.7428H2808.5V96.9102H2803.21V64.7428Z" fill="black"/>
<path d="M2371.94 60.087H2377.23V74.6364H2394.64V60.087H2399.93V96.9102H2394.64V79.2922H2377.23V96.9102H2371.94V60.087ZM2408.08 60.087H2431.86V64.6899H2413.37V75.5358H2427.36V79.98H2413.37V92.2544H2431.86V96.9102H2408.08V60.087ZM2439.71 60.087H2445V92.2544H2460.77V96.9102H2439.71V60.087ZM2467.28 60.087H2477.73C2484.69 60.087 2489.18 62.1503 2491.19 66.2771C2491.92 67.7937 2492.28 69.5926 2492.28 71.6736C2492.28 73.7546 2491.91 75.5358 2491.17 77.0172C2490.42 78.4986 2489.43 79.7154 2488.18 80.6677C2485.74 82.5018 2482.49 83.4189 2478.42 83.4189H2472.57V96.9102H2467.28V60.087ZM2477.38 79.1864C2480.58 79.1864 2482.94 78.5691 2484.47 77.3346C2486.01 76.1001 2486.77 74.1778 2486.77 71.5678C2486.77 68.0935 2485.16 65.8538 2481.93 64.8486C2480.8 64.4959 2479.44 64.3195 2477.83 64.3195H2472.57V79.1864H2477.38Z" fill="black"/>
</g>
<defs>
<clipPath id="clip0">
<rect width="3300" height="2062.5" fill="white"/>
</clipPath>
</defs>
</svg>
