<svg width="144" height="144" viewBox="0 0 144 144" fill="none" xmlns="http://www.w3.org/2000/svg">
<path d="M0 0H144V144H0V0Z" fill="#EEECE9"/>
<path d="M77.9971 94L68.6654 77.0623H66.0448V94H55.1152V49.1311H73.4591C76.9958 49.1311 79.9998 49.749 82.4712 50.9847C84.9852 52.2204 86.8601 53.9248 88.0958 56.0979C89.3315 58.2285 89.9494 60.6146 89.9494 63.2565C89.9494 66.2392 89.0971 68.9024 87.3927 71.246C85.7309 73.5896 83.2595 75.2514 79.9785 76.2314L90.3328 94H77.9971ZM66.0448 69.3285H72.8199C74.8226 69.3285 76.314 68.8385 77.294 67.8584C78.3167 66.8784 78.828 65.4936 78.828 63.7039C78.828 61.9995 78.3167 60.6573 77.294 59.6772C76.314 58.6972 74.8226 58.2072 72.8199 58.2072H66.0448V69.3285Z" fill="black"/>
<path d="M0 0V-2.52632H-2.52632V0H0ZM144 0H146.526V-2.52632H144V0ZM144 144V146.526H146.526V144H144ZM0 144H-2.52632V146.526H0V144ZM0 2.52632H144V-2.52632H0V2.52632ZM141.474 0V144H146.526V0H141.474ZM144 141.474H0V146.526H144V141.474ZM2.52632 144V0H-2.52632V144H2.52632Z" fill="black"/>
</svg>
