<svg width="144" height="144" viewBox="0 0 144 144" fill="none" xmlns="http://www.w3.org/2000/svg">
<rect width="144" height="144" fill="white"/>
<path d="M78.8741 98L68.1777 78.5853H65.1739V98H52.6459V46.5693H73.6725C77.7264 46.5693 81.1697 47.2775 84.0026 48.6939C86.8843 50.1103 89.0333 52.064 90.4497 54.5549C91.8661 56.9971 92.5744 59.7322 92.5744 62.7604C92.5744 66.1794 91.5975 69.232 89.6438 71.9183C87.739 74.6046 84.9061 76.5095 81.1453 77.6328L93.0139 98H78.8741ZM65.1739 69.7204H72.9398C75.2354 69.7204 76.9449 69.1587 78.0683 68.0354C79.2405 66.912 79.8266 65.3246 79.8266 63.2733C79.8266 61.3196 79.2405 59.7811 78.0683 58.6577C76.9449 57.5343 75.2354 56.9726 72.9398 56.9726H65.1739V69.7204Z" fill="black"/>
</svg>
