<svg width="144" height="144" viewBox="0 0 144 144" fill="none" xmlns="http://www.w3.org/2000/svg">
<path d="M0 72C0 32.2355 32.2355 0 72 0V0C111.765 0 144 32.2355 144 72V72C144 111.765 111.765 144 72 144V144C32.2355 144 0 111.765 0 72V72Z" fill="#EEECE9"/>
<path d="M77.9971 94L68.6654 77.0623H66.0448V94H55.1152V49.1311H73.4591C76.9958 49.1311 79.9998 49.749 82.4712 50.9847C84.9852 52.2204 86.8601 53.9248 88.0958 56.0979C89.3315 58.2285 89.9494 60.6146 89.9494 63.2565C89.9494 66.2392 89.0971 68.9024 87.3927 71.246C85.7309 73.5896 83.2595 75.2514 79.9785 76.2314L90.3328 94H77.9971ZM66.0448 69.3285H72.8199C74.8226 69.3285 76.314 68.8385 77.294 67.8584C78.3167 66.8784 78.828 65.4936 78.828 63.7039C78.828 61.9995 78.3167 60.6573 77.294 59.6772C76.314 58.6972 74.8226 58.2072 72.8199 58.2072H66.0448V69.3285Z" fill="black"/>
<path d="M72 141.474C33.6307 141.474 2.52632 110.369 2.52632 72H-2.52632C-2.52632 113.16 30.8403 146.526 72 146.526V141.474ZM141.474 72C141.474 110.369 110.369 141.474 72 141.474V146.526C113.16 146.526 146.526 113.16 146.526 72H141.474ZM72 2.52632C110.369 2.52632 141.474 33.6307 141.474 72H146.526C146.526 30.8403 113.16 -2.52632 72 -2.52632V2.52632ZM72 -2.52632C30.8403 -2.52632 -2.52632 30.8403 -2.52632 72H2.52632C2.52632 33.6307 33.6307 2.52632 72 2.52632V-2.52632Z" fill="black"/>
</svg>
