<svg width="4836" height="3357" viewBox="0 0 4836 3357" fill="none" xmlns="http://www.w3.org/2000/svg">
<g clip-path="url(#clip0)">
<path d="M-8400.91 -17359.6L-8382.54 -17391.4H-8419.27L-8400.91 -17359.6ZM5483.27 29986.7L5480.09 29986.7L5483.27 29986.7ZM-8343.8 -18148.2V-18151.4V-18148.2ZM5426.16 -18148.2V-18145V-18148.2ZM5483.27 -18091.1L5486.45 -18091.1L5483.27 -18091.1ZM5426.16 -18151.4L-8343.8 -18151.4V-18145L5426.16 -18145L5426.16 -18151.4ZM-8404.09 -18091.1L-8404.09 -17388.2H-8397.72L-8397.72 -18091.1H-8404.09ZM5480.09 -18091.1L5480.09 29986.7L5486.45 29986.7L5486.45 -18091.1L5480.09 -18091.1ZM5426.01 30040.8L-1721.5 30040.8L-1721.5 30047.2L5426.01 30047.2L5426.01 30040.8ZM5480.09 29986.7C5480.09 30016.6 5455.88 30040.8 5426.01 30040.8L5426.01 30047.2C5459.39 30047.2 5486.45 30020.1 5486.45 29986.7L5480.09 29986.7ZM-8343.8 -18151.4C-8377.1 -18151.4 -8404.09 -18124.4 -8404.09 -18091.1H-8397.72C-8397.72 -18120.9 -8373.58 -18145 -8343.8 -18145V-18151.4ZM5426.16 -18145C5455.95 -18145 5480.09 -18120.9 5480.09 -18091.1L5486.45 -18091.1C5486.45 -18124.4 5459.46 -18151.4 5426.16 -18151.4L5426.16 -18145Z" fill="black"/>
<path d="M3480.74 936.966L3519.17 870.405L3442.31 870.405L3480.74 936.966ZM3580.58 425.325L3580.58 418.669L3580.58 425.325ZM3480.74 525.166L3474.09 525.166L3480.74 525.166ZM14567.2 418.669L3580.58 418.669L3580.58 431.981L14567.2 431.982L14567.2 418.669ZM3474.09 525.166L3474.08 877.061L3487.4 877.061L3487.4 525.166L3474.09 525.166ZM14680.3 545.136L14680.3 3950.3L14693.7 3950.3L14693.7 545.136L14680.3 545.136ZM14567.2 4063.44L13921 4063.44L13921 4076.75L14567.2 4076.75L14567.2 4063.44ZM14680.3 3950.3C14680.3 4012.79 14629.7 4063.44 14567.2 4063.44L14567.2 4076.75C14637 4076.75 14693.7 4020.14 14693.7 3950.3L14680.3 3950.3ZM3580.58 418.669C3521.77 418.669 3474.09 466.349 3474.09 525.166L3487.4 525.166C3487.4 473.701 3529.12 431.981 3580.58 431.981L3580.58 418.669ZM14567.2 431.982C14629.7 431.982 14680.3 482.642 14680.3 545.136L14693.7 545.136C14693.7 475.29 14637 418.669 14567.2 418.669L14567.2 431.982Z" fill="black"/>
<rect x="2721.17" y="1074.48" width="1518.96" height="327.448" rx="23.2964" fill="white" stroke="#7B7B7B" stroke-width="6.65611"/>
<path d="M3223.84 1270H3212.59V1184.69H3223.84V1270ZM3240.13 1237.78C3240.13 1228.05 3242.43 1220.24 3247.04 1214.34C3251.65 1208.4 3257.69 1205.43 3265.15 1205.43C3272.57 1205.43 3278.45 1207.97 3282.79 1213.05V1180H3293.63V1270H3283.67L3283.14 1263.21C3278.8 1268.52 3272.77 1271.18 3265.03 1271.18C3257.69 1271.18 3251.69 1268.17 3247.04 1262.15C3242.43 1256.14 3240.13 1248.29 3240.13 1238.6V1237.78ZM3250.97 1239.01C3250.97 1246.2 3252.45 1251.82 3255.42 1255.88C3258.39 1259.95 3262.49 1261.98 3267.73 1261.98C3274.6 1261.98 3279.62 1258.89 3282.79 1252.72V1223.6C3279.54 1217.62 3274.56 1214.63 3267.84 1214.63C3262.53 1214.63 3258.39 1216.68 3255.42 1220.79C3252.45 1224.89 3250.97 1230.96 3250.97 1239.01ZM3336.81 1271.18C3328.22 1271.18 3321.22 1268.36 3315.83 1262.74C3310.44 1257.08 3307.75 1249.52 3307.75 1240.06V1238.07C3307.75 1231.78 3308.94 1226.18 3311.32 1221.25C3313.74 1216.29 3317.1 1212.43 3321.4 1209.65C3325.74 1206.84 3330.42 1205.43 3335.46 1205.43C3343.7 1205.43 3350.11 1208.15 3354.68 1213.58C3359.25 1219.01 3361.54 1226.78 3361.54 1236.9V1241.41H3318.59C3318.74 1247.66 3320.56 1252.72 3324.04 1256.59C3327.55 1260.42 3332 1262.33 3337.4 1262.33C3341.22 1262.33 3344.47 1261.55 3347.12 1259.99C3349.78 1258.42 3352.1 1256.35 3354.09 1253.77L3360.72 1258.93C3355.4 1267.09 3347.43 1271.18 3336.81 1271.18ZM3335.46 1214.34C3331.09 1214.34 3327.42 1215.94 3324.45 1219.15C3321.48 1222.31 3319.64 1226.76 3318.94 1232.5H3350.7V1231.68C3350.38 1226.18 3348.9 1221.92 3346.24 1218.91C3343.59 1215.86 3339.99 1214.34 3335.46 1214.34ZM3413.27 1270C3412.65 1268.75 3412.14 1266.53 3411.75 1263.33C3406.71 1268.56 3400.7 1271.18 3393.7 1271.18C3387.45 1271.18 3382.32 1269.42 3378.29 1265.9C3374.31 1262.35 3372.32 1257.86 3372.32 1252.43C3372.32 1245.83 3374.82 1240.71 3379.82 1237.08C3384.86 1233.4 3391.93 1231.57 3401.03 1231.57H3411.58V1226.59C3411.58 1222.8 3410.44 1219.79 3408.18 1217.56C3405.91 1215.3 3402.57 1214.17 3398.16 1214.17C3394.29 1214.17 3391.05 1215.14 3388.43 1217.09C3385.81 1219.05 3384.5 1221.41 3384.5 1224.18H3373.61C3373.61 1221.02 3374.72 1217.97 3376.95 1215.04C3379.21 1212.08 3382.26 1209.73 3386.09 1208.01C3389.95 1206.29 3394.19 1205.43 3398.8 1205.43C3406.11 1205.43 3411.83 1207.27 3415.97 1210.94C3420.11 1214.58 3422.26 1219.59 3422.42 1226V1255.18C3422.42 1261 3423.16 1265.63 3424.64 1269.07V1270H3413.27ZM3395.29 1261.74C3398.68 1261.74 3401.91 1260.86 3404.95 1259.11C3408 1257.35 3410.21 1255.06 3411.58 1252.25V1239.24H3403.08C3389.8 1239.24 3383.16 1243.13 3383.16 1250.9C3383.16 1254.3 3384.29 1256.96 3386.56 1258.87C3388.82 1260.79 3391.73 1261.74 3395.29 1261.74ZM3451.18 1270H3440.34V1180H3451.18V1270ZM3535.27 1253.19C3535.27 1250.26 3534.15 1247.99 3531.93 1246.39C3529.74 1244.75 3525.89 1243.34 3520.38 1242.17C3514.92 1241 3510.56 1239.59 3507.32 1237.95C3504.11 1236.31 3501.73 1234.36 3500.17 1232.09C3498.65 1229.83 3497.88 1227.13 3497.88 1224.01C3497.88 1218.81 3500.07 1214.42 3504.45 1210.83C3508.86 1207.23 3514.49 1205.43 3521.32 1205.43C3528.51 1205.43 3534.33 1207.29 3538.78 1211C3543.27 1214.71 3545.52 1219.46 3545.52 1225.24H3534.62C3534.62 1222.27 3533.35 1219.71 3530.81 1217.56C3528.31 1215.42 3525.15 1214.34 3521.32 1214.34C3517.38 1214.34 3514.29 1215.2 3512.06 1216.92C3509.84 1218.64 3508.72 1220.88 3508.72 1223.66C3508.72 1226.27 3509.76 1228.25 3511.83 1229.58C3513.9 1230.9 3517.63 1232.17 3523.02 1233.38C3528.45 1234.59 3532.84 1236.04 3536.2 1237.72C3539.56 1239.4 3542.04 1241.43 3543.65 1243.81C3545.29 1246.16 3546.11 1249.03 3546.11 1252.43C3546.11 1258.09 3543.84 1262.64 3539.31 1266.08C3534.78 1269.48 3528.9 1271.18 3521.67 1271.18C3516.59 1271.18 3512.1 1270.28 3508.2 1268.48C3504.29 1266.68 3501.22 1264.18 3499 1260.98C3496.81 1257.74 3495.72 1254.24 3495.72 1250.49H3506.56C3506.75 1254.13 3508.2 1257.02 3510.89 1259.17C3513.63 1261.27 3517.22 1262.33 3521.67 1262.33C3525.77 1262.33 3529.06 1261.51 3531.52 1259.87C3534.02 1258.19 3535.27 1255.96 3535.27 1253.19ZM3574.93 1191.25V1206.61H3586.77V1214.99H3574.93V1254.3C3574.93 1256.84 3575.46 1258.75 3576.52 1260.04C3577.57 1261.29 3579.37 1261.92 3581.91 1261.92C3583.16 1261.92 3584.88 1261.68 3587.06 1261.22V1270C3584.21 1270.79 3581.44 1271.18 3578.74 1271.18C3573.9 1271.18 3570.25 1269.71 3567.79 1266.78C3565.33 1263.85 3564.09 1259.69 3564.09 1254.3V1214.99H3552.55V1206.61H3564.09V1191.25H3574.93ZM3638.63 1270C3638 1268.75 3637.49 1266.53 3637.1 1263.33C3632.06 1268.56 3626.05 1271.18 3619.06 1271.18C3612.81 1271.18 3607.67 1269.42 3603.65 1265.9C3599.66 1262.35 3597.67 1257.86 3597.67 1252.43C3597.67 1245.83 3600.17 1240.71 3605.17 1237.08C3610.21 1233.4 3617.28 1231.57 3626.38 1231.57H3636.93V1226.59C3636.93 1222.8 3635.79 1219.79 3633.53 1217.56C3631.26 1215.3 3627.92 1214.17 3623.51 1214.17C3619.64 1214.17 3616.4 1215.14 3613.78 1217.09C3611.17 1219.05 3609.86 1221.41 3609.86 1224.18H3598.96C3598.96 1221.02 3600.07 1217.97 3602.3 1215.04C3604.56 1212.08 3607.61 1209.73 3611.44 1208.01C3615.31 1206.29 3619.54 1205.43 3624.15 1205.43C3631.46 1205.43 3637.18 1207.27 3641.32 1210.94C3645.46 1214.58 3647.61 1219.59 3647.77 1226V1255.18C3647.77 1261 3648.51 1265.63 3649.99 1269.07V1270H3638.63ZM3620.64 1261.74C3624.04 1261.74 3627.26 1260.86 3630.31 1259.11C3633.35 1257.35 3635.56 1255.06 3636.93 1252.25V1239.24H3628.43C3615.15 1239.24 3608.51 1243.13 3608.51 1250.9C3608.51 1254.3 3609.64 1256.96 3611.91 1258.87C3614.17 1260.79 3617.08 1261.74 3620.64 1261.74ZM3679.47 1191.25V1206.61H3691.3V1214.99H3679.47V1254.3C3679.47 1256.84 3679.99 1258.75 3681.05 1260.04C3682.1 1261.29 3683.9 1261.92 3686.44 1261.92C3687.69 1261.92 3689.41 1261.68 3691.59 1261.22V1270C3688.74 1270.79 3685.97 1271.18 3683.27 1271.18C3678.43 1271.18 3674.78 1269.71 3672.32 1266.78C3669.86 1263.85 3668.63 1259.69 3668.63 1254.3V1214.99H3657.08V1206.61H3668.63V1191.25H3679.47ZM3730.33 1271.18C3721.73 1271.18 3714.74 1268.36 3709.35 1262.74C3703.96 1257.08 3701.26 1249.52 3701.26 1240.06V1238.07C3701.26 1231.78 3702.45 1226.18 3704.84 1221.25C3707.26 1216.29 3710.62 1212.43 3714.92 1209.65C3719.25 1206.84 3723.94 1205.43 3728.98 1205.43C3737.22 1205.43 3743.63 1208.15 3748.2 1213.58C3752.77 1219.01 3755.05 1226.78 3755.05 1236.9V1241.41H3712.1C3712.26 1247.66 3714.08 1252.72 3717.55 1256.59C3721.07 1260.42 3725.52 1262.33 3730.91 1262.33C3734.74 1262.33 3737.98 1261.55 3740.64 1259.99C3743.29 1258.42 3745.62 1256.35 3747.61 1253.77L3754.23 1258.93C3748.92 1267.09 3740.95 1271.18 3730.33 1271.18ZM3728.98 1214.34C3724.6 1214.34 3720.93 1215.94 3717.96 1219.15C3714.99 1222.31 3713.16 1226.76 3712.45 1232.5H3744.21V1231.68C3743.9 1226.18 3742.42 1221.92 3739.76 1218.91C3737.1 1215.86 3733.51 1214.34 3728.98 1214.34Z" fill="#7B7B7B"/>
<rect x="2721.17" y="2793.03" width="1518.96" height="327.448" rx="23.2964" fill="white" stroke="#7B7B7B" stroke-width="6.65611"/>
<path d="M3143.66 2979.35H3184.09V2988.55H3132.36V2903.24H3143.66V2979.35ZM3192.36 2956.27C3192.36 2950.05 3193.57 2944.47 3195.99 2939.51C3198.45 2934.55 3201.85 2930.72 3206.18 2928.02C3210.56 2925.33 3215.54 2923.98 3221.13 2923.98C3229.76 2923.98 3236.73 2926.97 3242.04 2932.95C3247.39 2938.92 3250.07 2946.87 3250.07 2956.79V2957.55C3250.07 2963.73 3248.88 2969.27 3246.5 2974.2C3244.15 2979.08 3240.77 2982.89 3236.36 2985.62C3231.98 2988.36 3226.95 2989.72 3221.24 2989.72C3212.65 2989.72 3205.68 2986.73 3200.32 2980.76C3195.01 2974.78 3192.36 2966.87 3192.36 2957.03V2956.27ZM3203.25 2957.55C3203.25 2964.59 3204.88 2970.23 3208.12 2974.49C3211.4 2978.75 3215.77 2980.88 3221.24 2980.88C3226.75 2980.88 3231.13 2978.73 3234.37 2974.43C3237.61 2970.09 3239.23 2964.04 3239.23 2956.27C3239.23 2949.31 3237.57 2943.69 3234.25 2939.39C3230.97 2935.05 3226.59 2932.89 3221.13 2932.89C3215.77 2932.89 3211.46 2935.02 3208.18 2939.27C3204.89 2943.53 3203.25 2949.62 3203.25 2957.55ZM3302.8 2988.55C3302.18 2987.3 3301.67 2985.07 3301.28 2981.87C3296.24 2987.11 3290.23 2989.72 3283.23 2989.72C3276.98 2989.72 3271.85 2987.96 3267.82 2984.45C3263.84 2980.89 3261.85 2976.4 3261.85 2970.97C3261.85 2964.37 3264.35 2959.25 3269.35 2955.62C3274.39 2951.95 3281.46 2950.11 3290.56 2950.11H3301.11V2945.13C3301.11 2941.34 3299.97 2938.34 3297.71 2936.11C3295.44 2933.84 3292.1 2932.71 3287.69 2932.71C3283.82 2932.71 3280.58 2933.69 3277.96 2935.64C3275.34 2937.59 3274.04 2939.96 3274.04 2942.73H3263.14C3263.14 2939.57 3264.25 2936.52 3266.48 2933.59C3268.74 2930.62 3271.79 2928.28 3275.62 2926.56C3279.48 2924.84 3283.72 2923.98 3288.33 2923.98C3295.64 2923.98 3301.36 2925.82 3305.5 2929.49C3309.64 2933.12 3311.79 2938.14 3311.95 2944.55V2973.73C3311.95 2979.55 3312.69 2984.18 3314.17 2987.61V2988.55H3302.8ZM3284.82 2980.29C3288.22 2980.29 3291.44 2979.41 3294.48 2977.65C3297.53 2975.89 3299.74 2973.61 3301.11 2970.8V2957.79H3292.61C3279.33 2957.79 3272.69 2961.68 3272.69 2969.45C3272.69 2972.85 3273.82 2975.5 3276.09 2977.42C3278.35 2979.33 3281.26 2980.29 3284.82 2980.29ZM3326.3 2956.32C3326.3 2946.6 3328.61 2938.79 3333.22 2932.89C3337.82 2926.95 3343.86 2923.98 3351.32 2923.98C3358.74 2923.98 3364.62 2926.52 3368.96 2931.6V2898.55H3379.8V2988.55H3369.84L3369.31 2981.75C3364.97 2987.07 3358.94 2989.72 3351.2 2989.72C3343.86 2989.72 3337.86 2986.71 3333.22 2980.7C3328.61 2974.68 3326.3 2966.83 3326.3 2957.14V2956.32ZM3337.14 2957.55C3337.14 2964.74 3338.63 2970.37 3341.59 2974.43C3344.56 2978.49 3348.66 2980.52 3353.9 2980.52C3360.77 2980.52 3365.79 2977.44 3368.96 2971.27V2942.14C3365.72 2936.17 3360.73 2933.18 3354.02 2933.18C3348.7 2933.18 3344.56 2935.23 3341.59 2939.33C3338.63 2943.43 3337.14 2949.51 3337.14 2957.55ZM3408.45 2988.55H3397.61V2925.15H3408.45V2988.55ZM3396.73 2908.34C3396.73 2906.58 3397.26 2905.09 3398.31 2903.88C3399.41 2902.67 3401.01 2902.07 3403.12 2902.07C3405.23 2902.07 3406.83 2902.67 3407.92 2903.88C3409.02 2905.09 3409.56 2906.58 3409.56 2908.34C3409.56 2910.09 3409.02 2911.56 3407.92 2912.73C3406.83 2913.9 3405.23 2914.49 3403.12 2914.49C3401.01 2914.49 3399.41 2913.9 3398.31 2912.73C3397.26 2911.56 3396.73 2910.09 3396.73 2908.34ZM3436.11 2925.15L3436.46 2933.12C3441.3 2927.03 3447.63 2923.98 3455.44 2923.98C3468.84 2923.98 3475.6 2931.54 3475.72 2946.66V2988.55H3464.88V2946.6C3464.84 2942.03 3463.78 2938.65 3461.71 2936.46C3459.68 2934.27 3456.5 2933.18 3452.16 2933.18C3448.64 2933.18 3445.56 2934.12 3442.9 2935.99C3440.25 2937.87 3438.18 2940.33 3436.69 2943.38V2988.55H3425.85V2925.15H3436.11ZM3489.48 2956.32C3489.48 2946.44 3491.77 2938.59 3496.34 2932.77C3500.91 2926.91 3506.97 2923.98 3514.5 2923.98C3522.24 2923.98 3528.27 2926.71 3532.61 2932.18L3533.14 2925.15H3543.04V2987.03C3543.04 2995.23 3540.6 3001.7 3535.72 3006.42C3530.87 3011.15 3524.35 3013.51 3516.14 3013.51C3511.57 3013.51 3507.1 3012.54 3502.73 3010.58C3498.35 3008.63 3495.01 3005.95 3492.71 3002.55L3498.33 2996.05C3502.98 3001.79 3508.66 3004.66 3515.38 3004.66C3520.66 3004.66 3524.76 3003.18 3527.69 3000.21C3530.66 2997.24 3532.14 2993.06 3532.14 2987.67V2982.22C3527.8 2987.22 3521.89 2989.72 3514.39 2989.72C3506.97 2989.72 3500.95 2986.73 3496.34 2980.76C3491.77 2974.78 3489.48 2966.64 3489.48 2956.32ZM3500.38 2957.55C3500.38 2964.7 3501.85 2970.33 3504.78 2974.43C3507.71 2978.49 3511.81 2980.52 3517.08 2980.52C3523.92 2980.52 3528.94 2977.42 3532.14 2971.21V2942.26C3528.82 2936.21 3523.84 2933.18 3517.2 2933.18C3511.93 2933.18 3507.8 2935.23 3504.84 2939.33C3501.87 2943.43 3500.38 2949.51 3500.38 2957.55ZM3626.13 2971.73C3626.13 2968.8 3625.01 2966.54 3622.79 2964.94C3620.6 2963.3 3616.75 2961.89 3611.24 2960.72C3605.77 2959.55 3601.42 2958.14 3598.18 2956.5C3594.97 2954.86 3592.59 2952.91 3591.03 2950.64C3589.5 2948.38 3588.74 2945.68 3588.74 2942.55C3588.74 2937.36 3590.93 2932.96 3595.3 2929.37C3599.72 2925.78 3605.34 2923.98 3612.18 2923.98C3619.37 2923.98 3625.19 2925.84 3629.64 2929.55C3634.13 2933.26 3636.38 2938 3636.38 2943.79H3625.48C3625.48 2940.82 3624.21 2938.26 3621.67 2936.11C3619.17 2933.96 3616.01 2932.89 3612.18 2932.89C3608.23 2932.89 3605.15 2933.75 3602.92 2935.46C3600.7 2937.18 3599.58 2939.43 3599.58 2942.2C3599.58 2944.82 3600.62 2946.79 3602.69 2948.12C3604.76 2949.45 3608.49 2950.72 3613.88 2951.93C3619.31 2953.14 3623.7 2954.59 3627.06 2956.27C3630.42 2957.95 3632.9 2959.98 3634.5 2962.36C3636.14 2964.7 3636.97 2967.57 3636.97 2970.97C3636.97 2976.64 3634.7 2981.19 3630.17 2984.62C3625.64 2988.02 3619.76 2989.72 3612.53 2989.72C3607.45 2989.72 3602.96 2988.82 3599.05 2987.03C3595.15 2985.23 3592.08 2982.73 3589.86 2979.53C3587.67 2976.29 3586.57 2972.79 3586.57 2969.04H3597.41C3597.61 2972.67 3599.05 2975.56 3601.75 2977.71C3604.48 2979.82 3608.08 2980.88 3612.53 2980.88C3616.63 2980.88 3619.91 2980.05 3622.38 2978.41C3624.88 2976.73 3626.13 2974.51 3626.13 2971.73ZM3665.79 2909.8V2925.15H3677.63V2933.53H3665.79V2972.85C3665.79 2975.39 3666.32 2977.3 3667.38 2978.59C3668.43 2979.84 3670.23 2980.46 3672.77 2980.46C3674.02 2980.46 3675.73 2980.23 3677.92 2979.76V2988.55C3675.07 2989.33 3672.3 2989.72 3669.6 2989.72C3664.76 2989.72 3661.11 2988.26 3658.64 2985.33C3656.18 2982.4 3654.95 2978.24 3654.95 2972.85V2933.53H3643.41V2925.15H3654.95V2909.8H3665.79ZM3729.48 2988.55C3728.86 2987.3 3728.35 2985.07 3727.96 2981.87C3722.92 2987.11 3716.91 2989.72 3709.91 2989.72C3703.66 2989.72 3698.53 2987.96 3694.5 2984.45C3690.52 2980.89 3688.53 2976.4 3688.53 2970.97C3688.53 2964.37 3691.03 2959.25 3696.03 2955.62C3701.07 2951.95 3708.14 2950.11 3717.24 2950.11H3727.79V2945.13C3727.79 2941.34 3726.65 2938.34 3724.39 2936.11C3722.12 2933.84 3718.78 2932.71 3714.37 2932.71C3710.5 2932.71 3707.26 2933.69 3704.64 2935.64C3702.02 2937.59 3700.72 2939.96 3700.72 2942.73H3689.82C3689.82 2939.57 3690.93 2936.52 3693.16 2933.59C3695.42 2930.62 3698.47 2928.28 3702.3 2926.56C3706.16 2924.84 3710.4 2923.98 3715.01 2923.98C3722.32 2923.98 3728.04 2925.82 3732.18 2929.49C3736.32 2933.12 3738.47 2938.14 3738.63 2944.55V2973.73C3738.63 2979.55 3739.37 2984.18 3740.85 2987.61V2988.55H3729.48ZM3711.5 2980.29C3714.89 2980.29 3718.12 2979.41 3721.16 2977.65C3724.21 2975.89 3726.42 2973.61 3727.79 2970.8V2957.79H3719.29C3706.01 2957.79 3699.37 2961.68 3699.37 2969.45C3699.37 2972.85 3700.5 2975.5 3702.77 2977.42C3705.03 2979.33 3707.94 2980.29 3711.5 2980.29ZM3770.32 2909.8V2925.15H3782.16V2933.53H3770.32V2972.85C3770.32 2975.39 3770.85 2977.3 3771.91 2978.59C3772.96 2979.84 3774.76 2980.46 3777.3 2980.46C3778.55 2980.46 3780.27 2980.23 3782.45 2979.76V2988.55C3779.6 2989.33 3776.83 2989.72 3774.13 2989.72C3769.29 2989.72 3765.64 2988.26 3763.18 2985.33C3760.72 2982.4 3759.48 2978.24 3759.48 2972.85V2933.53H3747.94V2925.15H3759.48V2909.8H3770.32ZM3821.18 2989.72C3812.59 2989.72 3805.6 2986.91 3800.21 2981.29C3794.82 2975.62 3792.12 2968.06 3792.12 2958.61V2956.62C3792.12 2950.33 3793.31 2944.72 3795.7 2939.8C3798.12 2934.84 3801.48 2930.97 3805.77 2928.2C3810.11 2925.39 3814.8 2923.98 3819.84 2923.98C3828.08 2923.98 3834.48 2926.7 3839.05 2932.12C3843.63 2937.55 3845.91 2945.33 3845.91 2955.45V2959.96H3802.96C3803.12 2966.21 3804.93 2971.27 3808.41 2975.13C3811.93 2978.96 3816.38 2980.88 3821.77 2980.88C3825.6 2980.88 3828.84 2980.09 3831.5 2978.53C3834.15 2976.97 3836.48 2974.9 3838.47 2972.32L3845.09 2977.48C3839.78 2985.64 3831.81 2989.72 3821.18 2989.72ZM3819.84 2932.89C3815.46 2932.89 3811.79 2934.49 3808.82 2937.69C3805.85 2940.86 3804.02 2945.31 3803.31 2951.05H3835.07V2950.23C3834.76 2944.72 3833.27 2940.46 3830.62 2937.46C3827.96 2934.41 3824.37 2932.89 3819.84 2932.89Z" fill="#7B7B7B"/>
<rect x="2721.17" y="3205.48" width="1518.96" height="327.448" rx="23.2964" fill="white" stroke="#7B7B7B" stroke-width="6.65611"/>
<path d="M3220.79 3361.57H3183.82V3391.81H3226.77V3401.01H3172.57V3315.69H3226.18V3324.95H3183.82V3352.37H3220.79V3361.57ZM3249.27 3337.61L3249.56 3344.64C3254.21 3339.17 3260.48 3336.44 3268.37 3336.44C3277.23 3336.44 3283.27 3339.83 3286.47 3346.63C3288.58 3343.58 3291.32 3341.12 3294.68 3339.25C3298.07 3337.37 3302.08 3336.44 3306.69 3336.44C3320.59 3336.44 3327.66 3343.8 3327.9 3358.52V3401.01H3317.06V3359.17C3317.06 3354.64 3316.02 3351.26 3313.95 3349.03C3311.88 3346.77 3308.41 3345.63 3303.52 3345.63C3299.5 3345.63 3296.16 3346.85 3293.5 3349.27C3290.85 3351.65 3289.3 3354.87 3288.87 3358.94V3401.01H3277.98V3359.46C3277.98 3350.24 3273.46 3345.63 3264.44 3345.63C3257.33 3345.63 3252.47 3348.66 3249.85 3354.72V3401.01H3239.01V3337.61H3249.27ZM3397.86 3370.01C3397.86 3379.66 3395.65 3387.43 3391.24 3393.33C3386.82 3399.23 3380.85 3402.18 3373.31 3402.18C3365.61 3402.18 3359.56 3399.74 3355.14 3394.85V3425.38H3344.3V3337.61H3354.21L3354.73 3344.64C3359.15 3339.17 3365.28 3336.44 3373.13 3336.44C3380.75 3336.44 3386.77 3339.31 3391.18 3345.05C3395.63 3350.79 3397.86 3358.78 3397.86 3369.01V3370.01ZM3387.02 3368.78C3387.02 3361.63 3385.5 3355.99 3382.45 3351.85C3379.4 3347.7 3375.22 3345.63 3369.91 3345.63C3363.35 3345.63 3358.43 3348.54 3355.14 3354.36V3384.66C3358.39 3390.44 3363.35 3393.33 3370.03 3393.33C3375.22 3393.33 3379.34 3391.28 3382.39 3387.18C3385.48 3383.04 3387.02 3376.9 3387.02 3368.78ZM3426.39 3322.26V3337.61H3438.23V3345.99H3426.39V3385.3C3426.39 3387.84 3426.92 3389.76 3427.98 3391.04C3429.03 3392.29 3430.83 3392.92 3433.37 3392.92C3434.62 3392.92 3436.34 3392.69 3438.52 3392.22V3401.01C3435.67 3401.79 3432.9 3402.18 3430.2 3402.18C3425.36 3402.18 3421.71 3400.71 3419.25 3397.78C3416.78 3394.85 3415.55 3390.69 3415.55 3385.3V3345.99H3404.01V3337.61H3415.55V3322.26H3426.39ZM3471.69 3385.13L3486.45 3337.61H3498.05L3472.57 3410.79C3468.62 3421.34 3462.35 3426.61 3453.76 3426.61L3451.71 3426.44L3447.66 3425.67V3416.88L3450.59 3417.12C3454.27 3417.12 3457.12 3416.38 3459.15 3414.89C3461.22 3413.41 3462.92 3410.69 3464.25 3406.75L3466.65 3400.3L3444.03 3337.61H3455.87L3471.69 3385.13ZM3574.46 3384.19C3574.46 3381.26 3573.35 3378.99 3571.12 3377.39C3568.93 3375.75 3565.09 3374.35 3559.58 3373.17C3554.11 3372 3549.75 3370.6 3546.51 3368.95C3543.31 3367.31 3540.93 3365.36 3539.36 3363.1C3537.84 3360.83 3537.08 3358.13 3537.08 3355.01C3537.08 3349.81 3539.27 3345.42 3543.64 3341.83C3548.05 3338.23 3553.68 3336.44 3560.52 3336.44C3567.7 3336.44 3573.52 3338.29 3577.98 3342C3582.47 3345.71 3584.71 3350.46 3584.71 3356.24H3573.82C3573.82 3353.27 3572.55 3350.71 3570.01 3348.56C3567.51 3346.42 3564.34 3345.34 3560.52 3345.34C3556.57 3345.34 3553.48 3346.2 3551.26 3347.92C3549.03 3349.64 3547.92 3351.88 3547.92 3354.66C3547.92 3357.27 3548.95 3359.25 3551.02 3360.58C3553.09 3361.9 3556.82 3363.17 3562.21 3364.38C3567.64 3365.6 3572.04 3367.04 3575.4 3368.72C3578.76 3370.4 3581.24 3372.43 3582.84 3374.81C3584.48 3377.16 3585.3 3380.03 3585.3 3383.43C3585.3 3389.09 3583.03 3393.64 3578.5 3397.08C3573.97 3400.48 3568.09 3402.18 3560.87 3402.18C3555.79 3402.18 3551.3 3401.28 3547.39 3399.48C3543.48 3397.69 3540.42 3395.19 3538.19 3391.98C3536 3388.74 3534.91 3385.24 3534.91 3381.49H3545.75C3545.94 3385.13 3547.39 3388.02 3550.09 3390.17C3552.82 3392.27 3556.41 3393.33 3560.87 3393.33C3564.97 3393.33 3568.25 3392.51 3570.71 3390.87C3573.21 3389.19 3574.46 3386.96 3574.46 3384.19ZM3614.13 3322.26V3337.61H3625.96V3345.99H3614.13V3385.3C3614.13 3387.84 3614.66 3389.76 3615.71 3391.04C3616.77 3392.29 3618.56 3392.92 3621.1 3392.92C3622.35 3392.92 3624.07 3392.69 3626.26 3392.22V3401.01C3623.41 3401.79 3620.63 3402.18 3617.94 3402.18C3613.09 3402.18 3609.44 3400.71 3606.98 3397.78C3604.52 3394.85 3603.29 3390.69 3603.29 3385.3V3345.99H3591.75V3337.61H3603.29V3322.26H3614.13ZM3677.82 3401.01C3677.19 3399.76 3676.69 3397.53 3676.3 3394.33C3671.26 3399.56 3665.24 3402.18 3658.25 3402.18C3652 3402.18 3646.86 3400.42 3642.84 3396.9C3638.86 3393.35 3636.86 3388.86 3636.86 3383.43C3636.86 3376.83 3639.36 3371.71 3644.36 3368.08C3649.4 3364.4 3656.47 3362.57 3665.57 3362.57H3676.12V3357.59C3676.12 3353.8 3674.99 3350.79 3672.72 3348.56C3670.46 3346.3 3667.12 3345.17 3662.7 3345.17C3658.84 3345.17 3655.59 3346.14 3652.98 3348.1C3650.36 3350.05 3649.05 3352.41 3649.05 3355.19H3638.15C3638.15 3352.02 3639.27 3348.97 3641.49 3346.04C3643.76 3343.08 3646.8 3340.73 3650.63 3339.01C3654.5 3337.29 3658.74 3336.44 3663.35 3336.44C3670.65 3336.44 3676.37 3338.27 3680.52 3341.94C3684.66 3345.58 3686.8 3350.6 3686.96 3357V3386.18C3686.96 3392 3687.7 3396.63 3689.19 3400.07V3401.01H3677.82ZM3659.83 3392.74C3663.23 3392.74 3666.45 3391.86 3669.5 3390.11C3672.55 3388.35 3674.75 3386.06 3676.12 3383.25V3370.24H3667.62C3654.34 3370.24 3647.7 3374.13 3647.7 3381.9C3647.7 3385.3 3648.84 3387.96 3651.1 3389.87C3653.37 3391.79 3656.28 3392.74 3659.83 3392.74ZM3718.66 3322.26V3337.61H3730.5V3345.99H3718.66V3385.3C3718.66 3387.84 3719.19 3389.76 3720.24 3391.04C3721.3 3392.29 3723.09 3392.92 3725.63 3392.92C3726.88 3392.92 3728.6 3392.69 3730.79 3392.22V3401.01C3727.94 3401.79 3725.16 3402.18 3722.47 3402.18C3717.62 3402.18 3713.97 3400.71 3711.51 3397.78C3709.05 3394.85 3707.82 3390.69 3707.82 3385.3V3345.99H3696.28V3337.61H3707.82V3322.26H3718.66ZM3769.52 3402.18C3760.93 3402.18 3753.93 3399.36 3748.54 3393.74C3743.15 3388.08 3740.46 3380.52 3740.46 3371.06V3369.07C3740.46 3362.78 3741.65 3357.18 3744.03 3352.26C3746.45 3347.29 3749.81 3343.43 3754.11 3340.65C3758.44 3337.84 3763.13 3336.44 3768.17 3336.44C3776.41 3336.44 3782.82 3339.15 3787.39 3344.58C3791.96 3350.01 3794.25 3357.78 3794.25 3367.9V3372.41H3751.3C3751.45 3378.66 3753.27 3383.72 3756.75 3387.59C3760.26 3391.42 3764.71 3393.33 3770.11 3393.33C3773.93 3393.33 3777.18 3392.55 3779.83 3390.99C3782.49 3389.42 3784.81 3387.35 3786.8 3384.77L3793.43 3389.93C3788.11 3398.1 3780.14 3402.18 3769.52 3402.18ZM3768.17 3345.34C3763.8 3345.34 3760.12 3346.94 3757.16 3350.15C3754.19 3353.31 3752.35 3357.76 3751.65 3363.51H3783.41V3362.69C3783.09 3357.18 3781.61 3352.92 3778.95 3349.91C3776.3 3346.86 3772.7 3345.34 3768.17 3345.34Z" fill="#7B7B7B"/>
<rect x="2717.83" y="1686.38" width="1525.62" height="746.552" rx="106.498" fill="white" stroke="#4D4D4D" stroke-width="13.3122"/>
<path d="M3276.4 2058.08V2091.48H3265.15V2006.17H3296.61C3305.95 2006.17 3313.25 2008.55 3318.53 2013.31C3323.84 2018.08 3326.5 2024.39 3326.5 2032.24C3326.5 2040.52 3323.9 2046.91 3318.7 2051.4C3313.55 2055.85 3306.14 2058.08 3296.5 2058.08H3276.4ZM3276.4 2048.88H3296.61C3302.63 2048.88 3307.24 2047.48 3310.44 2044.66C3313.64 2041.81 3315.25 2037.71 3315.25 2032.36C3315.25 2027.28 3313.64 2023.22 3310.44 2020.17C3307.24 2017.12 3302.84 2015.54 3297.26 2015.42H3276.4V2048.88ZM3377.59 2091.48C3376.96 2090.23 3376.46 2088 3376.07 2084.8C3371.03 2090.03 3365.01 2092.65 3358.02 2092.65C3351.77 2092.65 3346.63 2090.89 3342.61 2087.38C3338.62 2083.82 3336.63 2079.33 3336.63 2073.9C3336.63 2067.3 3339.13 2062.18 3344.13 2058.55C3349.17 2054.88 3356.24 2053.04 3365.34 2053.04H3375.89V2048.06C3375.89 2044.27 3374.76 2041.26 3372.49 2039.04C3370.23 2036.77 3366.89 2035.64 3362.47 2035.64C3358.6 2035.64 3355.36 2036.62 3352.75 2038.57C3350.13 2040.52 3348.82 2042.89 3348.82 2045.66H3337.92C3337.92 2042.49 3339.03 2039.45 3341.26 2036.52C3343.53 2033.55 3346.57 2031.21 3350.4 2029.49C3354.27 2027.77 3358.51 2026.91 3363.12 2026.91C3370.42 2026.91 3376.14 2028.74 3380.28 2032.42C3384.42 2036.05 3386.57 2041.07 3386.73 2047.48V2076.65C3386.73 2082.48 3387.47 2087.1 3388.96 2090.54V2091.48H3377.59ZM3359.6 2083.22C3363 2083.22 3366.22 2082.34 3369.27 2080.58C3372.32 2078.82 3374.52 2076.54 3375.89 2073.73V2060.72H3367.39C3354.11 2060.72 3347.47 2064.6 3347.47 2072.38C3347.47 2075.78 3348.6 2078.43 3350.87 2080.35C3353.14 2082.26 3356.05 2083.22 3359.6 2083.22ZM3423.53 2075.6L3438.29 2028.08H3449.89L3424.41 2101.26C3420.46 2111.81 3414.19 2117.08 3405.6 2117.08L3403.55 2116.91L3399.5 2116.15V2107.36L3402.43 2107.59C3406.1 2107.59 3408.96 2106.85 3410.99 2105.37C3413.06 2103.88 3414.76 2101.17 3416.09 2097.22L3418.49 2090.78L3395.87 2028.08H3407.71L3423.53 2075.6ZM3499.64 2028.08L3499.99 2036.05C3504.84 2029.96 3511.16 2026.91 3518.98 2026.91C3532.37 2026.91 3539.13 2034.47 3539.25 2049.58V2091.48H3528.41V2049.53C3528.37 2044.96 3527.32 2041.58 3525.25 2039.39C3523.21 2037.2 3520.03 2036.11 3515.69 2036.11C3512.18 2036.11 3509.09 2037.05 3506.44 2038.92C3503.78 2040.8 3501.71 2043.26 3500.23 2046.3V2091.48H3489.39V2028.08H3499.64ZM3552.73 2059.19C3552.73 2052.98 3553.94 2047.4 3556.36 2042.44C3558.82 2037.48 3562.22 2033.65 3566.55 2030.95C3570.93 2028.26 3575.91 2026.91 3581.5 2026.91C3590.13 2026.91 3597.1 2029.9 3602.41 2035.87C3607.76 2041.85 3610.44 2049.8 3610.44 2059.72V2060.48C3610.44 2066.65 3609.25 2072.2 3606.87 2077.12C3604.52 2082.01 3601.14 2085.81 3596.73 2088.55C3592.35 2091.28 3587.32 2092.65 3581.61 2092.65C3573.02 2092.65 3566.05 2089.66 3560.69 2083.69C3555.38 2077.71 3552.73 2069.8 3552.73 2059.96V2059.19ZM3563.62 2060.48C3563.62 2067.51 3565.25 2073.16 3568.49 2077.42C3571.77 2081.67 3576.14 2083.8 3581.61 2083.8C3587.12 2083.8 3591.5 2081.65 3594.74 2077.36C3597.98 2073.02 3599.6 2066.97 3599.6 2059.19C3599.6 2052.24 3597.94 2046.62 3594.62 2042.32C3591.34 2037.98 3586.96 2035.81 3581.5 2035.81C3576.14 2035.81 3571.83 2037.94 3568.55 2042.2C3565.26 2046.46 3563.62 2052.55 3563.62 2060.48ZM3680.17 2076.54L3692.35 2028.08H3703.19L3684.74 2091.48H3675.95L3660.54 2043.43L3645.54 2091.48H3636.75L3618.35 2028.08H3629.13L3641.61 2075.54L3656.38 2028.08H3665.11L3680.17 2076.54Z" fill="black"/>
<path d="M2460.97 2059.07L2394.41 2020.64L2394.41 2097.5L2460.97 2059.07ZM323.344 -1989L323.344 1959.23L336.656 1959.23L336.656 -1989L323.344 -1989ZM429.842 2065.73L2401.06 2065.72L2401.06 2052.41L429.842 2052.41L429.842 2065.73ZM323.344 1959.23C323.344 2018.04 371.025 2065.73 429.842 2065.73L429.842 2052.41C378.377 2052.41 336.656 2010.69 336.656 1959.23L323.344 1959.23Z" fill="black"/>
<path d="M7158.3 2065.92L7091.74 2027.49L7091.74 2104.35L7158.3 2065.92ZM4649.24 2072.58L7098.39 2072.58L7098.39 2059.26L4649.24 2059.26L4649.24 2072.58Z" fill="black"/>
<path d="M896.463 2413.99C891.502 2419.11 885.193 2421.59 877.537 2421.44C871.482 2421.28 866.99 2419.11 864.06 2414.93C861.17 2410.75 860.095 2405.05 860.838 2397.82L867.634 2356.87H878.24L871.384 2398C871.189 2399.72 871.15 2401.4 871.267 2403.04C871.463 2405.85 872.302 2408.06 873.787 2409.66C875.271 2411.26 877.341 2412.12 879.998 2412.24C887.576 2412.47 893.435 2409.4 897.576 2403.04L905.545 2356.87H916.15L905.134 2420.26H895.115L896.463 2413.99ZM960.271 2403.1C960.857 2398.72 958.455 2395.63 953.064 2393.84L942.048 2390.62C932.752 2387.41 928.259 2382.1 928.572 2374.68C928.845 2369.09 931.384 2364.52 936.189 2360.97C941.033 2357.37 946.716 2355.62 953.24 2355.69C959.646 2355.77 964.841 2357.65 968.826 2361.32C972.849 2364.95 974.783 2369.7 974.627 2375.56L964.08 2375.5C964.158 2372.33 963.162 2369.76 961.091 2367.76C959.021 2365.77 956.267 2364.74 952.83 2364.66C949.158 2364.58 945.994 2365.48 943.338 2367.35C940.877 2369.11 939.451 2371.42 939.06 2374.27C938.552 2377.94 940.798 2380.62 945.798 2382.29L951.13 2383.76C958.396 2385.63 963.552 2388.08 966.599 2391.08C969.646 2394.09 971.052 2397.82 970.818 2402.28C970.584 2406.22 969.295 2409.66 966.951 2412.59C964.607 2415.52 961.482 2417.76 957.576 2419.33C953.67 2420.85 949.509 2421.55 945.095 2421.44C938.377 2421.36 932.83 2419.4 928.455 2415.58C924.08 2411.71 921.97 2406.75 922.127 2400.69L932.732 2400.75C932.732 2404.31 933.865 2407.16 936.13 2409.31C938.396 2411.46 941.502 2412.53 945.447 2412.53C949.314 2412.61 952.654 2411.81 955.466 2410.13C958.279 2408.41 959.88 2406.06 960.271 2403.1ZM1009.02 2421.44C1001.13 2421.28 994.959 2418.37 990.505 2412.71C986.052 2407.04 984.177 2399.79 984.88 2390.97L985.173 2388.45C985.838 2382.16 987.693 2376.42 990.74 2371.22C993.826 2366.03 997.576 2362.12 1001.99 2359.5C1006.4 2356.85 1011.17 2355.58 1016.29 2355.69C1022.81 2355.85 1027.93 2358.02 1031.64 2362.2C1035.35 2366.38 1037.38 2372.04 1037.73 2379.19C1037.85 2381.73 1037.77 2384.27 1037.5 2386.81L1036.85 2391.67H995.427C994.724 2397.41 995.662 2402.29 998.24 2406.32C1000.86 2410.34 1004.74 2412.43 1009.9 2412.59C1016.15 2412.74 1021.93 2409.93 1027.24 2404.15L1033.34 2409.31C1030.68 2413.13 1027.24 2416.14 1023.03 2418.33C1018.85 2420.48 1014.18 2421.51 1009.02 2421.44ZM1015.76 2364.54C1011.38 2364.42 1007.56 2365.91 1004.28 2368.99C1001.03 2372.08 998.455 2376.67 996.541 2382.76L1027.36 2382.82L1027.6 2381.88C1028.22 2376.96 1027.42 2372.88 1025.19 2369.64C1023.01 2366.36 1019.86 2364.66 1015.76 2364.54ZM1083.26 2366.53L1078.28 2366.01C1071.48 2366.01 1066.13 2369.07 1062.22 2375.21L1054.43 2420.26H1043.83L1054.84 2356.87L1065.1 2356.81L1063.51 2364.19C1068.01 2358.29 1073.3 2355.42 1079.39 2355.58C1080.68 2355.58 1082.36 2355.87 1084.43 2356.46L1083.26 2366.53ZM1139.98 2412.65C1143.77 2412.72 1147.19 2411.63 1150.23 2409.37C1153.28 2407.06 1155.27 2404.05 1156.21 2400.34L1166.23 2400.28C1165.64 2404.27 1164.04 2407.9 1161.42 2411.18C1158.85 2414.46 1155.58 2417.02 1151.64 2418.86C1147.69 2420.69 1143.65 2421.55 1139.51 2421.44C1134.24 2421.36 1129.76 2419.99 1126.09 2417.33C1122.46 2414.64 1119.78 2410.91 1118.06 2406.14C1116.35 2401.34 1115.76 2395.95 1116.31 2389.97L1116.6 2387.04C1117.34 2380.95 1119.12 2375.5 1121.93 2370.69C1124.74 2365.89 1128.42 2362.16 1132.95 2359.5C1137.48 2356.81 1142.48 2355.54 1147.95 2355.69C1154.59 2355.85 1159.9 2358.08 1163.88 2362.37C1167.87 2366.67 1169.86 2372.12 1169.86 2378.72L1159.96 2378.66C1159.88 2374.52 1158.73 2371.18 1156.5 2368.64C1154.28 2366.06 1151.27 2364.7 1147.48 2364.54C1141.97 2364.42 1137.38 2366.47 1133.71 2370.69C1130.08 2374.91 1127.81 2380.81 1126.91 2388.39L1126.74 2389.91C1126.5 2392.41 1126.46 2394.99 1126.62 2397.65C1126.89 2402.22 1128.18 2405.83 1130.49 2408.49C1132.79 2411.14 1135.95 2412.53 1139.98 2412.65ZM1186.21 2420.26H1175.66L1191.25 2330.26H1201.85L1186.21 2420.26ZM1215.04 2420.26H1204.49L1215.51 2356.87H1226.05L1215.04 2420.26ZM1223.77 2333.72C1225.56 2333.64 1227.05 2334.19 1228.22 2335.36C1229.43 2336.49 1230.04 2338 1230.04 2339.87C1230 2341.71 1229.39 2343.21 1228.22 2344.38C1227.09 2345.56 1225.6 2346.18 1223.77 2346.26C1221.93 2346.34 1220.43 2345.81 1219.26 2344.68C1218.08 2343.54 1217.52 2342.06 1217.56 2340.22C1217.6 2338.39 1218.18 2336.87 1219.31 2335.65C1220.45 2334.44 1221.93 2333.8 1223.77 2333.72ZM1259.16 2412.65C1262.95 2412.72 1266.36 2411.63 1269.41 2409.37C1272.46 2407.06 1274.45 2404.05 1275.39 2400.34L1285.41 2400.28C1284.82 2404.27 1283.22 2407.9 1280.6 2411.18C1278.03 2414.46 1274.76 2417.02 1270.82 2418.86C1266.87 2420.69 1262.83 2421.55 1258.69 2421.44C1253.42 2421.36 1248.94 2419.99 1245.27 2417.33C1241.64 2414.64 1238.96 2410.91 1237.24 2406.14C1235.53 2401.34 1234.94 2395.95 1235.49 2389.97L1235.78 2387.04C1236.52 2380.95 1238.3 2375.5 1241.11 2370.69C1243.92 2365.89 1247.6 2362.16 1252.13 2359.5C1256.66 2356.81 1261.66 2355.54 1267.13 2355.69C1273.77 2355.85 1279.08 2358.08 1283.06 2362.37C1287.05 2366.67 1289.04 2372.12 1289.04 2378.72L1279.14 2378.66C1279.06 2374.52 1277.91 2371.18 1275.68 2368.64C1273.45 2366.06 1270.45 2364.7 1266.66 2364.54C1261.15 2364.42 1256.56 2366.47 1252.89 2370.69C1249.26 2374.91 1246.99 2380.81 1246.09 2388.39L1245.92 2389.91C1245.68 2392.41 1245.64 2394.99 1245.8 2397.65C1246.07 2402.22 1247.36 2405.83 1249.67 2408.49C1251.97 2411.14 1255.13 2412.53 1259.16 2412.65ZM1316.64 2391.03L1308.32 2398.47L1304.57 2420.26H1293.96L1309.61 2330.26H1320.21L1310.84 2384.05L1317.34 2377.49L1339.84 2356.87H1353.61L1324.49 2383.88L1344.53 2420.26H1332.93L1316.64 2391.03ZM1392.81 2403.1C1393.4 2398.72 1390.99 2395.63 1385.6 2393.84L1374.59 2390.62C1365.29 2387.41 1360.8 2382.1 1361.11 2374.68C1361.38 2369.09 1363.92 2364.52 1368.73 2360.97C1373.57 2357.37 1379.26 2355.62 1385.78 2355.69C1392.19 2355.77 1397.38 2357.65 1401.36 2361.32C1405.39 2364.95 1407.32 2369.7 1407.17 2375.56L1396.62 2375.5C1396.7 2372.33 1395.7 2369.76 1393.63 2367.76C1391.56 2365.77 1388.81 2364.74 1385.37 2364.66C1381.7 2364.58 1378.53 2365.48 1375.88 2367.35C1373.42 2369.11 1371.99 2371.42 1371.6 2374.27C1371.09 2377.94 1373.34 2380.62 1378.34 2382.29L1383.67 2383.76C1390.94 2385.63 1396.09 2388.08 1399.14 2391.08C1402.19 2394.09 1403.59 2397.82 1403.36 2402.28C1403.12 2406.22 1401.83 2409.66 1399.49 2412.59C1397.15 2415.52 1394.02 2417.76 1390.11 2419.33C1386.21 2420.85 1382.05 2421.55 1377.63 2421.44C1370.92 2421.36 1365.37 2419.4 1360.99 2415.58C1356.62 2411.71 1354.51 2406.75 1354.67 2400.69L1365.27 2400.75C1365.27 2404.31 1366.4 2407.16 1368.67 2409.31C1370.94 2411.46 1374.04 2412.53 1377.99 2412.53C1381.85 2412.61 1385.19 2411.81 1388.01 2410.13C1390.82 2408.41 1392.42 2406.06 1392.81 2403.1ZM1466.17 2329.15L1472.03 2333.49C1467.65 2338.96 1464.94 2344.31 1463.88 2349.54L1462.48 2357.39H1451.93L1452.99 2350.83C1454.39 2342.16 1458.79 2334.93 1466.17 2329.15ZM1485.92 2386.87L1480.11 2420.26H1469.1L1483.92 2334.95L1512.4 2335.01C1521.19 2335.01 1527.97 2337.35 1532.73 2342.04C1537.5 2346.69 1539.55 2352.88 1538.88 2360.62C1538.18 2368.78 1534.92 2375.21 1529.1 2379.89C1523.32 2384.58 1515.68 2386.92 1506.19 2386.92L1485.92 2386.87ZM1487.5 2377.67L1506.48 2377.72C1512.46 2377.72 1517.36 2376.22 1521.19 2373.21C1525.02 2370.21 1527.26 2366.03 1527.93 2360.67C1528.55 2355.87 1527.56 2351.98 1524.94 2349.01C1522.32 2346.01 1518.51 2344.42 1513.51 2344.27L1493.3 2344.21L1487.5 2377.67ZM1579.61 2420.26C1579.33 2419.13 1579.2 2418.02 1579.2 2416.92L1579.37 2413.58C1573.55 2418.97 1567.38 2421.59 1560.86 2421.44C1555.27 2421.36 1550.72 2419.6 1547.2 2416.16C1543.73 2412.69 1542.15 2408.35 1542.46 2403.15C1542.85 2396.44 1545.78 2391.2 1551.25 2387.45C1556.76 2383.66 1563.98 2381.77 1572.93 2381.77L1584 2381.83L1584.7 2376.79C1585.1 2373 1584.35 2370.01 1582.48 2367.82C1580.64 2365.6 1577.87 2364.44 1574.16 2364.37C1570.53 2364.29 1567.3 2365.19 1564.49 2367.06C1561.72 2368.9 1560.02 2371.34 1559.39 2374.38L1548.73 2374.44C1549.08 2370.73 1550.53 2367.45 1553.06 2364.6C1555.6 2361.71 1558.86 2359.48 1562.85 2357.92C1566.83 2356.32 1570.95 2355.56 1575.21 2355.63C1581.81 2355.79 1586.95 2357.8 1590.62 2361.67C1594.29 2365.5 1595.84 2370.6 1595.25 2376.96L1590.1 2408.37L1589.8 2412.88C1589.72 2415.03 1589.96 2417.16 1590.51 2419.27L1590.39 2420.26H1579.61ZM1562.97 2412.06C1566.36 2412.14 1569.57 2411.34 1572.58 2409.66C1575.62 2407.94 1578.24 2405.58 1580.43 2402.57L1582.71 2389.5L1574.69 2389.44C1568.01 2389.44 1562.89 2390.5 1559.33 2392.61C1555.78 2394.72 1553.77 2397.71 1553.3 2401.57C1552.95 2404.54 1553.63 2407.02 1555.35 2409.01C1557.11 2410.97 1559.65 2411.98 1562.97 2412.06ZM1626.6 2404.27L1649.16 2356.87H1660.88L1623.26 2430.81C1618.03 2441.08 1611.31 2446.16 1603.1 2446.04C1601.66 2446.01 1599.53 2445.65 1596.72 2444.99L1597.65 2436.2L1600.41 2436.49C1603.77 2436.65 1606.66 2435.89 1609.08 2434.21C1611.54 2432.57 1613.71 2429.89 1615.58 2426.18L1619.39 2418.92L1608.44 2356.87H1619.51L1626.6 2404.27ZM1709.98 2356.81L1708.45 2364.83C1714.16 2358.58 1720.64 2355.54 1727.91 2355.69C1733.88 2355.85 1738.3 2357.92 1741.15 2361.9C1744 2365.89 1745.06 2371.49 1744.31 2378.72L1737.4 2420.26H1726.79L1733.77 2378.54C1734 2376.63 1734.02 2374.85 1733.83 2373.21C1733.16 2367.74 1729.94 2364.95 1724.16 2364.83C1717.79 2364.72 1712.2 2368.12 1707.4 2375.03L1699.55 2420.26H1688.94L1699.96 2356.87L1709.98 2356.81ZM1788.96 2355.69C1794.28 2355.77 1798.83 2357.22 1802.61 2360.03C1806.4 2362.84 1809.2 2366.73 1810.99 2371.69C1812.83 2376.61 1813.45 2382 1812.87 2387.86L1812.75 2389.15C1812.01 2395.32 1810.17 2400.91 1807.24 2405.91C1804.31 2410.87 1800.53 2414.74 1795.88 2417.51C1791.23 2420.28 1786.13 2421.59 1780.58 2421.44C1775.31 2421.36 1770.76 2419.91 1766.93 2417.1C1763.14 2414.29 1760.37 2410.46 1758.61 2405.62C1756.85 2400.77 1756.23 2395.44 1756.74 2389.62C1757.32 2383.06 1759.1 2377.16 1762.07 2371.92C1765.04 2366.69 1768.85 2362.65 1773.49 2359.79C1778.18 2356.9 1783.34 2355.54 1788.96 2355.69ZM1767.4 2389.68C1767.13 2392.14 1767.13 2394.7 1767.4 2397.35C1767.79 2401.96 1769.16 2405.63 1771.5 2408.37C1773.88 2411.1 1777.05 2412.53 1780.99 2412.65C1784.51 2412.76 1787.75 2411.9 1790.72 2410.07C1793.69 2408.19 1796.19 2405.38 1798.22 2401.63C1800.25 2397.88 1801.56 2393.72 1802.15 2389.15C1802.46 2385.56 1802.52 2382.53 1802.32 2380.07C1801.85 2375.34 1800.43 2371.61 1798.04 2368.88C1795.66 2366.14 1792.5 2364.7 1788.55 2364.54C1783.08 2364.42 1778.44 2366.57 1774.61 2370.99C1770.78 2375.4 1768.42 2381.18 1767.52 2388.33L1767.4 2389.68ZM1877.67 2405.26L1897.89 2356.87H1908.85L1879.96 2420.26H1871.35L1864.78 2372.33L1841.93 2420.26H1833.32L1826.46 2356.87H1836.6L1840.47 2404.09L1862.97 2356.87H1871.52L1877.67 2405.26ZM1920.97 2358.97L1915.11 2354.64C1919.72 2348.9 1922.5 2343.33 1923.44 2337.94L1924.78 2330.26H1935.21L1934.1 2337.35C1932.69 2346.14 1928.32 2353.35 1920.97 2358.97ZM1064.39 2529.86C1063.61 2536.34 1061.83 2542.18 1059.06 2547.38C1056.29 2552.57 1052.93 2556.42 1048.98 2558.92C1045.04 2561.42 1040.66 2562.61 1035.86 2562.49C1028.2 2562.34 1022.52 2559.47 1018.81 2553.88L1016.64 2561.26H1006.85L1022.5 2471.26H1033.1L1026.72 2504.9C1031.79 2499.27 1037.97 2496.54 1045.23 2496.69C1051.33 2496.85 1056.07 2499.1 1059.47 2503.43C1062.87 2507.77 1064.67 2513.74 1064.86 2521.36C1064.9 2523.86 1064.78 2526.28 1064.51 2528.63L1064.39 2529.86ZM1054.31 2523.71C1054.43 2518 1053.47 2513.65 1051.44 2510.64C1049.41 2507.59 1046.31 2505.99 1042.13 2505.83C1035.53 2505.68 1029.94 2509 1025.37 2515.79L1020.62 2543.39C1022.97 2549.84 1027.36 2553.14 1033.81 2553.29C1037.95 2553.45 1041.56 2552.22 1044.65 2549.6C1047.77 2546.99 1050.13 2543.33 1051.74 2538.65C1053.34 2533.92 1054.2 2528.94 1054.31 2523.71ZM1113.08 2554.99C1108.12 2560.11 1101.81 2562.59 1094.16 2562.44C1088.1 2562.28 1083.61 2560.11 1080.68 2555.93C1077.79 2551.75 1076.72 2546.05 1077.46 2538.82L1084.26 2497.87H1094.86L1088.01 2539C1087.81 2540.72 1087.77 2542.4 1087.89 2544.04C1088.08 2546.85 1088.92 2549.06 1090.41 2550.66C1091.89 2552.26 1093.96 2553.12 1096.62 2553.24C1104.2 2553.47 1110.06 2550.4 1114.2 2544.04L1122.17 2497.87H1132.77L1121.76 2561.26H1111.74L1113.08 2554.99ZM1165.64 2482.51L1162.95 2497.87H1174.49L1173.03 2506.24H1161.54L1154.92 2545.68C1154.8 2546.69 1154.78 2547.63 1154.86 2548.49C1155.13 2551.54 1156.79 2553.06 1159.84 2553.06C1161.13 2553.06 1162.85 2552.87 1165 2552.47L1164.18 2561.32C1161.64 2562.03 1159.06 2562.38 1156.44 2562.38C1152.22 2562.3 1149.06 2560.76 1146.95 2557.75C1144.84 2554.7 1144.02 2550.62 1144.49 2545.5L1150.94 2506.24H1139.74L1141.21 2497.87H1152.4L1155.1 2482.51H1165.64ZM1204.31 2482.51L1201.62 2497.87H1213.16L1211.7 2506.24H1200.21L1193.59 2545.68C1193.47 2546.69 1193.45 2547.63 1193.53 2548.49C1193.81 2551.54 1195.47 2553.06 1198.51 2553.06C1199.8 2553.06 1201.52 2552.87 1203.67 2552.47L1202.85 2561.32C1200.31 2562.03 1197.73 2562.38 1195.11 2562.38C1190.9 2562.3 1187.73 2560.76 1185.62 2557.75C1183.51 2554.7 1182.69 2550.62 1183.16 2545.5L1189.61 2506.24H1178.42L1179.88 2497.87H1191.07L1193.77 2482.51H1204.31ZM1249.02 2496.69C1254.33 2496.77 1258.88 2498.22 1262.67 2501.03C1266.46 2503.84 1269.26 2507.73 1271.05 2512.69C1272.89 2517.61 1273.51 2523 1272.93 2528.86L1272.81 2530.15C1272.07 2536.32 1270.23 2541.91 1267.3 2546.91C1264.37 2551.87 1260.58 2555.74 1255.94 2558.51C1251.29 2561.28 1246.19 2562.59 1240.64 2562.44C1235.37 2562.36 1230.82 2560.91 1226.99 2558.1C1223.2 2555.29 1220.43 2551.46 1218.67 2546.62C1216.91 2541.77 1216.29 2536.44 1216.79 2530.62C1217.38 2524.06 1219.16 2518.16 1222.13 2512.92C1225.1 2507.69 1228.9 2503.65 1233.55 2500.79C1238.24 2497.9 1243.4 2496.54 1249.02 2496.69ZM1227.46 2530.68C1227.19 2533.14 1227.19 2535.7 1227.46 2538.35C1227.85 2542.96 1229.22 2546.63 1231.56 2549.37C1233.94 2552.1 1237.11 2553.53 1241.05 2553.65C1244.57 2553.76 1247.81 2552.9 1250.78 2551.07C1253.75 2549.19 1256.25 2546.38 1258.28 2542.63C1260.31 2538.88 1261.62 2534.72 1262.2 2530.15C1262.52 2526.56 1262.58 2523.53 1262.38 2521.07C1261.91 2516.34 1260.49 2512.61 1258.1 2509.88C1255.72 2507.14 1252.56 2505.7 1248.61 2505.54C1243.14 2505.42 1238.49 2507.57 1234.67 2511.99C1230.84 2516.4 1228.47 2522.18 1227.58 2529.33L1227.46 2530.68ZM1301.87 2497.81L1300.35 2505.83C1306.05 2499.58 1312.54 2496.54 1319.8 2496.69C1325.78 2496.85 1330.19 2498.92 1333.04 2502.9C1335.9 2506.89 1336.95 2512.49 1336.21 2519.72L1329.29 2561.26H1318.69L1325.66 2519.54C1325.9 2517.63 1325.92 2515.85 1325.72 2514.21C1325.06 2508.74 1321.83 2505.95 1316.05 2505.83C1309.69 2505.72 1304.1 2509.12 1299.29 2516.03L1291.44 2561.26H1280.84L1291.85 2497.87L1301.87 2497.81ZM1410.27 2496.69C1415.58 2496.77 1420.13 2498.22 1423.92 2501.03C1427.71 2503.84 1430.51 2507.73 1432.3 2512.69C1434.14 2517.61 1434.76 2523 1434.18 2528.86L1434.06 2530.15C1433.32 2536.32 1431.48 2541.91 1428.55 2546.91C1425.62 2551.87 1421.83 2555.74 1417.19 2558.51C1412.54 2561.28 1407.44 2562.59 1401.89 2562.44C1396.62 2562.36 1392.07 2560.91 1388.24 2558.1C1384.45 2555.29 1381.68 2551.46 1379.92 2546.62C1378.16 2541.77 1377.54 2536.44 1378.04 2530.62C1378.63 2524.06 1380.41 2518.16 1383.38 2512.92C1386.35 2507.69 1390.15 2503.65 1394.8 2500.79C1399.49 2497.9 1404.65 2496.54 1410.27 2496.69ZM1388.71 2530.68C1388.44 2533.14 1388.44 2535.7 1388.71 2538.35C1389.1 2542.96 1390.47 2546.63 1392.81 2549.37C1395.19 2552.1 1398.36 2553.53 1402.3 2553.65C1405.82 2553.76 1409.06 2552.9 1412.03 2551.07C1415 2549.19 1417.5 2546.38 1419.53 2542.63C1421.56 2538.88 1422.87 2534.72 1423.45 2530.15C1423.77 2526.56 1423.83 2523.53 1423.63 2521.07C1423.16 2516.34 1421.74 2512.61 1419.35 2509.88C1416.97 2507.14 1413.81 2505.7 1409.86 2505.54C1404.39 2505.42 1399.74 2507.57 1395.92 2511.99C1392.09 2516.4 1389.72 2522.18 1388.83 2529.33L1388.71 2530.68ZM1463.12 2497.81L1461.6 2505.83C1467.3 2499.58 1473.79 2496.54 1481.05 2496.69C1487.03 2496.85 1491.44 2498.92 1494.29 2502.9C1497.15 2506.89 1498.2 2512.49 1497.46 2519.72L1490.54 2561.26H1479.94L1486.91 2519.54C1487.15 2517.63 1487.17 2515.85 1486.97 2514.21C1486.31 2508.74 1483.08 2505.95 1477.3 2505.83C1470.94 2505.72 1465.35 2509.12 1460.54 2516.03L1452.69 2561.26H1442.09L1453.1 2497.87L1463.12 2497.81ZM1575.1 2561.26C1574.82 2560.13 1574.69 2559.02 1574.69 2557.92L1574.86 2554.58C1569.04 2559.97 1562.87 2562.59 1556.35 2562.44C1550.76 2562.36 1546.21 2560.6 1542.69 2557.16C1539.22 2553.69 1537.63 2549.35 1537.95 2544.15C1538.34 2537.44 1541.27 2532.2 1546.74 2528.45C1552.24 2524.66 1559.47 2522.77 1568.42 2522.77L1579.49 2522.83L1580.19 2517.79C1580.58 2514 1579.84 2511.01 1577.97 2508.82C1576.13 2506.6 1573.36 2505.44 1569.65 2505.37C1566.01 2505.29 1562.79 2506.19 1559.98 2508.06C1557.2 2509.9 1555.51 2512.34 1554.88 2515.38L1544.22 2515.44C1544.57 2511.73 1546.01 2508.45 1548.55 2505.6C1551.09 2502.71 1554.35 2500.48 1558.34 2498.92C1562.32 2497.32 1566.44 2496.56 1570.7 2496.63C1577.3 2496.79 1582.44 2498.8 1586.11 2502.67C1589.78 2506.5 1591.33 2511.6 1590.74 2517.96L1585.58 2549.37L1585.29 2553.88C1585.21 2556.03 1585.45 2558.16 1585.99 2560.27L1585.88 2561.26H1575.1ZM1558.45 2553.06C1561.85 2553.14 1565.06 2552.34 1568.06 2550.66C1571.11 2548.94 1573.73 2546.58 1575.92 2543.57L1578.2 2530.5L1570.17 2530.44C1563.49 2530.44 1558.38 2531.5 1554.82 2533.61C1551.27 2535.72 1549.26 2538.71 1548.79 2542.57C1548.44 2545.54 1549.12 2548.02 1550.84 2550.01C1552.6 2551.97 1555.13 2552.98 1558.45 2553.06ZM1687.24 2529.86C1686.46 2536.34 1684.69 2542.18 1681.91 2547.38C1679.14 2552.57 1675.78 2556.42 1671.83 2558.92C1667.89 2561.42 1663.51 2562.61 1658.71 2562.49C1651.05 2562.34 1645.37 2559.47 1641.66 2553.88L1639.49 2561.26H1629.7L1645.35 2471.26H1655.95L1649.57 2504.9C1654.65 2499.27 1660.82 2496.54 1668.08 2496.69C1674.18 2496.85 1678.92 2499.1 1682.32 2503.43C1685.72 2507.77 1687.52 2513.74 1687.71 2521.36C1687.75 2523.86 1687.63 2526.28 1687.36 2528.63L1687.24 2529.86ZM1677.17 2523.71C1677.28 2518 1676.33 2513.65 1674.29 2510.64C1672.26 2507.59 1669.16 2505.99 1664.98 2505.83C1658.38 2505.68 1652.79 2509 1648.22 2515.79L1643.47 2543.39C1645.82 2549.84 1650.21 2553.14 1656.66 2553.29C1660.8 2553.45 1664.41 2552.22 1667.5 2549.6C1670.62 2546.99 1672.99 2543.33 1674.59 2538.65C1676.19 2533.92 1677.05 2528.94 1677.17 2523.71ZM1707.17 2561.26H1696.62L1707.63 2497.87H1718.18L1707.17 2561.26ZM1715.9 2474.72C1717.69 2474.64 1719.18 2475.19 1720.35 2476.36C1721.56 2477.49 1722.17 2479 1722.17 2480.87C1722.13 2482.71 1721.52 2484.21 1720.35 2485.38C1719.22 2486.56 1717.73 2487.18 1715.9 2487.26C1714.06 2487.34 1712.56 2486.81 1711.38 2485.68C1710.21 2484.54 1709.65 2483.06 1709.69 2481.22C1709.72 2479.39 1710.31 2477.87 1711.44 2476.65C1712.58 2475.44 1714.06 2474.8 1715.9 2474.72ZM1735.99 2561.26H1725.45L1741.03 2471.26H1751.64L1735.99 2561.26ZM1764.82 2561.26H1754.28L1769.86 2471.26H1780.47L1764.82 2561.26Z" fill="black"/>
</g>
<defs>
<clipPath id="clip0">
<rect width="4836" height="3357" fill="white"/>
</clipPath>
</defs>
</svg>
