<svg width="288" height="512" viewBox="0 0 288 512" fill="none" xmlns="http://www.w3.org/2000/svg">
<g filter="url(#filter0_d)">
<g filter="url(#filter1_i)">
<path fill-rule="evenodd" clip-rule="evenodd" d="M90.5062 89.4521C70.9255 89.4521 61.9458 98.7394 61.9458 118.024V394.172C61.9458 413.456 70.9255 422.743 90.5062 422.743H197.123C216.065 422.743 225.683 412.801 225.683 394.172V118.024C225.683 98.7394 216.704 89.4521 197.123 89.4521H90.5062Z" fill="#7E7E7E"/>
</g>
<path d="M90.5062 89.065C80.6614 89.065 73.4018 91.3994 68.6083 96.2337C63.8153 101.067 61.5586 108.329 61.5586 118.024V394.172C61.5586 403.867 63.8153 411.128 68.6083 415.962C73.4018 420.796 80.6614 423.13 90.5062 423.13H197.123C206.659 423.13 213.913 420.627 218.782 415.716C223.649 410.805 226.071 403.549 226.071 394.172V118.024C226.071 108.329 223.814 101.067 219.021 96.2337C214.227 91.3994 206.968 89.065 197.123 89.065H90.5062Z" stroke="#5F5F5F" stroke-width="0.774394"/>
<path fill-rule="evenodd" clip-rule="evenodd" d="M90.634 91.2607C72.0986 91.2607 63.7532 99.6703 63.7532 118.131V394.065C63.7532 412.525 72.0986 420.935 90.634 420.935H197.253C215.146 420.935 224.133 411.875 224.133 394.065V118.131C224.133 99.6703 215.788 91.2607 197.253 91.2607H90.634Z" fill="url(#paint0_linear)"/>
<g filter="url(#filter2_dd)">
<path fill-rule="evenodd" clip-rule="evenodd" d="M90.5459 92.8105H197.342C214.952 92.8105 222.584 100.436 222.584 117.981V393.697C222.584 410.595 214.306 418.867 197.342 418.867H90.5459C72.9355 418.867 65.3032 411.242 65.3032 393.697V117.981C65.3032 100.436 72.9355 92.8105 90.5459 92.8105Z" fill="url(#paint1_linear)"/>
</g>
<path d="M90.5413 95.1357C74.3654 95.1357 67.8857 101.604 67.8857 117.743V393.677C67.8857 409.815 74.3654 416.284 90.5413 416.284H197.346C212.875 416.284 220.002 409.168 220.002 393.677V117.743C220.002 101.604 213.522 95.1357 197.346 95.1357H90.5413Z" fill="black"/>
<g filter="url(#filter3_i)">
<path fill-rule="evenodd" clip-rule="evenodd" d="M222.326 117.997C222.326 105.908 218.709 98.5292 210.709 95.1104C210.645 95.6125 211.243 96.2452 212.153 97.2084C214.647 99.8476 219.485 104.968 219.485 116.682V394.946C219.485 406.565 214.962 411.49 212.487 414.186C211.733 415.007 211.169 415.621 210.981 416.155C218.586 412.489 222.326 405.025 222.326 393.656V117.997ZM65.561 393.592C65.561 405.693 69.178 413.079 77.1782 416.502C77.2417 415.999 76.6439 415.365 75.7339 414.401C73.2403 411.76 68.4025 406.634 68.4025 394.908V116.366C68.4025 104.736 72.9247 99.8056 75.3998 97.1071C76.1538 96.2851 76.7178 95.6702 76.9062 95.1361C69.3015 98.8058 65.561 106.277 65.561 117.658V393.592Z" fill="white" fill-opacity="0.78"/>
</g>
<rect opacity="0.45" x="61.1694" y="388.897" width="2.58261" height="2.32618" fill="black"/>
<rect opacity="0.45" x="61.1694" y="120.715" width="2.58261" height="2.32618" fill="black"/>
<rect opacity="0.45" x="223.874" y="388.897" width="2.58261" height="2.32618" fill="black"/>
<rect opacity="0.45" x="223.874" y="120.715" width="2.58261" height="2.32618" fill="black"/>
<path opacity="0.447803" fill-rule="evenodd" clip-rule="evenodd" d="M93.7104 420.676H96.0348V423.259H93.7104V420.676Z" fill="black"/>
<path opacity="0.447803" fill-rule="evenodd" clip-rule="evenodd" d="M191.588 88.6895H193.912V91.2731H191.588V88.6895Z" fill="black"/>
<g filter="url(#filter4_iii)">
<path fill-rule="evenodd" clip-rule="evenodd" d="M60.7844 175.648C60.5179 175.718 60.1984 175.895 60.0278 176.147C59.9926 176.198 59.9648 176.362 59.9648 176.41C59.9648 178.79 59.9648 186.038 59.9648 198.156C59.9648 198.206 60.004 198.462 60.0279 198.524C60.166 198.882 60.4059 198.968 60.7844 199.175H61.2526C61.2526 198.523 61.2605 176.285 61.2526 175.648H60.7844Z" fill="#8B8B8B"/>
</g>
<g filter="url(#filter5_iii)">
<path fill-rule="evenodd" clip-rule="evenodd" d="M60.7844 206.433C60.5179 206.502 60.1984 206.679 60.0278 206.931C59.9926 206.983 59.9648 207.147 59.9648 207.194C59.9648 209.574 59.9648 216.823 59.9648 228.94C59.9648 228.991 60.004 229.246 60.0279 229.308C60.166 229.666 60.4059 229.752 60.7844 229.959H61.2526C61.2526 229.308 61.2605 207.069 61.2526 206.433H60.7844Z" fill="#8B8B8B"/>
</g>
<g filter="url(#filter6_iii)">
<path fill-rule="evenodd" clip-rule="evenodd" d="M60.7844 152.122C60.3318 152.122 59.9648 152.522 59.9648 153.016V163.993C59.9648 164.486 60.3318 164.886 60.7844 164.886H61.2526C61.2526 164.215 61.2605 152.778 61.2526 152.122H60.7844Z" fill="#8B8B8B"/>
</g>
<g filter="url(#filter7_iii)">
<path fill-rule="evenodd" clip-rule="evenodd" d="M227.18 188.287C227.633 188.287 228 189.483 228 190.959V223.783C228 225.259 227.633 226.455 227.18 226.455H226.712C226.712 224.447 226.704 190.25 226.712 188.287H227.18Z" fill="#8B8B8B"/>
</g>
<path fill-rule="evenodd" clip-rule="evenodd" d="M161.318 104.434C162.602 104.434 163.643 103.393 163.643 102.108C163.643 100.824 162.602 99.7832 161.318 99.7832C160.035 99.7832 158.994 100.824 158.994 102.108C158.994 103.393 160.035 104.434 161.318 104.434Z" fill="url(#paint2_linear)"/>
<g filter="url(#filter8_i)">
<path fill-rule="evenodd" clip-rule="evenodd" d="M161.302 103.069C161.963 103.069 162.498 102.558 162.498 101.927C162.498 101.296 161.963 100.784 161.302 100.784C160.641 100.784 160.105 101.296 160.105 101.927C160.105 102.558 160.641 103.069 161.302 103.069Z" fill="url(#paint3_radial)"/>
</g>
<path d="M162.376 101.927C162.376 102.485 161.9 102.947 161.302 102.947C160.703 102.947 160.228 102.485 160.228 101.927C160.228 101.369 160.703 100.907 161.302 100.907C161.9 100.907 162.376 101.369 162.376 101.927Z" stroke="black" stroke-width="0.245178"/>
<g filter="url(#filter9_diiii)">
<path fill-rule="evenodd" clip-rule="evenodd" d="M161.3 102.96C161.841 102.96 162.279 102.546 162.279 102.035C162.279 101.524 161.841 101.11 161.3 101.11C160.76 101.11 160.322 101.524 160.322 102.035C160.322 102.546 160.76 102.96 161.3 102.96Z" fill="url(#paint4_radial)"/>
</g>
<path opacity="0.772913" fill-rule="evenodd" clip-rule="evenodd" d="M161.3 102.198C161.54 102.198 161.735 102.003 161.735 101.763C161.735 101.522 161.54 101.327 161.3 101.327C161.06 101.327 160.865 101.522 160.865 101.763C160.865 102.003 161.06 102.198 161.3 102.198Z" fill="url(#paint5_radial)"/>
<path opacity="0.283465" fill-rule="evenodd" clip-rule="evenodd" d="M161.842 103.178C162.083 103.178 162.277 102.984 162.277 102.743C162.277 102.503 162.083 102.308 161.842 102.308C161.602 102.308 161.407 102.503 161.407 102.743C161.407 102.984 161.602 103.178 161.842 103.178Z" fill="url(#paint6_radial)"/>
<g filter="url(#filter10_di)">
<path fill-rule="evenodd" clip-rule="evenodd" d="M161.3 101.271C161.539 101.271 161.764 101.377 161.732 101.299C161.7 101.221 161.539 101.11 161.3 101.11C161.062 101.11 160.907 101.221 160.869 101.299C160.831 101.377 161.062 101.271 161.3 101.271Z" fill="#68B9A3" fill-opacity="0.16999"/>
</g>
<g opacity="0.755422" filter="url(#filter11_di)">
<path fill-rule="evenodd" clip-rule="evenodd" d="M161.298 102.533C161.478 102.533 161.624 102.494 161.624 102.583C161.624 102.671 161.478 102.742 161.298 102.742C161.118 102.742 160.972 102.671 160.972 102.583C160.972 102.494 161.118 102.533 161.298 102.533Z" fill="#52735A" fill-opacity="0.20419"/>
</g>
<g filter="url(#filter12_d)">
<path fill-rule="evenodd" clip-rule="evenodd" d="M161.3 102.308C161.54 102.308 161.735 102.137 161.735 101.927C161.735 101.716 161.54 101.546 161.3 101.546C161.06 101.546 160.865 101.716 160.865 101.927C160.865 102.137 161.06 102.308 161.3 102.308Z" fill="white" fill-opacity="0.570171" style="mix-blend-mode:overlay"/>
</g>
<g filter="url(#filter13_d)">
<path fill-rule="evenodd" clip-rule="evenodd" d="M161.352 102.308C161.563 102.308 161.733 102.137 161.733 101.927C161.733 101.716 161.563 101.546 161.352 101.546C161.142 101.546 160.972 101.716 160.972 101.927C160.972 102.137 161.142 102.308 161.352 102.308Z" fill="black" fill-opacity="0.570171" style="mix-blend-mode:overlay"/>
</g>
<g filter="url(#filter14_ii)">
<path fill-rule="evenodd" clip-rule="evenodd" d="M161.298 102.307C161.478 102.307 161.624 102.161 161.624 101.981C161.624 101.8 161.478 101.654 161.298 101.654C161.118 101.654 160.972 101.8 160.972 101.981C160.972 102.161 161.118 102.307 161.298 102.307Z" fill="url(#paint7_radial)"/>
</g>
<g opacity="0.391966" filter="url(#filter15_f)">
<path fill-rule="evenodd" clip-rule="evenodd" d="M161.299 102.133C161.419 102.133 161.516 102.037 161.516 102.133C161.516 102.229 161.419 102.308 161.299 102.308C161.179 102.308 161.081 102.229 161.081 102.133C161.081 102.037 161.179 102.133 161.299 102.133Z" fill="#9F9F9F"/>
</g>
<g opacity="0.755422" filter="url(#filter16_di)">
<path fill-rule="evenodd" clip-rule="evenodd" d="M161.3 102.093C161.36 102.093 161.409 102.074 161.409 102.118C161.409 102.162 161.36 102.198 161.3 102.198C161.24 102.198 161.191 102.162 161.191 102.118C161.191 102.074 161.24 102.093 161.3 102.093Z" fill="#527073"/>
</g>
<g opacity="0.980352" filter="url(#filter17_di)">
<path fill-rule="evenodd" clip-rule="evenodd" d="M161.245 101.849C161.334 101.849 161.418 101.909 161.406 101.835C161.394 101.76 161.334 101.654 161.245 101.654C161.155 101.654 161.097 101.76 161.083 101.835C161.069 101.909 161.155 101.849 161.245 101.849Z" fill="#E4D3F2" fill-opacity="0.526183"/>
</g>
<g opacity="0.657241" filter="url(#filter18_f)">
<path fill-rule="evenodd" clip-rule="evenodd" d="M161.244 102.633C161.394 102.633 161.516 102.536 161.516 102.416C161.516 102.296 161.394 102.198 161.244 102.198C161.093 102.198 160.972 102.296 160.972 102.416C160.972 102.536 161.093 102.633 161.244 102.633Z" fill="#76DB82"/>
</g>
<path opacity="0.170243" fill-rule="evenodd" clip-rule="evenodd" d="M160.702 102.31C161.092 102.31 161.409 101.993 161.409 101.603C161.409 101.212 161.092 100.896 160.702 100.896C160.311 100.896 159.995 101.212 159.995 101.603C159.995 101.993 160.311 102.31 160.702 102.31Z" fill="url(#paint8_radial)"/>
<g opacity="0.801364">
<g filter="url(#filter19_d)">
<rect x="133.485" y="100.82" width="20.4151" height="2.65565" rx="1.32782" fill="#151414"/>
</g>
<mask id="mask0" mask-type="alpha" maskUnits="userSpaceOnUse" x="133" y="100" width="21" height="4">
<rect x="133.485" y="100.82" width="20.4151" height="2.65565" rx="1.32782" fill="white"/>
</mask>
<g mask="url(#mask0)">
<path opacity="0.05" d="M121.146 98.7852L128.453 106.094M122.499 98.7852L129.806 106.094M123.853 98.7852L131.159 106.094M125.206 98.7852L132.512 106.094M126.559 98.7852L133.865 106.094M135.218 106.094L127.912 98.7852L120.605 106.094M136.571 106.094L129.265 98.7852L121.958 106.094M137.924 106.094L130.618 98.7852L123.311 106.094M139.277 106.094L131.971 98.7852L124.664 106.094M140.63 106.094L133.324 98.7852L126.017 106.094M141.983 106.094L134.677 98.7852L127.37 106.094M143.336 106.094L136.03 98.7852L128.723 106.094M144.689 106.094L137.383 98.7852L130.076 106.094M146.042 106.094L138.736 98.7852L131.43 106.094M147.395 106.094L140.089 98.7852L132.783 106.094M148.748 106.094L141.442 98.7852L134.136 106.094M150.101 106.094L142.795 98.7852L135.489 106.094M151.454 106.094L144.148 98.7852L136.842 106.094M152.808 106.094L145.501 98.7852L138.195 106.094M154.161 106.094L146.854 98.7852L139.548 106.094M155.514 106.094L148.207 98.7852L140.901 106.094M156.867 106.094L149.56 98.7852L142.254 106.094M158.22 106.094L150.913 98.7852L143.607 106.094M157.678 98.7852L150.372 106.094M156.325 98.7852L149.019 106.094M154.972 98.7852L147.666 106.094M153.619 98.7852L146.313 106.094M152.266 98.7852L144.96 106.094" stroke="white" stroke-width="0.258131"/>
</g>
</g>
<mask id="mask1" mask-type="alpha" maskUnits="userSpaceOnUse" x="71" y="98" width="146" height="315">
<path fill-rule="evenodd" clip-rule="evenodd" d="M103.615 101.798C103.615 105.515 106.354 110.059 112.656 110.059H175.422C181.724 110.059 184.463 105.515 184.463 101.927C184.463 100.138 184.463 98.4414 187.433 98.4414H199.961C210.43 98.4414 216.75 104.758 216.75 115.223V395.856C216.75 406.32 210.43 412.637 199.961 412.637H88.2464C77.7769 412.637 71.457 406.32 71.457 395.856V115.223C71.457 104.758 77.7769 98.4414 88.2464 98.4414H100.645C103.615 98.4414 103.615 100.138 103.615 101.798Z" fill="url(#paint9_linear)"/>
</mask>
<g mask="url(#mask1)">
<rect x="50.4529" y="81.9385" width="187.54" height="347.698" fill="url(#paint10_linear)"/>
<path d="M86.5209 144.449L84.473 137.444H86.0273L87.4766 143.147H87.2141L88.8839 137.444H90.0392L91.751 143.22H91.4465L92.8958 137.444H94.4501L92.4022 144.449H90.9844L89.325 139.072H89.6191L87.9387 144.449H86.5209ZM97.2668 144.607C96.7416 144.607 96.2795 144.498 95.8805 144.281C95.4884 144.064 95.1838 143.753 94.9668 143.346C94.7497 142.933 94.6412 142.436 94.6412 141.855C94.6412 140.931 94.8617 140.224 95.3028 139.734C95.7509 139.244 96.3811 138.999 97.1932 138.999C97.7674 138.999 98.233 139.125 98.59 139.377C98.9471 139.629 99.2062 139.989 99.3672 140.458C99.5282 140.927 99.6053 141.484 99.5983 142.128H95.5024L95.4079 141.225H98.5375L98.2855 141.603C98.2715 141.05 98.1734 140.654 97.9914 140.416C97.8164 140.171 97.5328 140.049 97.1407 140.049C96.9027 140.049 96.6961 140.105 96.5211 140.217C96.3461 140.322 96.2095 140.5 96.1115 140.752C96.0205 141.004 95.975 141.351 95.975 141.792C95.975 142.338 96.101 142.755 96.3531 143.042C96.6121 143.329 97.0077 143.473 97.5398 143.473C97.7569 143.473 97.9634 143.452 98.1594 143.409C98.3625 143.367 98.548 143.315 98.7161 143.252C98.8911 143.182 99.0416 143.119 99.1677 143.063V144.25C98.9156 144.355 98.6355 144.439 98.3275 144.502C98.0194 144.572 97.6658 144.607 97.2668 144.607ZM102.104 144.449H100.781V137.15H102.104V144.449ZM105.976 144.565C105.626 144.565 105.289 144.516 104.967 144.418C104.645 144.313 104.358 144.155 104.106 143.945C103.854 143.728 103.655 143.448 103.508 143.105C103.361 142.755 103.287 142.338 103.287 141.855C103.287 141.344 103.357 140.91 103.497 140.553C103.637 140.196 103.83 139.905 104.075 139.681C104.32 139.45 104.603 139.282 104.925 139.177C105.254 139.072 105.601 139.02 105.965 139.02C106.252 139.02 106.539 139.048 106.826 139.104C107.12 139.16 107.386 139.24 107.624 139.345V140.511C107.379 140.406 107.138 140.322 106.9 140.259C106.669 140.189 106.427 140.154 106.175 140.154C105.678 140.154 105.293 140.276 105.02 140.521C104.747 140.766 104.61 141.166 104.61 141.719C104.61 142.3 104.736 142.73 104.988 143.01C105.24 143.283 105.654 143.42 106.228 143.42C106.487 143.42 106.735 143.381 106.973 143.304C107.218 143.227 107.439 143.14 107.635 143.042V144.197C107.39 144.316 107.134 144.407 106.868 144.47C106.602 144.533 106.305 144.565 105.976 144.565ZM111.143 144.607C110.268 144.607 109.613 144.365 109.179 143.882C108.745 143.399 108.528 142.702 108.528 141.792C108.528 140.812 108.748 140.101 109.19 139.66C109.638 139.219 110.285 138.999 111.132 138.999C111.721 138.999 112.207 139.104 112.592 139.314C112.984 139.517 113.278 139.825 113.474 140.238C113.671 140.651 113.769 141.169 113.769 141.792C113.769 142.702 113.541 143.399 113.086 143.882C112.631 144.365 111.983 144.607 111.143 144.607ZM111.132 143.515C111.441 143.515 111.689 143.445 111.878 143.304C112.074 143.164 112.218 142.965 112.309 142.706C112.4 142.447 112.445 142.142 112.445 141.792C112.445 141.393 112.396 141.068 112.298 140.815C112.207 140.563 112.064 140.378 111.868 140.259C111.679 140.14 111.434 140.08 111.132 140.08C110.824 140.08 110.576 140.143 110.387 140.269C110.198 140.395 110.061 140.584 109.977 140.836C109.893 141.089 109.851 141.407 109.851 141.792C109.851 142.345 109.949 142.772 110.145 143.073C110.348 143.367 110.677 143.515 111.132 143.515ZM119.702 140.92V144.449H118.368V141.152C118.368 141.018 118.351 140.892 118.316 140.773C118.281 140.647 118.221 140.539 118.137 140.448C118.053 140.35 117.938 140.276 117.791 140.227C117.644 140.171 117.455 140.143 117.224 140.143C117.049 140.143 116.881 140.161 116.719 140.196C116.558 140.231 116.411 140.276 116.278 140.332V144.449H114.945V139.597C115.092 139.52 115.267 139.447 115.47 139.377C115.673 139.307 115.893 139.247 116.131 139.198C116.369 139.142 116.611 139.1 116.856 139.072C117.101 139.037 117.332 139.02 117.549 139.02C118.032 139.02 118.431 139.086 118.746 139.219C119.068 139.345 119.307 139.548 119.461 139.828C119.622 140.108 119.702 140.472 119.702 140.92ZM118.263 139.912C118.487 139.723 118.743 139.566 119.03 139.44C119.317 139.307 119.618 139.205 119.933 139.135C120.255 139.058 120.56 139.02 120.847 139.02C121.33 139.02 121.729 139.086 122.044 139.219C122.366 139.345 122.604 139.548 122.758 139.828C122.919 140.108 123 140.472 123 140.92V144.449H121.666V141.152C121.666 141.018 121.649 140.892 121.614 140.773C121.579 140.647 121.519 140.539 121.435 140.448C121.351 140.35 121.235 140.276 121.088 140.227C120.941 140.171 120.752 140.143 120.521 140.143C120.346 140.143 120.178 140.168 120.017 140.217C119.856 140.266 119.709 140.339 119.576 140.437L118.263 139.912ZM126.815 144.607C126.289 144.607 125.827 144.498 125.428 144.281C125.036 144.064 124.732 143.753 124.515 143.346C124.297 142.933 124.189 142.436 124.189 141.855C124.189 140.931 124.409 140.224 124.851 139.734C125.299 139.244 125.929 138.999 126.741 138.999C127.315 138.999 127.781 139.125 128.138 139.377C128.495 139.629 128.754 139.989 128.915 140.458C129.076 140.927 129.153 141.484 129.146 142.128H125.05L124.956 141.225H128.085L127.833 141.603C127.819 141.05 127.721 140.654 127.539 140.416C127.364 140.171 127.081 140.049 126.688 140.049C126.45 140.049 126.244 140.105 126.069 140.217C125.894 140.322 125.757 140.5 125.659 140.752C125.568 141.004 125.523 141.351 125.523 141.792C125.523 142.338 125.649 142.755 125.901 143.042C126.16 143.329 126.555 143.473 127.088 143.473C127.305 143.473 127.511 143.452 127.707 143.409C127.91 143.367 128.096 143.315 128.264 143.252C128.439 143.182 128.589 143.119 128.715 143.063V144.25C128.463 144.355 128.183 144.439 127.875 144.502C127.567 144.572 127.214 144.607 126.815 144.607Z" fill="white"/>
<path d="M173.936 232.063C134.553 192.68 74.2934 201.856 46.9169 220.63C4.75543 249.543 58.513 331.808 41.8957 358.551C-6.04561 435.706 99.9748 474.695 179.797 446.536C283.934 409.799 237.325 295.452 173.936 232.063Z" fill="url(#paint11_linear)"/>
</g>
<path d="M194.619 110.068H202.496" stroke="white" stroke-width="1.50032" stroke-linecap="round"/>
<path d="M196.868 114.194H204.745" stroke="white" stroke-width="1.50032" stroke-linecap="round"/>
<path d="M88.8767 112.078L90.7332 115.696L93.7501 108.978" stroke="white" stroke-width="2.08075" stroke-linecap="round" stroke-linejoin="round"/>
<path d="M86.0776 115.696L83.0608 108.978" stroke="white" stroke-width="2.08075" stroke-linecap="round" stroke-linejoin="round"/>
<path d="M119.976 403.757H168.362" stroke="black" stroke-opacity="0.3" stroke-width="3.37571" stroke-linecap="round"/>
<g filter="url(#filter20_d)">
<rect x="82.4668" y="169.707" width="123.026" height="47.26" rx="10.8773" fill="#F0F3F4"/>
</g>
<g filter="url(#filter21_dd)">
<rect x="147.729" y="180.584" width="45.3846" height="25.8805" rx="3.75079" fill="#F0F3F4"/>
</g>
<path d="M154.588 195.961V192.083H155.402L156.762 194.037L156.32 194.066L157.739 192.083H158.536V195.961H157.745V192.711L157.925 192.92L156.524 194.821L155.164 192.915L155.35 192.752V195.961H154.588ZM159.926 197.095C159.84 197.095 159.757 197.085 159.676 197.066C159.598 197.05 159.53 197.031 159.472 197.007V196.391C159.526 196.411 159.579 196.426 159.629 196.438C159.679 196.449 159.734 196.455 159.792 196.455C159.897 196.455 159.986 196.428 160.059 196.374C160.137 196.319 160.201 196.236 160.251 196.124C160.302 196.015 160.342 195.874 160.373 195.699L160.385 196.1L159.135 193.031H159.978L160.734 195.211H160.646L161.391 193.031H162.175L160.995 196.071C160.895 196.331 160.784 196.535 160.664 196.682C160.548 196.833 160.427 196.94 160.303 197.002C160.179 197.064 160.053 197.095 159.926 197.095ZM164.05 195.961L165.538 192.083H166.393L167.817 195.961H166.997L165.73 192.351L166.079 192.316L164.817 195.961H164.05ZM164.835 195.013L165.027 194.409H166.829L166.899 195.013H164.835ZM169.601 196.025C169.408 196.025 169.222 195.998 169.043 195.943C168.865 195.885 168.706 195.798 168.567 195.682C168.427 195.562 168.317 195.407 168.235 195.217C168.154 195.023 168.113 194.792 168.113 194.525C168.113 194.242 168.152 194.002 168.229 193.804C168.307 193.606 168.413 193.446 168.549 193.322C168.685 193.194 168.842 193.101 169.02 193.042C169.202 192.984 169.394 192.955 169.596 192.955C169.754 192.955 169.913 192.971 170.072 193.002C170.235 193.033 170.382 193.077 170.514 193.135V193.781C170.378 193.723 170.245 193.676 170.113 193.641C169.985 193.603 169.851 193.583 169.712 193.583C169.437 193.583 169.223 193.651 169.072 193.787C168.921 193.922 168.846 194.143 168.846 194.449C168.846 194.771 168.915 195.009 169.055 195.164C169.194 195.316 169.423 195.391 169.741 195.391C169.884 195.391 170.022 195.37 170.154 195.327C170.289 195.285 170.411 195.236 170.52 195.182V195.821C170.384 195.887 170.243 195.938 170.096 195.973C169.948 196.007 169.784 196.025 169.601 196.025ZM172.503 196.025C172.309 196.025 172.123 195.998 171.944 195.943C171.766 195.885 171.607 195.798 171.468 195.682C171.328 195.562 171.218 195.407 171.136 195.217C171.055 195.023 171.014 194.792 171.014 194.525C171.014 194.242 171.053 194.002 171.13 193.804C171.208 193.606 171.315 193.446 171.45 193.322C171.586 193.194 171.743 193.101 171.921 193.042C172.103 192.984 172.295 192.955 172.497 192.955C172.656 192.955 172.815 192.971 172.973 193.002C173.136 193.033 173.284 193.077 173.415 193.135V193.781C173.28 193.723 173.146 193.676 173.014 193.641C172.886 193.603 172.753 193.583 172.613 193.583C172.338 193.583 172.125 193.651 171.973 193.787C171.822 193.922 171.747 194.143 171.747 194.449C171.747 194.771 171.817 195.009 171.956 195.164C172.096 195.316 172.324 195.391 172.642 195.391C172.785 195.391 172.923 195.37 173.055 195.327C173.19 195.285 173.313 195.236 173.421 195.182V195.821C173.285 195.887 173.144 195.938 172.997 195.973C172.849 196.007 172.685 196.025 172.503 196.025ZM175.363 196.048C174.879 196.048 174.516 195.914 174.276 195.647C174.036 195.38 173.915 194.994 173.915 194.49C173.915 193.947 174.037 193.554 174.282 193.31C174.53 193.066 174.888 192.944 175.357 192.944C175.683 192.944 175.952 193.002 176.165 193.118C176.382 193.23 176.545 193.401 176.654 193.63C176.762 193.858 176.816 194.145 176.816 194.49C176.816 194.994 176.69 195.38 176.439 195.647C176.187 195.914 175.828 196.048 175.363 196.048ZM175.357 195.444C175.528 195.444 175.665 195.405 175.77 195.327C175.879 195.25 175.958 195.139 176.008 194.996C176.059 194.852 176.084 194.684 176.084 194.49C176.084 194.269 176.057 194.089 176.003 193.949C175.952 193.81 175.873 193.707 175.764 193.641C175.66 193.575 175.524 193.542 175.357 193.542C175.187 193.542 175.049 193.577 174.944 193.647C174.84 193.717 174.764 193.821 174.718 193.961C174.671 194.101 174.648 194.277 174.648 194.49C174.648 194.796 174.702 195.033 174.811 195.199C174.923 195.362 175.105 195.444 175.357 195.444ZM178.805 196.048C178.537 196.048 178.303 196.006 178.101 195.92C177.9 195.831 177.743 195.699 177.63 195.525C177.522 195.35 177.468 195.128 177.468 194.856V193.031H178.206V194.775C178.206 194.992 178.254 195.153 178.351 195.257C178.448 195.362 178.601 195.414 178.81 195.414C179.02 195.414 179.171 195.362 179.264 195.257C179.361 195.153 179.409 194.992 179.409 194.775V193.031H180.113V194.856C180.113 195.259 179.996 195.56 179.764 195.757C179.531 195.951 179.212 196.048 178.805 196.048ZM180.925 193.275C181.006 193.232 181.103 193.192 181.216 193.153C181.328 193.114 181.45 193.081 181.582 193.054C181.714 193.023 181.848 193 181.983 192.984C182.119 192.965 182.247 192.955 182.367 192.955C182.634 192.955 182.857 192.992 183.035 193.066C183.218 193.135 183.355 193.248 183.448 193.403C183.541 193.558 183.588 193.759 183.588 194.008V195.961H182.849V194.135C182.849 194.062 182.84 193.992 182.82 193.926C182.801 193.856 182.768 193.796 182.722 193.746C182.675 193.692 182.611 193.651 182.53 193.624C182.448 193.593 182.344 193.577 182.216 193.577C182.119 193.577 182.02 193.587 181.919 193.606C181.822 193.626 181.737 193.651 181.663 193.682V195.961H180.925V193.275ZM185.522 196.054C185.219 196.054 184.989 195.98 184.83 195.833C184.671 195.682 184.592 195.465 184.592 195.182V193.612H184.138V193.031H184.592V192.217H185.359V193.031H186.033V193.612H185.359V195.066C185.359 195.182 185.38 195.269 185.423 195.327C185.469 195.385 185.551 195.414 185.667 195.414C185.729 195.414 185.793 195.405 185.859 195.385C185.929 195.366 185.987 195.341 186.033 195.31V195.949C185.96 195.988 185.876 196.015 185.783 196.031C185.694 196.046 185.607 196.054 185.522 196.054Z" fill="#636363"/>
<g filter="url(#filter22_i)">
<path fill-rule="evenodd" clip-rule="evenodd" d="M112.191 184.617C112.191 185.601 109.399 186.398 105.956 186.398C102.512 186.398 99.7198 185.601 99.7198 184.617C99.7198 183.633 102.512 182.835 105.956 182.835C109.399 182.835 112.191 183.633 112.191 184.617ZM112.191 188.625C112.191 189.609 109.399 190.407 105.955 190.407C102.512 190.407 99.7197 189.609 99.7197 188.625V186.606C101.683 187.658 105.061 187.734 105.955 187.734C106.85 187.734 110.228 187.658 112.191 186.606V188.625ZM108.182 199.644V202.307C107.497 202.388 106.739 202.432 105.955 202.432C102.508 202.432 99.7197 201.63 99.7197 200.65V198.628C101.68 199.679 105.065 199.76 105.955 199.76C106.338 199.76 107.185 199.742 108.182 199.644ZM108.225 195.86L108.225 195.86C108.24 195.781 108.257 195.697 108.28 195.627C107.238 195.734 106.347 195.751 105.955 195.751C105.065 195.751 101.68 195.671 99.7197 194.62V196.642C99.7197 197.622 102.508 198.424 105.955 198.424C106.739 198.424 107.497 198.379 108.182 198.299V195.867L108.218 195.894L108.225 195.86ZM105.955 191.742C105.061 191.742 101.683 191.666 99.7197 190.614V192.633C99.7197 193.618 102.512 194.415 105.955 194.415C109.399 194.415 112.191 193.618 112.191 192.633V190.614C110.228 191.666 106.85 191.742 105.955 191.742ZM121.1 196.197C121.1 197.181 118.507 197.979 115.309 197.979C112.112 197.979 109.519 197.181 109.519 196.197C109.519 195.213 112.112 194.416 115.309 194.416C118.507 194.416 121.1 195.213 121.1 196.197ZM115.309 201.096C118.507 201.096 121.1 200.299 121.1 199.314V198.185C119.277 199.238 116.14 199.314 115.309 199.314C114.479 199.314 111.342 199.238 109.519 198.185V199.314C109.519 200.299 112.111 201.096 115.309 201.096ZM109.519 201.304C111.342 202.356 114.479 202.432 115.309 202.432C116.14 202.432 119.277 202.356 121.1 201.304V202.432C121.1 203.417 118.507 204.214 115.309 204.214C112.111 204.214 109.519 203.417 109.519 202.432V201.304Z" fill="#A5B0B4"/>
</g>
<g filter="url(#filter23_d)">
<rect x="82.4673" y="224.469" width="123.026" height="47.26" rx="10.8773" fill="#F0F3F4"/>
</g>
<g filter="url(#filter24_dd)">
<rect x="147.73" y="235.346" width="45.3846" height="25.8805" rx="3.75079" fill="#F0F3F4"/>
</g>
<path d="M158.016 249.391V250.723H157.226V246.845H158.865C159.315 246.845 159.664 246.948 159.912 247.153C160.163 247.358 160.289 247.67 160.289 248.089C160.289 248.508 160.163 248.829 159.912 249.054C159.664 249.279 159.315 249.391 158.865 249.391H158.016ZM158.016 248.752H158.766C158.902 248.752 159.012 248.736 159.098 248.705C159.187 248.674 159.257 248.63 159.307 248.572C159.357 248.51 159.392 248.442 159.412 248.368C159.435 248.294 159.446 248.215 159.446 248.13C159.446 248.041 159.435 247.957 159.412 247.88C159.392 247.802 159.357 247.732 159.307 247.67C159.257 247.608 159.187 247.562 159.098 247.531C159.012 247.496 158.902 247.479 158.766 247.479H158.016V248.752ZM162.077 250.81C161.91 250.81 161.753 250.794 161.606 250.763C161.458 250.732 161.327 250.68 161.21 250.606C161.094 250.533 161.001 250.434 160.931 250.31C160.865 250.182 160.832 250.025 160.832 249.839C160.832 249.637 160.873 249.469 160.954 249.333C161.036 249.194 161.154 249.089 161.309 249.019C161.468 248.946 161.662 248.909 161.891 248.909C162.03 248.909 162.16 248.922 162.28 248.949C162.4 248.973 162.509 249.008 162.606 249.054C162.702 249.097 162.782 249.143 162.844 249.194L162.896 249.606C162.815 249.552 162.71 249.51 162.582 249.479C162.458 249.444 162.323 249.426 162.175 249.426C161.97 249.426 161.817 249.459 161.716 249.525C161.615 249.591 161.565 249.694 161.565 249.833C161.565 249.926 161.592 250.006 161.646 250.072C161.701 250.137 161.77 250.186 161.856 250.217C161.941 250.248 162.03 250.263 162.123 250.263C162.336 250.263 162.489 250.25 162.582 250.223C162.679 250.192 162.728 250.128 162.728 250.031V248.88C162.728 248.69 162.668 248.552 162.547 248.467C162.427 248.378 162.259 248.333 162.042 248.333C161.875 248.333 161.704 248.362 161.53 248.42C161.356 248.475 161.214 248.546 161.106 248.636V247.967C161.21 247.897 161.367 247.839 161.577 247.793C161.786 247.742 162.011 247.717 162.251 247.717C162.352 247.717 162.458 247.727 162.571 247.746C162.683 247.762 162.792 247.791 162.896 247.833C163.001 247.876 163.096 247.936 163.181 248.013C163.266 248.091 163.334 248.188 163.385 248.304C163.435 248.417 163.46 248.554 163.46 248.717L163.454 250.106C163.454 250.285 163.396 250.426 163.28 250.531C163.168 250.632 163.007 250.703 162.797 250.746C162.592 250.789 162.352 250.81 162.077 250.81ZM164.664 251.856C164.579 251.856 164.495 251.847 164.414 251.827C164.336 251.812 164.269 251.792 164.21 251.769V251.153C164.265 251.172 164.317 251.188 164.367 251.199C164.418 251.211 164.472 251.217 164.53 251.217C164.635 251.217 164.724 251.19 164.798 251.135C164.875 251.081 164.939 250.998 164.989 250.885C165.04 250.777 165.081 250.635 165.112 250.461L165.123 250.862L163.873 247.793H164.716L165.472 249.973H165.385L166.129 247.793H166.914L165.734 250.833C165.633 251.093 165.522 251.296 165.402 251.444C165.286 251.595 165.166 251.701 165.042 251.763C164.918 251.825 164.792 251.856 164.664 251.856ZM170.027 248.769V250.723H169.289V248.897C169.289 248.824 169.279 248.754 169.259 248.688C169.24 248.618 169.207 248.558 169.161 248.508C169.114 248.453 169.05 248.413 168.969 248.386C168.887 248.355 168.783 248.339 168.655 248.339C168.558 248.339 168.465 248.349 168.376 248.368C168.287 248.387 168.205 248.413 168.132 248.444V250.723H167.393V248.037C167.475 247.994 167.572 247.953 167.684 247.915C167.796 247.876 167.918 247.843 168.05 247.816C168.182 247.785 168.316 247.762 168.451 247.746C168.587 247.727 168.715 247.717 168.835 247.717C169.103 247.717 169.323 247.754 169.498 247.827C169.676 247.897 169.808 248.01 169.893 248.165C169.982 248.32 170.027 248.521 170.027 248.769ZM169.23 248.211C169.354 248.106 169.496 248.019 169.655 247.95C169.814 247.876 169.98 247.82 170.155 247.781C170.333 247.738 170.502 247.717 170.661 247.717C170.928 247.717 171.149 247.754 171.323 247.827C171.502 247.897 171.633 248.01 171.719 248.165C171.808 248.32 171.852 248.521 171.852 248.769V250.723H171.114V248.897C171.114 248.824 171.104 248.754 171.085 248.688C171.066 248.618 171.033 248.558 170.986 248.508C170.94 248.453 170.876 248.413 170.794 248.386C170.713 248.355 170.608 248.339 170.48 248.339C170.383 248.339 170.29 248.353 170.201 248.38C170.112 248.407 170.031 248.448 169.957 248.502L169.23 248.211ZM173.964 250.81C173.673 250.81 173.418 250.75 173.197 250.63C172.98 250.509 172.811 250.337 172.691 250.112C172.571 249.884 172.511 249.608 172.511 249.287C172.511 248.775 172.633 248.384 172.877 248.112C173.125 247.841 173.474 247.705 173.923 247.705C174.241 247.705 174.499 247.775 174.697 247.915C174.894 248.054 175.038 248.254 175.127 248.513C175.216 248.773 175.259 249.081 175.255 249.438H172.987L172.935 248.938H174.668L174.528 249.147C174.52 248.841 174.466 248.622 174.365 248.49C174.268 248.355 174.111 248.287 173.894 248.287C173.763 248.287 173.648 248.318 173.551 248.38C173.454 248.438 173.379 248.537 173.325 248.676C173.274 248.816 173.249 249.008 173.249 249.252C173.249 249.554 173.319 249.785 173.458 249.944C173.602 250.103 173.821 250.182 174.115 250.182C174.235 250.182 174.35 250.17 174.458 250.147C174.571 250.124 174.673 250.095 174.766 250.06C174.863 250.021 174.947 249.986 175.016 249.955V250.612C174.877 250.67 174.722 250.717 174.551 250.752C174.381 250.79 174.185 250.81 173.964 250.81ZM175.909 248.037C175.991 247.994 176.088 247.953 176.2 247.915C176.313 247.876 176.435 247.843 176.566 247.816C176.698 247.785 176.832 247.762 176.968 247.746C177.103 247.727 177.231 247.717 177.351 247.717C177.619 247.717 177.842 247.754 178.02 247.827C178.202 247.897 178.34 248.01 178.433 248.165C178.526 248.32 178.572 248.521 178.572 248.769V250.723H177.834V248.897C177.834 248.824 177.824 248.754 177.805 248.688C177.785 248.618 177.752 248.558 177.706 248.508C177.659 248.453 177.595 248.413 177.514 248.386C177.433 248.355 177.328 248.339 177.2 248.339C177.103 248.339 177.004 248.349 176.904 248.368C176.807 248.387 176.721 248.413 176.648 248.444V250.723H175.909V248.037ZM180.506 250.816C180.204 250.816 179.973 250.742 179.814 250.595C179.655 250.444 179.576 250.227 179.576 249.944V248.374H179.122V247.793H179.576V246.979H180.343V247.793H181.018V248.374H180.343V249.827C180.343 249.944 180.365 250.031 180.407 250.089C180.454 250.147 180.535 250.176 180.651 250.176C180.714 250.176 180.777 250.166 180.843 250.147C180.913 250.128 180.971 250.103 181.018 250.072V250.711C180.944 250.75 180.861 250.777 180.768 250.792C180.679 250.808 180.591 250.816 180.506 250.816ZM182.567 250.81C182.357 250.81 182.179 250.787 182.032 250.74C181.884 250.697 181.743 250.645 181.607 250.583V249.915C181.696 249.973 181.79 250.029 181.886 250.083C181.987 250.134 182.094 250.174 182.206 250.205C182.322 250.236 182.448 250.252 182.584 250.252C182.735 250.252 182.848 250.223 182.921 250.165C182.999 250.106 183.038 250.033 183.038 249.944C183.038 249.866 183.008 249.806 182.95 249.763C182.892 249.717 182.817 249.678 182.724 249.647C182.631 249.616 182.532 249.585 182.427 249.554C182.33 249.531 182.231 249.5 182.131 249.461C182.034 249.422 181.945 249.37 181.863 249.304C181.782 249.238 181.716 249.155 181.665 249.054C181.619 248.949 181.596 248.824 181.596 248.676C181.596 248.502 181.631 248.355 181.7 248.234C181.77 248.114 181.861 248.017 181.974 247.944C182.09 247.866 182.214 247.812 182.346 247.781C182.481 247.746 182.613 247.731 182.741 247.734C182.966 247.738 183.146 247.763 183.282 247.81C183.417 247.856 183.545 247.913 183.665 247.979V248.583C183.53 248.51 183.398 248.444 183.27 248.386C183.146 248.324 183.001 248.293 182.834 248.293C182.683 248.293 182.565 248.32 182.479 248.374C182.398 248.424 182.357 248.496 182.357 248.589C182.357 248.67 182.383 248.736 182.433 248.787C182.483 248.833 182.549 248.872 182.631 248.903C182.716 248.93 182.807 248.957 182.904 248.984C183.001 249.011 183.1 249.042 183.2 249.077C183.305 249.108 183.402 249.155 183.491 249.217C183.584 249.275 183.658 249.356 183.712 249.461C183.77 249.566 183.799 249.701 183.799 249.868C183.795 250.097 183.733 250.281 183.613 250.42C183.497 250.556 183.346 250.655 183.16 250.717C182.974 250.779 182.776 250.81 182.567 250.81Z" fill="#636363"/>
<g filter="url(#filter25_i)">
<path d="M118.243 254.612H115.081C113.088 254.612 111.466 252.99 111.466 250.997C111.466 249.004 113.088 247.383 115.081 247.383H118.243C118.493 247.383 118.695 247.181 118.695 246.931V245.576C118.695 244.628 117.96 243.858 117.032 243.783L114.437 239.251C114.197 238.832 113.808 238.532 113.344 238.408C112.881 238.284 112.398 238.349 111.984 238.59L103.089 243.768H101.527C100.53 243.768 99.7197 244.579 99.7197 245.576V256.419C99.7197 257.415 100.53 258.226 101.527 258.226H116.888C117.885 258.226 118.695 257.415 118.695 256.419V255.063C118.695 254.814 118.493 254.612 118.243 254.612ZM114.997 242.049L115.982 243.768H112.044L114.997 242.049ZM104.885 243.768L112.439 239.371C112.643 239.251 112.882 239.22 113.11 239.281C113.341 239.342 113.533 239.491 113.653 239.7L113.653 239.702L106.669 243.768H104.885Z" fill="#A5B0B4"/>
<path d="M118.245 248.286H115.082C113.587 248.286 112.371 249.502 112.371 250.997C112.371 252.492 113.587 253.708 115.082 253.708H118.245C118.992 253.708 119.6 253.1 119.6 252.352V249.642C119.6 248.894 118.992 248.286 118.245 248.286ZM115.082 251.9C114.584 251.9 114.179 251.495 114.179 250.997C114.179 250.499 114.584 250.093 115.082 250.093C115.58 250.093 115.986 250.499 115.986 250.997C115.986 251.495 115.58 251.9 115.082 251.9Z" fill="#A5B0B4"/>
</g>
<g filter="url(#filter26_d)">
<rect x="82.4673" y="279.229" width="123.026" height="47.26" rx="10.8773" fill="#F0F3F4"/>
</g>
<g filter="url(#filter27_dd)">
<rect x="147.73" y="290.106" width="45.3846" height="25.8805" rx="3.75079" fill="#F0F3F4"/>
</g>
<path d="M162.636 304.153V305.484H161.845V301.607H163.485C163.934 301.607 164.283 301.709 164.531 301.915C164.783 302.12 164.909 302.432 164.909 302.851C164.909 303.269 164.783 303.591 164.531 303.816C164.283 304.041 163.934 304.153 163.485 304.153H162.636ZM162.636 303.514H163.386C163.522 303.514 163.632 303.498 163.717 303.467C163.807 303.436 163.876 303.391 163.927 303.333C163.977 303.271 164.012 303.203 164.031 303.13C164.055 303.056 164.066 302.977 164.066 302.891C164.066 302.802 164.055 302.719 164.031 302.641C164.012 302.564 163.977 302.494 163.927 302.432C163.876 302.37 163.807 302.324 163.717 302.293C163.632 302.258 163.522 302.24 163.386 302.24H162.636V303.514ZM165.598 305.484V302.839C165.652 302.8 165.747 302.754 165.882 302.7C166.022 302.641 166.183 302.591 166.365 302.548C166.547 302.502 166.731 302.479 166.917 302.479C167.057 302.479 167.167 302.49 167.249 302.514C167.334 302.533 167.402 302.558 167.452 302.589V303.147C167.375 303.136 167.285 303.126 167.185 303.118C167.088 303.11 166.987 303.108 166.882 303.112C166.782 303.112 166.683 303.116 166.586 303.124C166.493 303.132 166.41 303.141 166.336 303.153V305.484H165.598ZM169.165 305.572C168.68 305.572 168.318 305.438 168.078 305.17C167.837 304.903 167.717 304.517 167.717 304.014C167.717 303.471 167.839 303.077 168.083 302.833C168.332 302.589 168.69 302.467 169.159 302.467C169.485 302.467 169.754 302.525 169.967 302.641C170.184 302.754 170.347 302.924 170.455 303.153C170.564 303.382 170.618 303.669 170.618 304.014C170.618 304.517 170.492 304.903 170.24 305.17C169.988 305.438 169.63 305.572 169.165 305.572ZM169.159 304.967C169.33 304.967 169.467 304.928 169.572 304.851C169.68 304.773 169.76 304.663 169.81 304.519C169.861 304.376 169.886 304.207 169.886 304.014C169.886 303.793 169.859 303.612 169.804 303.473C169.754 303.333 169.675 303.231 169.566 303.165C169.461 303.099 169.326 303.066 169.159 303.066C168.988 303.066 168.851 303.101 168.746 303.171C168.642 303.24 168.566 303.345 168.52 303.484C168.473 303.624 168.45 303.8 168.45 304.014C168.45 304.32 168.504 304.556 168.613 304.723C168.725 304.886 168.907 304.967 169.159 304.967ZM171.502 305.484V303.136H171.054V302.554H171.508V302.461C171.508 302.264 171.529 302.097 171.572 301.961C171.614 301.826 171.67 301.715 171.74 301.63C171.814 301.541 171.895 301.475 171.984 301.432C172.077 301.386 172.174 301.355 172.275 301.339C172.376 301.32 172.477 301.31 172.577 301.31C172.639 301.31 172.703 301.316 172.769 301.328C172.835 301.335 172.889 301.347 172.932 301.362V302.014C172.897 301.983 172.86 301.959 172.822 301.944C172.783 301.924 172.73 301.915 172.665 301.915C172.61 301.915 172.558 301.921 172.508 301.932C172.457 301.94 172.413 301.961 172.374 301.996C172.335 302.027 172.304 302.074 172.281 302.136C172.258 302.198 172.246 302.279 172.246 302.38V302.554H172.932V303.136H172.24V305.484H171.502ZM173.484 305.484V302.583H174.223L174.229 305.484H173.484ZM173.467 302.118V301.508H174.24V302.118H173.467ZM175.789 305.484H175.056V301.444H175.789V305.484ZM177.897 305.572C177.606 305.572 177.35 305.512 177.13 305.391C176.912 305.271 176.744 305.099 176.624 304.874C176.504 304.645 176.443 304.37 176.443 304.048C176.443 303.537 176.566 303.145 176.81 302.874C177.058 302.603 177.407 302.467 177.856 302.467C178.174 302.467 178.432 302.537 178.629 302.676C178.827 302.816 178.971 303.015 179.06 303.275C179.149 303.535 179.191 303.843 179.188 304.2H176.92L176.868 303.7H178.6L178.461 303.909C178.453 303.603 178.399 303.384 178.298 303.252C178.201 303.116 178.044 303.048 177.827 303.048C177.695 303.048 177.581 303.079 177.484 303.141C177.387 303.2 177.312 303.298 177.257 303.438C177.207 303.577 177.182 303.769 177.182 304.014C177.182 304.316 177.252 304.546 177.391 304.705C177.535 304.864 177.754 304.944 178.048 304.944C178.168 304.944 178.283 304.932 178.391 304.909C178.503 304.886 178.606 304.856 178.699 304.822C178.796 304.783 178.879 304.748 178.949 304.717V305.374C178.81 305.432 178.655 305.479 178.484 305.513C178.314 305.552 178.118 305.572 177.897 305.572Z" fill="#636363"/>
<g filter="url(#filter28_i)">
<path d="M108.973 302.736C111.736 302.736 113.974 300.498 113.974 297.734C113.974 294.971 111.736 292.733 108.973 292.733C106.21 292.733 103.972 294.971 103.972 297.734C103.972 300.498 106.21 302.736 108.973 302.736ZM108.973 305.236C105.635 305.236 98.9712 306.911 98.9712 310.237V312.738H118.976V310.237C118.976 306.911 112.312 305.236 108.973 305.236Z" fill="#A5B0B4"/>
</g>
<g filter="url(#filter29_d)">
<rect x="82.4673" y="333.991" width="123.026" height="47.26" rx="10.8773" fill="#F0F3F4"/>
</g>
<g filter="url(#filter30_dd)">
<rect x="147.73" y="344.868" width="45.3846" height="25.8805" rx="3.75079" fill="#F0F3F4"/>
</g>
<path d="M164.713 360.246V356.368H165.504V357.985H167.114V356.368H167.905V360.246H167.114V358.647H165.504V360.246H164.713ZM170.045 360.333C169.755 360.333 169.499 360.273 169.278 360.153C169.061 360.033 168.892 359.86 168.772 359.636C168.652 359.407 168.592 359.132 168.592 358.81C168.592 358.298 168.714 357.907 168.958 357.636C169.206 357.364 169.555 357.229 170.005 357.229C170.322 357.229 170.58 357.299 170.778 357.438C170.976 357.578 171.119 357.777 171.208 358.037C171.297 358.297 171.34 358.605 171.336 358.961H169.069L169.016 358.461H170.749L170.609 358.671C170.602 358.364 170.547 358.145 170.446 358.014C170.35 357.878 170.193 357.81 169.976 357.81C169.844 357.81 169.729 357.841 169.633 357.903C169.536 357.961 169.46 358.06 169.406 358.2C169.355 358.339 169.33 358.531 169.33 358.775C169.33 359.078 169.4 359.308 169.54 359.467C169.683 359.626 169.902 359.705 170.196 359.705C170.317 359.705 170.431 359.694 170.539 359.671C170.652 359.647 170.755 359.618 170.848 359.583C170.945 359.545 171.028 359.51 171.098 359.479V360.136C170.958 360.194 170.803 360.24 170.633 360.275C170.462 360.314 170.266 360.333 170.045 360.333ZM172.723 360.246H171.991V356.206H172.723V360.246ZM174.994 360.327C174.928 360.327 174.839 360.32 174.727 360.304C174.618 360.293 174.506 360.267 174.39 360.229C174.277 360.19 174.18 360.134 174.099 360.06L174.262 359.822V361.357H173.535V357.909C173.535 357.785 173.572 357.68 173.645 357.595C173.723 357.51 173.824 357.44 173.948 357.386C174.076 357.331 174.219 357.293 174.378 357.269C174.537 357.242 174.702 357.229 174.872 357.229C175.147 357.229 175.393 357.279 175.61 357.38C175.831 357.477 176.004 357.642 176.128 357.874C176.256 358.103 176.32 358.419 176.32 358.822C176.32 359.124 176.267 359.39 176.163 359.618C176.058 359.843 175.907 360.017 175.709 360.141C175.516 360.265 175.277 360.327 174.994 360.327ZM174.814 359.723C174.985 359.723 175.126 359.69 175.238 359.624C175.351 359.558 175.434 359.457 175.488 359.322C175.547 359.186 175.576 359.012 175.576 358.798C175.576 358.612 175.554 358.45 175.512 358.31C175.473 358.167 175.399 358.056 175.291 357.979C175.186 357.897 175.037 357.857 174.843 357.857C174.653 357.857 174.508 357.876 174.407 357.915C174.31 357.954 174.262 358.008 174.262 358.078V359.578C174.351 359.628 174.444 359.665 174.541 359.688C174.638 359.711 174.729 359.723 174.814 359.723Z" fill="#636363"/>
<g filter="url(#filter31_i)">
<path fill-rule="evenodd" clip-rule="evenodd" d="M101.119 348.582H117.914C119.67 348.582 121.099 350.011 121.099 351.767V362.045C121.099 363.802 119.67 365.231 117.914 365.231H107.81L101.108 369.895V365.23C99.3566 365.224 97.9341 363.798 97.9341 362.045V351.767C97.9341 350.011 99.3628 348.582 101.119 348.582ZM102.898 358.513C103.818 358.513 104.565 357.766 104.565 356.845C104.565 355.925 103.818 355.178 102.898 355.178C101.977 355.178 101.23 355.925 101.23 356.845C101.23 357.766 101.977 358.513 102.898 358.513ZM109.22 356.845C109.22 357.766 108.473 358.513 107.552 358.513C106.632 358.513 105.885 357.766 105.885 356.845C105.885 355.925 106.632 355.178 107.552 355.178C108.473 355.178 109.22 355.925 109.22 356.845ZM112.207 358.513C113.127 358.513 113.874 357.766 113.874 356.845C113.874 355.925 113.127 355.178 112.207 355.178C111.286 355.178 110.539 355.925 110.539 356.845C110.539 357.766 111.286 358.513 112.207 358.513Z" fill="#A5B0B4"/>
</g>
</g>
<defs>
<filter id="filter0_d" x="19.085" y="72.023" width="246.767" height="413.571" filterUnits="userSpaceOnUse" color-interpolation-filters="sRGB">
<feFlood flood-opacity="0" result="BackgroundImageFix"/>
<feColorMatrix in="SourceAlpha" type="matrix" values="0 0 0 0 0 0 0 0 0 0 0 0 0 0 0 0 0 0 127 0"/>
<feOffset dx="-1.51407" dy="22.711"/>
<feGaussianBlur stdDeviation="19.6829"/>
<feColorMatrix type="matrix" values="0 0 0 0 0 0 0 0 0 0 0 0 0 0 0 0 0 0 0.23 0"/>
<feBlend mode="normal" in2="BackgroundImageFix" result="effect1_dropShadow"/>
<feBlend mode="normal" in="SourceGraphic" in2="effect1_dropShadow" result="shape"/>
</filter>
<filter id="filter1_i" x="61.1714" y="88.6777" width="165.286" height="334.84" filterUnits="userSpaceOnUse" color-interpolation-filters="sRGB">
<feFlood flood-opacity="0" result="BackgroundImageFix"/>
<feBlend mode="normal" in="SourceGraphic" in2="BackgroundImageFix" result="shape"/>
<feColorMatrix in="SourceAlpha" type="matrix" values="0 0 0 0 0 0 0 0 0 0 0 0 0 0 0 0 0 0 127 0" result="hardAlpha"/>
<feOffset/>
<feGaussianBlur stdDeviation="0.500106"/>
<feComposite in2="hardAlpha" operator="arithmetic" k2="-1" k3="1"/>
<feColorMatrix type="matrix" values="0 0 0 0 0 0 0 0 0 0 0 0 0 0 0 0 0 0 0.5 0"/>
<feBlend mode="normal" in2="shape" result="effect1_innerShadow"/>
</filter>
<filter id="filter2_dd" x="65.3032" y="92.3104" width="157.281" height="327.057" filterUnits="userSpaceOnUse" color-interpolation-filters="sRGB">
<feFlood flood-opacity="0" result="BackgroundImageFix"/>
<feColorMatrix in="SourceAlpha" type="matrix" values="0 0 0 0 0 0 0 0 0 0 0 0 0 0 0 0 0 0 127 0"/>
<feOffset dy="0.500106"/>
<feColorMatrix type="matrix" values="0 0 0 0 0 0 0 0 0 0 0 0 0 0 0 0 0 0 0.5 0"/>
<feBlend mode="normal" in2="BackgroundImageFix" result="effect1_dropShadow"/>
<feColorMatrix in="SourceAlpha" type="matrix" values="0 0 0 0 0 0 0 0 0 0 0 0 0 0 0 0 0 0 127 0"/>
<feOffset dy="-0.500106"/>
<feColorMatrix type="matrix" values="0 0 0 0 0 0 0 0 0 0 0 0 0 0 0 0 0 0 0.5 0"/>
<feBlend mode="normal" in2="effect1_dropShadow" result="effect2_dropShadow"/>
<feBlend mode="normal" in="SourceGraphic" in2="effect2_dropShadow" result="shape"/>
</filter>
<filter id="filter3_i" x="65.561" y="95.1104" width="158.265" height="321.391" filterUnits="userSpaceOnUse" color-interpolation-filters="sRGB">
<feFlood flood-opacity="0" result="BackgroundImageFix"/>
<feBlend mode="normal" in="SourceGraphic" in2="BackgroundImageFix" result="shape"/>
<feColorMatrix in="SourceAlpha" type="matrix" values="0 0 0 0 0 0 0 0 0 0 0 0 0 0 0 0 0 0 127 0" result="hardAlpha"/>
<feOffset dx="1.50032"/>
<feGaussianBlur stdDeviation="1.06272"/>
<feComposite in2="hardAlpha" operator="arithmetic" k2="-1" k3="1"/>
<feColorMatrix type="matrix" values="0 0 0 0 0 0 0 0 0 0 0 0 0 0 0 0 0 0 0.6 0"/>
<feBlend mode="normal" in2="shape" result="effect1_innerShadow"/>
</filter>
<filter id="filter4_iii" x="59.9648" y="175.148" width="1.29131" height="24.5264" filterUnits="userSpaceOnUse" color-interpolation-filters="sRGB">
<feFlood flood-opacity="0" result="BackgroundImageFix"/>
<feBlend mode="normal" in="SourceGraphic" in2="BackgroundImageFix" result="shape"/>
<feColorMatrix in="SourceAlpha" type="matrix" values="0 0 0 0 0 0 0 0 0 0 0 0 0 0 0 0 0 0 127 0" result="hardAlpha"/>
<feOffset dx="0.500106"/>
<feComposite in2="hardAlpha" operator="arithmetic" k2="-1" k3="1"/>
<feColorMatrix type="matrix" values="0 0 0 0 1 0 0 0 0 1 0 0 0 0 1 0 0 0 0.644843 0"/>
<feBlend mode="normal" in2="shape" result="effect1_innerShadow"/>
<feColorMatrix in="SourceAlpha" type="matrix" values="0 0 0 0 0 0 0 0 0 0 0 0 0 0 0 0 0 0 127 0" result="hardAlpha"/>
<feOffset dy="1.00021"/>
<feGaussianBlur stdDeviation="0.250053"/>
<feComposite in2="hardAlpha" operator="arithmetic" k2="-1" k3="1"/>
<feColorMatrix type="matrix" values="0 0 0 0 0.384314 0 0 0 0 0.388235 0 0 0 0 0.388235 0 0 0 1 0"/>
<feBlend mode="normal" in2="effect1_innerShadow" result="effect2_innerShadow"/>
<feColorMatrix in="SourceAlpha" type="matrix" values="0 0 0 0 0 0 0 0 0 0 0 0 0 0 0 0 0 0 127 0" result="hardAlpha"/>
<feOffset dy="-1.00021"/>
<feGaussianBlur stdDeviation="0.250053"/>
<feComposite in2="hardAlpha" operator="arithmetic" k2="-1" k3="1"/>
<feColorMatrix type="matrix" values="0 0 0 0 0.384314 0 0 0 0 0.388235 0 0 0 0 0.388235 0 0 0 1 0"/>
<feBlend mode="normal" in2="effect2_innerShadow" result="effect3_innerShadow"/>
</filter>
<filter id="filter5_iii" x="59.9648" y="205.933" width="1.29131" height="24.5264" filterUnits="userSpaceOnUse" color-interpolation-filters="sRGB">
<feFlood flood-opacity="0" result="BackgroundImageFix"/>
<feBlend mode="normal" in="SourceGraphic" in2="BackgroundImageFix" result="shape"/>
<feColorMatrix in="SourceAlpha" type="matrix" values="0 0 0 0 0 0 0 0 0 0 0 0 0 0 0 0 0 0 127 0" result="hardAlpha"/>
<feOffset dx="0.500106"/>
<feComposite in2="hardAlpha" operator="arithmetic" k2="-1" k3="1"/>
<feColorMatrix type="matrix" values="0 0 0 0 1 0 0 0 0 1 0 0 0 0 1 0 0 0 0.644843 0"/>
<feBlend mode="normal" in2="shape" result="effect1_innerShadow"/>
<feColorMatrix in="SourceAlpha" type="matrix" values="0 0 0 0 0 0 0 0 0 0 0 0 0 0 0 0 0 0 127 0" result="hardAlpha"/>
<feOffset dy="1.00021"/>
<feGaussianBlur stdDeviation="0.250053"/>
<feComposite in2="hardAlpha" operator="arithmetic" k2="-1" k3="1"/>
<feColorMatrix type="matrix" values="0 0 0 0 0.384314 0 0 0 0 0.388235 0 0 0 0 0.388235 0 0 0 1 0"/>
<feBlend mode="normal" in2="effect1_innerShadow" result="effect2_innerShadow"/>
<feColorMatrix in="SourceAlpha" type="matrix" values="0 0 0 0 0 0 0 0 0 0 0 0 0 0 0 0 0 0 127 0" result="hardAlpha"/>
<feOffset dy="-1.00021"/>
<feGaussianBlur stdDeviation="0.250053"/>
<feComposite in2="hardAlpha" operator="arithmetic" k2="-1" k3="1"/>
<feColorMatrix type="matrix" values="0 0 0 0 0.384314 0 0 0 0 0.388235 0 0 0 0 0.388235 0 0 0 1 0"/>
<feBlend mode="normal" in2="effect2_innerShadow" result="effect3_innerShadow"/>
</filter>
<filter id="filter6_iii" x="59.9648" y="151.622" width="1.29131" height="13.7644" filterUnits="userSpaceOnUse" color-interpolation-filters="sRGB">
<feFlood flood-opacity="0" result="BackgroundImageFix"/>
<feBlend mode="normal" in="SourceGraphic" in2="BackgroundImageFix" result="shape"/>
<feColorMatrix in="SourceAlpha" type="matrix" values="0 0 0 0 0 0 0 0 0 0 0 0 0 0 0 0 0 0 127 0" result="hardAlpha"/>
<feOffset dx="0.500106"/>
<feComposite in2="hardAlpha" operator="arithmetic" k2="-1" k3="1"/>
<feColorMatrix type="matrix" values="0 0 0 0 1 0 0 0 0 1 0 0 0 0 1 0 0 0 0.644843 0"/>
<feBlend mode="normal" in2="shape" result="effect1_innerShadow"/>
<feColorMatrix in="SourceAlpha" type="matrix" values="0 0 0 0 0 0 0 0 0 0 0 0 0 0 0 0 0 0 127 0" result="hardAlpha"/>
<feOffset dy="1.00021"/>
<feGaussianBlur stdDeviation="0.250053"/>
<feComposite in2="hardAlpha" operator="arithmetic" k2="-1" k3="1"/>
<feColorMatrix type="matrix" values="0 0 0 0 0.384314 0 0 0 0 0.388235 0 0 0 0 0.388235 0 0 0 1 0"/>
<feBlend mode="normal" in2="effect1_innerShadow" result="effect2_innerShadow"/>
<feColorMatrix in="SourceAlpha" type="matrix" values="0 0 0 0 0 0 0 0 0 0 0 0 0 0 0 0 0 0 127 0" result="hardAlpha"/>
<feOffset dy="-1.00021"/>
<feGaussianBlur stdDeviation="0.250053"/>
<feComposite in2="hardAlpha" operator="arithmetic" k2="-1" k3="1"/>
<feColorMatrix type="matrix" values="0 0 0 0 0.384314 0 0 0 0 0.388235 0 0 0 0 0.388235 0 0 0 1 0"/>
<feBlend mode="normal" in2="effect2_innerShadow" result="effect3_innerShadow"/>
</filter>
<filter id="filter7_iii" x="226.709" y="187.787" width="1.29131" height="39.1678" filterUnits="userSpaceOnUse" color-interpolation-filters="sRGB">
<feFlood flood-opacity="0" result="BackgroundImageFix"/>
<feBlend mode="normal" in="SourceGraphic" in2="BackgroundImageFix" result="shape"/>
<feColorMatrix in="SourceAlpha" type="matrix" values="0 0 0 0 0 0 0 0 0 0 0 0 0 0 0 0 0 0 127 0" result="hardAlpha"/>
<feOffset dx="0.500106"/>
<feComposite in2="hardAlpha" operator="arithmetic" k2="-1" k3="1"/>
<feColorMatrix type="matrix" values="0 0 0 0 1 0 0 0 0 1 0 0 0 0 1 0 0 0 0.644843 0"/>
<feBlend mode="normal" in2="shape" result="effect1_innerShadow"/>
<feColorMatrix in="SourceAlpha" type="matrix" values="0 0 0 0 0 0 0 0 0 0 0 0 0 0 0 0 0 0 127 0" result="hardAlpha"/>
<feOffset dy="1.00021"/>
<feGaussianBlur stdDeviation="0.250053"/>
<feComposite in2="hardAlpha" operator="arithmetic" k2="-1" k3="1"/>
<feColorMatrix type="matrix" values="0 0 0 0 0.384314 0 0 0 0 0.388235 0 0 0 0 0.388235 0 0 0 1 0"/>
<feBlend mode="normal" in2="effect1_innerShadow" result="effect2_innerShadow"/>
<feColorMatrix in="SourceAlpha" type="matrix" values="0 0 0 0 0 0 0 0 0 0 0 0 0 0 0 0 0 0 127 0" result="hardAlpha"/>
<feOffset dy="-1.00021"/>
<feGaussianBlur stdDeviation="0.250053"/>
<feComposite in2="hardAlpha" operator="arithmetic" k2="-1" k3="1"/>
<feColorMatrix type="matrix" values="0 0 0 0 0.384314 0 0 0 0 0.388235 0 0 0 0 0.388235 0 0 0 1 0"/>
<feBlend mode="normal" in2="effect2_innerShadow" result="effect3_innerShadow"/>
</filter>
<filter id="filter8_i" x="160.105" y="100.784" width="2.39301" height="3.03532" filterUnits="userSpaceOnUse" color-interpolation-filters="sRGB">
<feFlood flood-opacity="0" result="BackgroundImageFix"/>
<feBlend mode="normal" in="SourceGraphic" in2="BackgroundImageFix" result="shape"/>
<feColorMatrix in="SourceAlpha" type="matrix" values="0 0 0 0 0 0 0 0 0 0 0 0 0 0 0 0 0 0 127 0" result="hardAlpha"/>
<feOffset dy="0.875185"/>
<feGaussianBlur stdDeviation="0.375079"/>
<feComposite in2="hardAlpha" operator="arithmetic" k2="-1" k3="1"/>
<feColorMatrix type="matrix" values="0 0 0 0 0 0 0 0 0 0 0 0 0 0 0 0 0 0 0.792969 0"/>
<feBlend mode="normal" in2="shape" result="effect1_innerShadow"/>
</filter>
<filter id="filter9_diiii" x="159.321" y="100.61" width="3.95834" height="3.85031" filterUnits="userSpaceOnUse" color-interpolation-filters="sRGB">
<feFlood flood-opacity="0" result="BackgroundImageFix"/>
<feColorMatrix in="SourceAlpha" type="matrix" values="0 0 0 0 0 0 0 0 0 0 0 0 0 0 0 0 0 0 127 0"/>
<feOffset dy="0.500106"/>
<feGaussianBlur stdDeviation="0.500106"/>
<feColorMatrix type="matrix" values="0 0 0 0 0 0 0 0 0 0 0 0 0 0 0 0 0 0 0.558707 0"/>
<feBlend mode="normal" in2="BackgroundImageFix" result="effect1_dropShadow"/>
<feBlend mode="normal" in="SourceGraphic" in2="effect1_dropShadow" result="shape"/>
<feColorMatrix in="SourceAlpha" type="matrix" values="0 0 0 0 0 0 0 0 0 0 0 0 0 0 0 0 0 0 127 0" result="hardAlpha"/>
<feOffset dy="0.750158"/>
<feGaussianBlur stdDeviation="0.875185"/>
<feComposite in2="hardAlpha" operator="arithmetic" k2="-1" k3="1"/>
<feColorMatrix type="matrix" values="0 0 0 0 0 0 0 0 0 0 0 0 0 0 0 0 0 0 0.5 0"/>
<feBlend mode="normal" in2="shape" result="effect2_innerShadow"/>
<feColorMatrix in="SourceAlpha" type="matrix" values="0 0 0 0 0 0 0 0 0 0 0 0 0 0 0 0 0 0 127 0" result="hardAlpha"/>
<feOffset/>
<feGaussianBlur stdDeviation="0.375079"/>
<feComposite in2="hardAlpha" operator="arithmetic" k2="-1" k3="1"/>
<feColorMatrix type="matrix" values="0 0 0 0 0.159339 0 0 0 0 0.154934 0 0 0 0 0.535213 0 0 0 0.68266 0"/>
<feBlend mode="normal" in2="effect2_innerShadow" result="effect3_innerShadow"/>
<feColorMatrix in="SourceAlpha" type="matrix" values="0 0 0 0 0 0 0 0 0 0 0 0 0 0 0 0 0 0 127 0" result="hardAlpha"/>
<feOffset dy="-0.250053"/>
<feGaussianBlur stdDeviation="0.250053"/>
<feComposite in2="hardAlpha" operator="arithmetic" k2="-1" k3="1"/>
<feColorMatrix type="matrix" values="0 0 0 0 1 0 0 0 0 1 0 0 0 0 1 0 0 0 0.28275 0"/>
<feBlend mode="normal" in2="effect3_innerShadow" result="effect4_innerShadow"/>
<feColorMatrix in="SourceAlpha" type="matrix" values="0 0 0 0 0 0 0 0 0 0 0 0 0 0 0 0 0 0 127 0" result="hardAlpha"/>
<feOffset dy="0.500106"/>
<feGaussianBlur stdDeviation="0.250053"/>
<feComposite in2="hardAlpha" operator="arithmetic" k2="-1" k3="1"/>
<feColorMatrix type="matrix" values="0 0 0 0 0.013651 0 0 0 0 0.102693 0 0 0 0 0.720731 0 0 0 0.609621 0"/>
<feBlend mode="normal" in2="effect4_innerShadow" result="effect5_innerShadow"/>
</filter>
<filter id="filter10_di" x="159.865" y="100.61" width="2.87061" height="2.21802" filterUnits="userSpaceOnUse" color-interpolation-filters="sRGB">
<feFlood flood-opacity="0" result="BackgroundImageFix"/>
<feColorMatrix in="SourceAlpha" type="matrix" values="0 0 0 0 0 0 0 0 0 0 0 0 0 0 0 0 0 0 127 0"/>
<feOffset dy="0.500106"/>
<feGaussianBlur stdDeviation="0.500106"/>
<feColorMatrix type="matrix" values="0 0 0 0 0 0 0 0 0 0 0 0 0 0 0 0 0 0 0.311736 0"/>
<feBlend mode="normal" in2="BackgroundImageFix" result="effect1_dropShadow"/>
<feBlend mode="normal" in="SourceGraphic" in2="effect1_dropShadow" result="shape"/>
<feColorMatrix in="SourceAlpha" type="matrix" values="0 0 0 0 0 0 0 0 0 0 0 0 0 0 0 0 0 0 127 0" result="hardAlpha"/>
<feOffset dy="0.250053"/>
<feGaussianBlur stdDeviation="0.250053"/>
<feComposite in2="hardAlpha" operator="arithmetic" k2="-1" k3="1"/>
<feColorMatrix type="matrix" values="0 0 0 0 1 0 0 0 0 1 0 0 0 0 1 0 0 0 0.5 0"/>
<feBlend mode="normal" in2="shape" result="effect2_innerShadow"/>
</filter>
<filter id="filter11_di" x="159.971" y="102.024" width="2.65306" height="2.21802" filterUnits="userSpaceOnUse" color-interpolation-filters="sRGB">
<feFlood flood-opacity="0" result="BackgroundImageFix"/>
<feColorMatrix in="SourceAlpha" type="matrix" values="0 0 0 0 0 0 0 0 0 0 0 0 0 0 0 0 0 0 127 0"/>
<feOffset dy="0.500106"/>
<feGaussianBlur stdDeviation="0.500106"/>
<feColorMatrix type="matrix" values="0 0 0 0 0 0 0 0 0 0 0 0 0 0 0 0 0 0 0.311736 0"/>
<feBlend mode="normal" in2="BackgroundImageFix" result="effect1_dropShadow"/>
<feBlend mode="normal" in="SourceGraphic" in2="effect1_dropShadow" result="shape"/>
<feColorMatrix in="SourceAlpha" type="matrix" values="0 0 0 0 0 0 0 0 0 0 0 0 0 0 0 0 0 0 127 0" result="hardAlpha"/>
<feOffset/>
<feGaussianBlur stdDeviation="0.250053"/>
<feComposite in2="hardAlpha" operator="arithmetic" k2="-1" k3="1"/>
<feColorMatrix type="matrix" values="0 0 0 0 1 0 0 0 0 1 0 0 0 0 1 0 0 0 0.5 0"/>
<feBlend mode="normal" in2="shape" result="effect2_innerShadow"/>
</filter>
<filter id="filter12_d" x="159.364" y="100.046" width="3.87082" height="3.76251" filterUnits="userSpaceOnUse" color-interpolation-filters="sRGB">
<feFlood flood-opacity="0" result="BackgroundImageFix"/>
<feColorMatrix in="SourceAlpha" type="matrix" values="0 0 0 0 0 0 0 0 0 0 0 0 0 0 0 0 0 0 127 0"/>
<feOffset/>
<feGaussianBlur stdDeviation="0.750158"/>
<feColorMatrix type="matrix" values="0 0 0 0 0 0 0 0 0 0 0 0 0 0 0 0 0 0 0.5 0"/>
<feBlend mode="normal" in2="BackgroundImageFix" result="effect1_dropShadow"/>
<feBlend mode="normal" in="SourceGraphic" in2="effect1_dropShadow" result="shape"/>
</filter>
<filter id="filter13_d" x="159.471" y="100.046" width="3.76205" height="3.76251" filterUnits="userSpaceOnUse" color-interpolation-filters="sRGB">
<feFlood flood-opacity="0" result="BackgroundImageFix"/>
<feColorMatrix in="SourceAlpha" type="matrix" values="0 0 0 0 0 0 0 0 0 0 0 0 0 0 0 0 0 0 127 0"/>
<feOffset/>
<feGaussianBlur stdDeviation="0.750158"/>
<feColorMatrix type="matrix" values="0 0 0 0 0 0 0 0 0 0 0 0 0 0 0 0 0 0 0.5 0"/>
<feBlend mode="normal" in2="BackgroundImageFix" result="effect1_dropShadow"/>
<feBlend mode="normal" in="SourceGraphic" in2="effect1_dropShadow" result="shape"/>
</filter>
<filter id="filter14_ii" x="160.972" y="101.654" width="0.65264" height="1.4032" filterUnits="userSpaceOnUse" color-interpolation-filters="sRGB">
<feFlood flood-opacity="0" result="BackgroundImageFix"/>
<feBlend mode="normal" in="SourceGraphic" in2="BackgroundImageFix" result="shape"/>
<feColorMatrix in="SourceAlpha" type="matrix" values="0 0 0 0 0 0 0 0 0 0 0 0 0 0 0 0 0 0 127 0" result="hardAlpha"/>
<feOffset dy="0.750158"/>
<feGaussianBlur stdDeviation="0.875185"/>
<feComposite in2="hardAlpha" operator="arithmetic" k2="-1" k3="1"/>
<feColorMatrix type="matrix" values="0 0 0 0 0 0 0 0 0 0 0 0 0 0 0 0 0 0 0.5 0"/>
<feBlend mode="normal" in2="shape" result="effect1_innerShadow"/>
<feColorMatrix in="SourceAlpha" type="matrix" values="0 0 0 0 0 0 0 0 0 0 0 0 0 0 0 0 0 0 127 0" result="hardAlpha"/>
<feOffset dy="0.500106"/>
<feGaussianBlur stdDeviation="0.250053"/>
<feComposite in2="hardAlpha" operator="arithmetic" k2="-1" k3="1"/>
<feColorMatrix type="matrix" values="0 0 0 0 0.176471 0 0 0 0 0.329412 0 0 0 0 0.317647 0 0 0 0.254642 0"/>
<feBlend mode="normal" in2="effect1_innerShadow" result="effect2_innerShadow"/>
</filter>
<filter id="filter15_f" x="159.748" y="100.757" width="3.10073" height="2.88329" filterUnits="userSpaceOnUse" color-interpolation-filters="sRGB">
<feFlood flood-opacity="0" result="BackgroundImageFix"/>
<feBlend mode="normal" in="SourceGraphic" in2="BackgroundImageFix" result="shape"/>
<feGaussianBlur stdDeviation="0.666464" result="effect1_foregroundBlur"/>
</filter>
<filter id="filter16_di" x="160.441" y="101.839" width="1.71858" height="1.60945" filterUnits="userSpaceOnUse" color-interpolation-filters="sRGB">
<feFlood flood-opacity="0" result="BackgroundImageFix"/>
<feColorMatrix in="SourceAlpha" type="matrix" values="0 0 0 0 0 0 0 0 0 0 0 0 0 0 0 0 0 0 127 0"/>
<feOffset dy="0.500106"/>
<feGaussianBlur stdDeviation="0.375079"/>
<feColorMatrix type="matrix" values="0 0 0 0 0 0 0 0 0 0 0 0 0 0 0 0 0 0 0.311736 0"/>
<feBlend mode="normal" in2="BackgroundImageFix" result="effect1_dropShadow"/>
<feBlend mode="normal" in="SourceGraphic" in2="effect1_dropShadow" result="shape"/>
<feColorMatrix in="SourceAlpha" type="matrix" values="0 0 0 0 0 0 0 0 0 0 0 0 0 0 0 0 0 0 127 0" result="hardAlpha"/>
<feOffset/>
<feGaussianBlur stdDeviation="0.250053"/>
<feComposite in2="hardAlpha" operator="arithmetic" k2="-1" k3="1"/>
<feColorMatrix type="matrix" values="0 0 0 0 1 0 0 0 0 1 0 0 0 0 1 0 0 0 0.5 0"/>
<feBlend mode="normal" in2="shape" result="effect2_innerShadow"/>
</filter>
<filter id="filter17_di" x="160.581" y="101.654" width="1.32637" height="1.21765" filterUnits="userSpaceOnUse" color-interpolation-filters="sRGB">
<feFlood flood-opacity="0" result="BackgroundImageFix"/>
<feColorMatrix in="SourceAlpha" type="matrix" values="0 0 0 0 0 0 0 0 0 0 0 0 0 0 0 0 0 0 127 0"/>
<feOffset dy="0.500106"/>
<feGaussianBlur stdDeviation="0.250053"/>
<feColorMatrix type="matrix" values="0 0 0 0 0 0 0 0 0 0 0 0 0 0 0 0 0 0 0.311736 0"/>
<feBlend mode="normal" in2="BackgroundImageFix" result="effect1_dropShadow"/>
<feBlend mode="normal" in="SourceGraphic" in2="effect1_dropShadow" result="shape"/>
<feColorMatrix in="SourceAlpha" type="matrix" values="0 0 0 0 0 0 0 0 0 0 0 0 0 0 0 0 0 0 127 0" result="hardAlpha"/>
<feOffset dy="0.250053"/>
<feGaussianBlur stdDeviation="0.250053"/>
<feComposite in2="hardAlpha" operator="arithmetic" k2="-1" k3="1"/>
<feColorMatrix type="matrix" values="0 0 0 0 1 0 0 0 0 1 0 0 0 0 1 0 0 0 0.5 0"/>
<feBlend mode="normal" in2="shape" result="effect2_innerShadow"/>
</filter>
<filter id="filter18_f" x="157.885" y="99.1113" width="6.7177" height="6.60903" filterUnits="userSpaceOnUse" color-interpolation-filters="sRGB">
<feFlood flood-opacity="0" result="BackgroundImageFix"/>
<feBlend mode="normal" in="SourceGraphic" in2="BackgroundImageFix" result="shape"/>
<feGaussianBlur stdDeviation="1.54346" result="effect1_foregroundBlur"/>
</filter>
<filter id="filter19_d" x="132.985" y="100.82" width="21.4153" height="3.65586" filterUnits="userSpaceOnUse" color-interpolation-filters="sRGB">
<feFlood flood-opacity="0" result="BackgroundImageFix"/>
<feColorMatrix in="SourceAlpha" type="matrix" values="0 0 0 0 0 0 0 0 0 0 0 0 0 0 0 0 0 0 127 0"/>
<feOffset dy="0.500106"/>
<feGaussianBlur stdDeviation="0.250053"/>
<feColorMatrix type="matrix" values="0 0 0 0 1 0 0 0 0 1 0 0 0 0 1 0 0 0 0.217589 0"/>
<feBlend mode="normal" in2="BackgroundImageFix" result="effect1_dropShadow"/>
<feBlend mode="normal" in="SourceGraphic" in2="effect1_dropShadow" result="shape"/>
</filter>
<filter id="filter20_d" x="68.2138" y="164.831" width="151.532" height="75.766" filterUnits="userSpaceOnUse" color-interpolation-filters="sRGB">
<feFlood flood-opacity="0" result="BackgroundImageFix"/>
<feColorMatrix in="SourceAlpha" type="matrix" values="0 0 0 0 0 0 0 0 0 0 0 0 0 0 0 0 0 0 127 0"/>
<feOffset dy="9.37698"/>
<feGaussianBlur stdDeviation="7.1265"/>
<feColorMatrix type="matrix" values="0 0 0 0 0 0 0 0 0 0 0 0 0 0 0 0 0 0 0.52 0"/>
<feBlend mode="normal" in2="BackgroundImageFix" result="effect1_dropShadow"/>
<feBlend mode="normal" in="SourceGraphic" in2="effect1_dropShadow" result="shape"/>
</filter>
<filter id="filter21_dd" x="142.853" y="176.083" width="54.3865" height="36.3827" filterUnits="userSpaceOnUse" color-interpolation-filters="sRGB">
<feFlood flood-opacity="0" result="BackgroundImageFix"/>
<feColorMatrix in="SourceAlpha" type="matrix" values="0 0 0 0 0 0 0 0 0 0 0 0 0 0 0 0 0 0 127 0"/>
<feMorphology radius="1.12524" operator="dilate" in="SourceAlpha" result="effect1_dropShadow"/>
<feOffset dx="-1.8754" dy="-1.50032"/>
<feGaussianBlur stdDeviation="0.937698"/>
<feColorMatrix type="matrix" values="0 0 0 0 1 0 0 0 0 1 0 0 0 0 1 0 0 0 1 0"/>
<feBlend mode="normal" in2="BackgroundImageFix" result="effect1_dropShadow"/>
<feColorMatrix in="SourceAlpha" type="matrix" values="0 0 0 0 0 0 0 0 0 0 0 0 0 0 0 0 0 0 127 0"/>
<feMorphology radius="0.750158" operator="dilate" in="SourceAlpha" result="effect2_dropShadow"/>
<feOffset dx="1.12524" dy="3.00063"/>
<feGaussianBlur stdDeviation="1.12524"/>
<feColorMatrix type="matrix" values="0 0 0 0 0 0 0 0 0 0 0 0 0 0 0 0 0 0 0.25 0"/>
<feBlend mode="normal" in2="effect1_dropShadow" result="effect2_dropShadow"/>
<feBlend mode="normal" in="SourceGraphic" in2="effect2_dropShadow" result="shape"/>
</filter>
<filter id="filter22_i" x="99.7197" y="182.835" width="21.38" height="22.5192" filterUnits="userSpaceOnUse" color-interpolation-filters="sRGB">
<feFlood flood-opacity="0" result="BackgroundImageFix"/>
<feBlend mode="normal" in="SourceGraphic" in2="BackgroundImageFix" result="shape"/>
<feColorMatrix in="SourceAlpha" type="matrix" values="0 0 0 0 0 0 0 0 0 0 0 0 0 0 0 0 0 0 127 0" result="hardAlpha"/>
<feOffset dy="1.14024"/>
<feGaussianBlur stdDeviation="0.57012"/>
<feComposite in2="hardAlpha" operator="arithmetic" k2="-1" k3="1"/>
<feColorMatrix type="matrix" values="0 0 0 0 0 0 0 0 0 0 0 0 0 0 0 0 0 0 0.25 0"/>
<feBlend mode="normal" in2="shape" result="effect1_innerShadow"/>
</filter>
<filter id="filter23_d" x="68.2143" y="219.593" width="151.532" height="75.766" filterUnits="userSpaceOnUse" color-interpolation-filters="sRGB">
<feFlood flood-opacity="0" result="BackgroundImageFix"/>
<feColorMatrix in="SourceAlpha" type="matrix" values="0 0 0 0 0 0 0 0 0 0 0 0 0 0 0 0 0 0 127 0"/>
<feOffset dy="9.37698"/>
<feGaussianBlur stdDeviation="7.1265"/>
<feColorMatrix type="matrix" values="0 0 0 0 0 0 0 0 0 0 0 0 0 0 0 0 0 0 0.52 0"/>
<feBlend mode="normal" in2="BackgroundImageFix" result="effect1_dropShadow"/>
<feBlend mode="normal" in="SourceGraphic" in2="effect1_dropShadow" result="shape"/>
</filter>
<filter id="filter24_dd" x="142.854" y="230.845" width="54.3865" height="36.3827" filterUnits="userSpaceOnUse" color-interpolation-filters="sRGB">
<feFlood flood-opacity="0" result="BackgroundImageFix"/>
<feColorMatrix in="SourceAlpha" type="matrix" values="0 0 0 0 0 0 0 0 0 0 0 0 0 0 0 0 0 0 127 0"/>
<feMorphology radius="1.12524" operator="dilate" in="SourceAlpha" result="effect1_dropShadow"/>
<feOffset dx="-1.8754" dy="-1.50032"/>
<feGaussianBlur stdDeviation="0.937698"/>
<feColorMatrix type="matrix" values="0 0 0 0 1 0 0 0 0 1 0 0 0 0 1 0 0 0 1 0"/>
<feBlend mode="normal" in2="BackgroundImageFix" result="effect1_dropShadow"/>
<feColorMatrix in="SourceAlpha" type="matrix" values="0 0 0 0 0 0 0 0 0 0 0 0 0 0 0 0 0 0 127 0"/>
<feMorphology radius="0.750158" operator="dilate" in="SourceAlpha" result="effect2_dropShadow"/>
<feOffset dx="1.12524" dy="3.00063"/>
<feGaussianBlur stdDeviation="1.12524"/>
<feColorMatrix type="matrix" values="0 0 0 0 0 0 0 0 0 0 0 0 0 0 0 0 0 0 0.25 0"/>
<feBlend mode="normal" in2="effect1_dropShadow" result="effect2_dropShadow"/>
<feBlend mode="normal" in="SourceGraphic" in2="effect2_dropShadow" result="shape"/>
</filter>
<filter id="filter25_i" x="99.7197" y="238.347" width="19.8803" height="21.2502" filterUnits="userSpaceOnUse" color-interpolation-filters="sRGB">
<feFlood flood-opacity="0" result="BackgroundImageFix"/>
<feBlend mode="normal" in="SourceGraphic" in2="BackgroundImageFix" result="shape"/>
<feColorMatrix in="SourceAlpha" type="matrix" values="0 0 0 0 0 0 0 0 0 0 0 0 0 0 0 0 0 0 127 0" result="hardAlpha"/>
<feOffset dy="1.37096"/>
<feGaussianBlur stdDeviation="0.685479"/>
<feComposite in2="hardAlpha" operator="arithmetic" k2="-1" k3="1"/>
<feColorMatrix type="matrix" values="0 0 0 0 0 0 0 0 0 0 0 0 0 0 0 0 0 0 0.25 0"/>
<feBlend mode="normal" in2="shape" result="effect1_innerShadow"/>
</filter>
<filter id="filter26_d" x="68.2143" y="274.353" width="151.532" height="75.766" filterUnits="userSpaceOnUse" color-interpolation-filters="sRGB">
<feFlood flood-opacity="0" result="BackgroundImageFix"/>
<feColorMatrix in="SourceAlpha" type="matrix" values="0 0 0 0 0 0 0 0 0 0 0 0 0 0 0 0 0 0 127 0"/>
<feOffset dy="9.37698"/>
<feGaussianBlur stdDeviation="7.1265"/>
<feColorMatrix type="matrix" values="0 0 0 0 0 0 0 0 0 0 0 0 0 0 0 0 0 0 0.52 0"/>
<feBlend mode="normal" in2="BackgroundImageFix" result="effect1_dropShadow"/>
<feBlend mode="normal" in="SourceGraphic" in2="effect1_dropShadow" result="shape"/>
</filter>
<filter id="filter27_dd" x="142.854" y="285.605" width="54.3865" height="36.3827" filterUnits="userSpaceOnUse" color-interpolation-filters="sRGB">
<feFlood flood-opacity="0" result="BackgroundImageFix"/>
<feColorMatrix in="SourceAlpha" type="matrix" values="0 0 0 0 0 0 0 0 0 0 0 0 0 0 0 0 0 0 127 0"/>
<feMorphology radius="1.12524" operator="dilate" in="SourceAlpha" result="effect1_dropShadow"/>
<feOffset dx="-1.8754" dy="-1.50032"/>
<feGaussianBlur stdDeviation="0.937698"/>
<feColorMatrix type="matrix" values="0 0 0 0 1 0 0 0 0 1 0 0 0 0 1 0 0 0 1 0"/>
<feBlend mode="normal" in2="BackgroundImageFix" result="effect1_dropShadow"/>
<feColorMatrix in="SourceAlpha" type="matrix" values="0 0 0 0 0 0 0 0 0 0 0 0 0 0 0 0 0 0 127 0"/>
<feMorphology radius="0.750158" operator="dilate" in="SourceAlpha" result="effect2_dropShadow"/>
<feOffset dx="1.12524" dy="3.00063"/>
<feGaussianBlur stdDeviation="1.12524"/>
<feColorMatrix type="matrix" values="0 0 0 0 0 0 0 0 0 0 0 0 0 0 0 0 0 0 0.25 0"/>
<feBlend mode="normal" in2="effect1_dropShadow" result="effect2_dropShadow"/>
<feBlend mode="normal" in="SourceGraphic" in2="effect2_dropShadow" result="shape"/>
</filter>
<filter id="filter28_i" x="98.9712" y="292.733" width="20.0043" height="21.3246" filterUnits="userSpaceOnUse" color-interpolation-filters="sRGB">
<feFlood flood-opacity="0" result="BackgroundImageFix"/>
<feBlend mode="normal" in="SourceGraphic" in2="BackgroundImageFix" result="shape"/>
<feColorMatrix in="SourceAlpha" type="matrix" values="0 0 0 0 0 0 0 0 0 0 0 0 0 0 0 0 0 0 127 0" result="hardAlpha"/>
<feOffset dy="1.32028"/>
<feGaussianBlur stdDeviation="0.660139"/>
<feComposite in2="hardAlpha" operator="arithmetic" k2="-1" k3="1"/>
<feColorMatrix type="matrix" values="0 0 0 0 0 0 0 0 0 0 0 0 0 0 0 0 0 0 0.25 0"/>
<feBlend mode="normal" in2="shape" result="effect1_innerShadow"/>
</filter>
<filter id="filter29_d" x="68.2143" y="329.115" width="151.532" height="75.766" filterUnits="userSpaceOnUse" color-interpolation-filters="sRGB">
<feFlood flood-opacity="0" result="BackgroundImageFix"/>
<feColorMatrix in="SourceAlpha" type="matrix" values="0 0 0 0 0 0 0 0 0 0 0 0 0 0 0 0 0 0 127 0"/>
<feOffset dy="9.37698"/>
<feGaussianBlur stdDeviation="7.1265"/>
<feColorMatrix type="matrix" values="0 0 0 0 0 0 0 0 0 0 0 0 0 0 0 0 0 0 0.52 0"/>
<feBlend mode="normal" in2="BackgroundImageFix" result="effect1_dropShadow"/>
<feBlend mode="normal" in="SourceGraphic" in2="effect1_dropShadow" result="shape"/>
</filter>
<filter id="filter30_dd" x="142.854" y="340.367" width="54.3865" height="36.3827" filterUnits="userSpaceOnUse" color-interpolation-filters="sRGB">
<feFlood flood-opacity="0" result="BackgroundImageFix"/>
<feColorMatrix in="SourceAlpha" type="matrix" values="0 0 0 0 0 0 0 0 0 0 0 0 0 0 0 0 0 0 127 0"/>
<feMorphology radius="1.12524" operator="dilate" in="SourceAlpha" result="effect1_dropShadow"/>
<feOffset dx="-1.8754" dy="-1.50032"/>
<feGaussianBlur stdDeviation="0.937698"/>
<feColorMatrix type="matrix" values="0 0 0 0 1 0 0 0 0 1 0 0 0 0 1 0 0 0 1 0"/>
<feBlend mode="normal" in2="BackgroundImageFix" result="effect1_dropShadow"/>
<feColorMatrix in="SourceAlpha" type="matrix" values="0 0 0 0 0 0 0 0 0 0 0 0 0 0 0 0 0 0 127 0"/>
<feMorphology radius="0.750158" operator="dilate" in="SourceAlpha" result="effect2_dropShadow"/>
<feOffset dx="1.12524" dy="3.00063"/>
<feGaussianBlur stdDeviation="1.12524"/>
<feColorMatrix type="matrix" values="0 0 0 0 0 0 0 0 0 0 0 0 0 0 0 0 0 0 0.25 0"/>
<feBlend mode="normal" in2="effect1_dropShadow" result="effect2_dropShadow"/>
<feBlend mode="normal" in="SourceGraphic" in2="effect2_dropShadow" result="shape"/>
</filter>
<filter id="filter31_i" x="97.9341" y="348.582" width="23.1651" height="22.6318" filterUnits="userSpaceOnUse" color-interpolation-filters="sRGB">
<feFlood flood-opacity="0" result="BackgroundImageFix"/>
<feBlend mode="normal" in="SourceGraphic" in2="BackgroundImageFix" result="shape"/>
<feColorMatrix in="SourceAlpha" type="matrix" values="0 0 0 0 0 0 0 0 0 0 0 0 0 0 0 0 0 0 127 0" result="hardAlpha"/>
<feOffset dy="1.31921"/>
<feGaussianBlur stdDeviation="0.659603"/>
<feComposite in2="hardAlpha" operator="arithmetic" k2="-1" k3="1"/>
<feColorMatrix type="matrix" values="0 0 0 0 0 0 0 0 0 0 0 0 0 0 0 0 0 0 0.25 0"/>
<feBlend mode="normal" in2="shape" result="effect1_innerShadow"/>
</filter>
<linearGradient id="paint0_linear" x1="63.7532" y1="91.2607" x2="63.7532" y2="420.935" gradientUnits="userSpaceOnUse">
<stop stop-color="#5F5F5F"/>
<stop offset="0.0101238" stop-color="#222222"/>
<stop offset="1" stop-color="#252525"/>
</linearGradient>
<linearGradient id="paint1_linear" x1="65.3032" y1="92.8105" x2="65.3032" y2="418.867" gradientUnits="userSpaceOnUse">
<stop stop-color="#6D6D6D"/>
<stop offset="0.0161168"/>
<stop offset="0.984697"/>
<stop offset="1" stop-color="#5C5C5C"/>
</linearGradient>
<linearGradient id="paint2_linear" x1="163.643" y1="104.434" x2="163.643" y2="99.7832" gradientUnits="userSpaceOnUse">
<stop stop-color="#1F1F1F"/>
<stop offset="1" stop-color="#0F0F0F"/>
</linearGradient>
<radialGradient id="paint3_radial" cx="0" cy="0" r="1" gradientUnits="userSpaceOnUse" gradientTransform="translate(160.874 102.893) rotate(104.437) scale(1.7838 1.55891)">
<stop stop-color="#154882"/>
<stop offset="1"/>
</radialGradient>
<radialGradient id="paint4_radial" cx="0" cy="0" r="1" gradientUnits="userSpaceOnUse" gradientTransform="translate(161.3 101.386) rotate(90) scale(1.68223 2.91119)">
<stop stop-color="#376CAB"/>
<stop offset="0.377337" stop-color="#151515"/>
<stop offset="0.536693"/>
<stop offset="1" stop-color="#0D7BB9"/>
</radialGradient>
<radialGradient id="paint5_radial" cx="0" cy="0" r="1" gradientUnits="userSpaceOnUse" gradientTransform="translate(161.3 101.649) rotate(90) scale(0.438345 0.438007)">
<stop stop-color="#694B8D"/>
<stop offset="1" stop-opacity="0.01"/>
</radialGradient>
<radialGradient id="paint6_radial" cx="0" cy="0" r="1" gradientUnits="userSpaceOnUse" gradientTransform="translate(161.842 102.629) rotate(90) scale(0.438345 0.438007)">
<stop stop-color="#80C2C8"/>
<stop offset="1" stop-opacity="0.01"/>
</radialGradient>
<radialGradient id="paint7_radial" cx="0" cy="0" r="1" gradientUnits="userSpaceOnUse" gradientTransform="translate(161.298 101.737) rotate(90) scale(0.679208 1.17017)">
<stop stop-color="#61737F"/>
<stop offset="0.387832"/>
<stop offset="1" stop-color="#227EB1"/>
</radialGradient>
<radialGradient id="paint8_radial" cx="0" cy="0" r="1" gradientUnits="userSpaceOnUse" gradientTransform="translate(161.155 102.31) rotate(90) scale(0.712047 0.71176)">
<stop stop-color="white"/>
<stop offset="1" stop-opacity="0.01"/>
</radialGradient>
<linearGradient id="paint9_linear" x1="144.103" y1="98.4414" x2="144.103" y2="412.637" gradientUnits="userSpaceOnUse">
<stop stop-color="#002196"/>
<stop offset="1" stop-color="#000F46"/>
</linearGradient>
<linearGradient id="paint10_linear" x1="211.511" y1="246.195" x2="126.067" y2="106.191" gradientUnits="userSpaceOnUse">
<stop stop-color="#62A1FF"/>
<stop offset="1" stop-color="#0400C6"/>
</linearGradient>
<linearGradient id="paint11_linear" x1="56.0263" y1="419.133" x2="137.268" y2="210.228" gradientUnits="userSpaceOnUse">
<stop offset="0.0677083" stop-color="#05A8DB"/>
<stop offset="0.460465" stop-color="#FFE81E"/>
<stop offset="0.962666" stop-color="#FFA800"/>
</linearGradient>
</defs>
</svg>
