<svg width="4424" height="2256" viewBox="0 0 4424 2256" fill="none" xmlns="http://www.w3.org/2000/svg">
<g clip-path="url(#clip0)">
<rect x="235" y="-10" width="2442.14" height="2275.48" fill="#818181"/>
<rect x="235" y="-10" width="2442.14" height="166.663" fill="#E9E9E9"/>
<rect x="1721.52" y="1590.77" width="620.952" height="424.175" fill="#FCFCFC"/>
<line y1="-1.32682" x2="751.354" y2="-1.32682" transform="matrix(0.824903 0.565274 -0.609138 0.793064 1721.52 1590.77)" stroke="black" stroke-width="2.65364"/>
<line y1="-1.32682" x2="751.776" y2="-1.32682" transform="matrix(-0.825618 0.56423 0.610178 0.792265 2342.2 1590.77)" stroke="black" stroke-width="2.65364"/>
<path d="M1968.32 1733.95H1997.82V1739.66H1974.88V1753.11H1992.24V1758.63H1974.88V1773.85H1997.82V1779.63H1968.32V1733.95ZM2007.57 1733.98H2018.66C2026.14 1733.98 2032.07 1735.83 2036.44 1739.53C2041.17 1743.49 2043.53 1749.26 2043.53 1756.85C2043.53 1764.45 2041.23 1770.21 2036.64 1774.15C2032.35 1777.8 2026.47 1779.63 2018.99 1779.63H2007.57V1733.98ZM2036.8 1756.89C2036.8 1745.14 2030.61 1739.27 2018.23 1739.27H2014.13V1774.38H2018.59C2028.04 1774.38 2033.8 1770.96 2035.85 1764.14C2036.49 1761.97 2036.8 1759.56 2036.8 1756.89ZM2052.46 1733.95H2059.02V1779.63H2052.46V1733.95ZM2080.38 1739.73H2066.63V1733.95H2100.69V1739.73H2086.94V1779.63H2080.38V1739.73Z" fill="black"/>
<rect x="1721.52" y="1080.03" width="622.296" height="425.012" fill="#FCFCFC"/>
<line y1="-0.981539" x2="752.934" y2="-0.981539" transform="matrix(0.824953 0.565201 -0.60921 0.793009 1721.52 1080.03)" stroke="black" stroke-width="1.96308"/>
<line y1="-0.981539" x2="753.357" y2="-0.981539" transform="matrix(-0.825667 0.564157 0.61025 0.792209 2343.54 1080.03)" stroke="black" stroke-width="1.96308"/>
<path d="M1907.69 1285.59C1906.2 1286.64 1904.29 1287.46 1901.96 1288.07C1899.63 1288.66 1896.77 1288.96 1893.39 1288.96C1890.03 1288.96 1886.64 1288.76 1883.21 1288.36V1282.25C1886.28 1282.94 1889.37 1283.29 1892.48 1283.29C1895.58 1283.29 1897.91 1283.12 1899.47 1282.78C1901.02 1282.42 1902.27 1281.96 1903.22 1281.4C1904.96 1280.35 1905.83 1278.98 1905.83 1277.3C1905.83 1276 1905.5 1274.99 1904.82 1274.28C1903.75 1273.16 1902.21 1272.14 1900.19 1271.22L1892.13 1267.53C1889.36 1266.23 1887.39 1265.03 1886.24 1263.91C1883.76 1261.52 1882.52 1258.75 1882.52 1255.6C1882.52 1252.36 1883.93 1249.75 1886.74 1247.75C1889.83 1245.57 1894.22 1244.48 1899.91 1244.48C1903.59 1244.48 1906.95 1244.62 1909.99 1244.92V1250.93C1907.41 1250.35 1904.52 1250.05 1901.33 1250.05C1898.16 1250.05 1895.85 1250.22 1894.4 1250.56C1892.97 1250.87 1891.85 1251.28 1891.03 1251.78C1889.54 1252.71 1888.79 1253.93 1888.79 1255.44C1888.79 1256.91 1889.26 1258.13 1890.21 1259.09C1891.05 1259.91 1892.58 1260.86 1894.81 1261.93L1903.09 1265.87C1905.84 1267.17 1907.76 1268.4 1908.86 1269.55C1909.97 1270.71 1910.79 1271.87 1911.31 1273.05C1911.84 1274.2 1912.1 1275.6 1912.1 1277.24C1912.1 1278.85 1911.74 1280.39 1911.03 1281.84C1910.32 1283.26 1909.2 1284.51 1907.69 1285.59ZM1934.88 1244.79H1939.19L1957.68 1288.64H1951.13L1946.69 1277.62H1927.22L1922.81 1288.64H1916.39L1934.88 1244.79ZM1944.67 1272.57L1936.99 1253.36L1929.27 1272.57H1944.67ZM1957.18 1244.79H1963.73L1977.5 1280.83L1991.2 1244.79H1997.75L1980.49 1288.64H1974.44L1957.18 1244.79ZM2001.28 1244.79H2007.58V1288.64H2001.28V1244.79ZM2017.31 1244.79H2021.85L2044.75 1277.14L2044.41 1272.61V1244.79H2050.64V1288.64H2046.14L2027.02 1261.77L2023.21 1256.29L2023.55 1261.77V1288.64H2017.31V1244.79ZM2093.26 1288.2C2090.85 1288.83 2087.66 1289.14 2083.69 1289.14C2079.74 1289.14 2076.35 1288.65 2073.51 1287.66C2070.7 1286.68 2068.27 1285.22 2066.24 1283.29C2061.87 1279.21 2059.68 1273.54 2059.68 1266.27C2059.68 1261.53 2060.82 1257.43 2063.09 1253.99C2066.15 1249.31 2070.87 1246.32 2077.23 1245.04C2079.18 1244.66 2081.58 1244.48 2084.41 1244.48C2087.25 1244.48 2089.69 1244.61 2091.75 1244.89V1250.93C2089.95 1250.47 2087.36 1250.24 2084 1250.24C2080.66 1250.24 2077.92 1250.62 2075.78 1251.37C2073.64 1252.13 2071.86 1253.21 2070.46 1254.62C2067.64 1257.37 2066.24 1261.26 2066.24 1266.27C2066.24 1271.38 2067.62 1275.46 2070.39 1278.53C2073.42 1281.87 2077.73 1283.54 2083.34 1283.54C2084.64 1283.54 2085.85 1283.48 2086.96 1283.38V1267.22H2093.26V1288.2ZM2128.39 1285.59C2126.9 1286.64 2124.99 1287.46 2122.66 1288.07C2120.32 1288.66 2117.47 1288.96 2114.09 1288.96C2110.73 1288.96 2107.33 1288.76 2103.91 1288.36V1282.25C2106.98 1282.94 2110.07 1283.29 2113.17 1283.29C2116.28 1283.29 2118.61 1283.12 2120.17 1282.78C2121.72 1282.42 2122.97 1281.96 2123.92 1281.4C2125.66 1280.35 2126.53 1278.98 2126.53 1277.3C2126.53 1276 2126.19 1274.99 2125.52 1274.28C2124.45 1273.16 2122.91 1272.14 2120.89 1271.22L2112.83 1267.53C2110.05 1266.23 2108.09 1265.03 2106.94 1263.91C2104.46 1261.52 2103.22 1258.75 2103.22 1255.6C2103.22 1252.36 2104.63 1249.75 2107.44 1247.75C2110.53 1245.57 2114.92 1244.48 2120.61 1244.48C2124.28 1244.48 2127.64 1244.62 2130.69 1244.92V1250.93C2128.1 1250.35 2125.22 1250.05 2122.03 1250.05C2118.85 1250.05 2116.54 1250.22 2115.09 1250.56C2113.67 1250.87 2112.54 1251.28 2111.72 1251.78C2110.23 1252.71 2109.49 1253.93 2109.49 1255.44C2109.49 1256.91 2109.96 1258.13 2110.91 1259.09C2111.75 1259.91 2113.28 1260.86 2115.5 1261.93L2123.79 1265.87C2126.54 1267.17 2128.46 1268.4 2129.55 1269.55C2130.67 1270.71 2131.49 1271.87 2132.01 1273.05C2132.54 1274.2 2132.8 1275.6 2132.8 1277.24C2132.8 1278.85 2132.44 1280.39 2131.73 1281.84C2131.01 1283.26 2129.9 1284.51 2128.39 1285.59ZM2173.06 1254.46L2161.75 1262.18V1255.82L2175.83 1245.8H2179.33V1288.64H2173.06V1254.46Z" fill="black"/>
<rect x="1721.52" y="589.449" width="621.816" height="424.685" fill="#FCFCFC"/>
<line y1="-0.980783" x2="752.354" y2="-0.980783" transform="matrix(0.824953 0.565201 -0.60921 0.793009 1721.52 589.449)" stroke="black" stroke-width="1.96157"/>
<line y1="-0.980783" x2="752.777" y2="-0.980783" transform="matrix(-0.825667 0.564158 0.61025 0.792209 2343.07 589.448)" stroke="black" stroke-width="1.96157"/>
<path d="M1876.31 716.499H1888.75C1897.05 716.499 1902.39 718.956 1904.79 723.87C1905.65 725.676 1906.08 727.818 1906.08 730.296C1906.08 732.775 1905.64 734.896 1904.76 736.66C1903.87 738.424 1902.69 739.873 1901.2 741.007C1898.3 743.191 1894.42 744.283 1889.57 744.283H1882.61V760.349H1876.31V716.499ZM1888.34 739.243C1892.14 739.243 1894.96 738.508 1896.79 737.038C1898.61 735.568 1899.53 733.279 1899.53 730.17C1899.53 726.033 1897.6 723.366 1893.76 722.169C1892.42 721.749 1890.79 721.539 1888.88 721.539H1882.61V739.243H1888.34ZM1927.97 716.499H1932.29L1950.78 760.349H1944.23L1939.78 749.323H1920.32L1915.91 760.349H1909.48L1927.97 716.499ZM1937.77 744.283L1930.08 725.067L1922.36 744.283H1937.77ZM1967.32 741.259L1951.66 716.499H1958.47L1970.69 736.093L1982.66 716.499H1989.46L1973.87 741.196V760.349H1967.32V741.259ZM1994.03 716.499H1998.06L2013.69 734.455L2029.25 716.499H2033.28V760.349H2026.98V726.957L2025.12 729.477L2013.69 742.802L2002.25 729.509L2000.33 726.989V760.349H1994.03V716.499ZM2042.7 716.499H2071.02V721.98H2049V734.896H2065.66V740.188H2049V754.804H2071.02V760.349H2042.7V716.499ZM2080.34 716.499H2084.88L2107.78 748.851L2107.43 744.315V716.499H2113.67V760.349H2109.17L2090.05 733.478L2086.23 727.997L2086.58 733.478V760.349H2080.34V716.499ZM2134.15 722.043H2120.95V716.499H2153.65V722.043H2140.45V760.349H2134.15V722.043ZM2186.06 757.293C2184.57 758.343 2182.66 759.173 2180.33 759.782C2178 760.37 2175.14 760.664 2171.76 760.664C2168.4 760.664 2165.01 760.464 2161.59 760.065V753.954C2164.65 754.647 2167.74 754.993 2170.85 754.993C2173.95 754.993 2176.29 754.825 2177.84 754.489C2179.39 754.132 2180.64 753.67 2181.59 753.103C2183.33 752.053 2184.2 750.688 2184.2 749.008C2184.2 747.706 2183.87 746.698 2183.19 745.984C2182.12 744.871 2180.58 743.852 2178.56 742.928L2170.5 739.243C2167.73 737.941 2165.76 736.733 2164.61 735.62C2162.13 733.226 2160.89 730.454 2160.89 727.304C2160.89 724.07 2162.3 721.455 2165.11 719.46C2168.2 717.276 2172.59 716.184 2178.28 716.184C2181.96 716.184 2185.32 716.331 2188.36 716.625V722.642C2185.78 722.054 2182.89 721.76 2179.7 721.76C2176.53 721.76 2174.22 721.928 2172.77 722.264C2171.34 722.579 2170.22 722.988 2169.4 723.492C2167.91 724.416 2167.16 725.634 2167.16 727.146C2167.16 728.616 2167.63 729.834 2168.58 730.8C2169.42 731.62 2170.95 732.565 2173.18 733.636L2181.46 737.573C2184.21 738.875 2186.14 740.104 2187.23 741.259C2188.34 742.414 2189.16 743.579 2189.68 744.756C2190.21 745.911 2190.47 747.307 2190.47 748.945C2190.47 750.562 2190.11 752.095 2189.4 753.544C2188.69 754.972 2187.57 756.222 2186.06 757.293Z" fill="black"/>
<rect x="1867.66" y="898.684" width="329.543" height="92.1936" fill="#FCFCFC" stroke="black" stroke-width="1.96157"/>
<path d="M1926.32 961.873C1925.05 962.767 1923.43 963.473 1921.44 963.992C1919.46 964.492 1917.02 964.743 1914.15 964.743C1911.29 964.743 1908.4 964.573 1905.48 964.233V959.03C1908.09 959.62 1910.72 959.916 1913.37 959.916C1916.01 959.916 1918 959.772 1919.32 959.486C1920.64 959.182 1921.71 958.789 1922.51 958.306C1924 957.412 1924.74 956.25 1924.74 954.82C1924.74 953.712 1924.45 952.853 1923.88 952.245C1922.97 951.298 1921.66 950.431 1919.94 949.644L1913.07 946.506C1910.71 945.398 1909.04 944.37 1908.06 943.422C1905.95 941.384 1904.89 939.024 1904.89 936.342C1904.89 933.589 1906.09 931.363 1908.49 929.664C1911.12 927.805 1914.85 926.875 1919.7 926.875C1922.83 926.875 1925.69 927.001 1928.28 927.251V932.373C1926.08 931.873 1923.62 931.622 1920.9 931.622C1918.2 931.622 1916.24 931.765 1915 932.051C1913.79 932.319 1912.83 932.668 1912.13 933.097C1910.87 933.884 1910.23 934.921 1910.23 936.208C1910.23 937.46 1910.63 938.497 1911.44 939.319C1912.15 940.016 1913.46 940.821 1915.35 941.733L1922.41 945.085C1924.75 946.193 1926.38 947.239 1927.31 948.223C1928.26 949.206 1928.96 950.198 1929.41 951.2C1929.85 952.183 1930.08 953.372 1930.08 954.766C1930.08 956.143 1929.77 957.448 1929.16 958.682C1928.56 959.898 1927.61 960.961 1926.32 961.873ZM1937.13 927.144H1961.24V931.81H1942.49V942.805H1956.68V947.311H1942.49V959.755H1961.24V964.475H1937.13V927.144ZM1969.2 927.144H1993.31V931.81H1974.57V942.805H1988.75V947.311H1974.57V959.755H1993.31V964.475H1969.2V927.144ZM2019.33 927.144H2022.76L2036.06 942.43L2049.31 927.144H2052.74V964.475H2047.38V936.047L2045.8 938.193L2036.06 949.537L2026.33 938.22L2024.69 936.074V964.475H2019.33V927.144ZM2059.55 945.863C2059.55 942.948 2059.99 940.311 2060.87 937.951C2061.74 935.591 2062.96 933.58 2064.52 931.917C2067.79 928.449 2072.03 926.714 2077.25 926.714C2082.49 926.714 2086.73 928.449 2089.97 931.917C2093.26 935.439 2094.9 940.088 2094.9 945.863C2094.9 951.638 2093.26 956.268 2089.97 959.755C2086.75 963.187 2082.51 964.904 2077.25 964.904C2072.02 964.904 2067.77 963.187 2064.52 959.755C2061.21 956.25 2059.55 951.62 2059.55 945.863ZM2064.92 945.836C2064.92 949.912 2065.91 953.282 2067.9 955.946C2070.13 958.914 2073.25 960.398 2077.25 960.398C2081.26 960.398 2084.37 958.914 2086.59 955.946C2088.55 953.318 2089.54 949.966 2089.54 945.89C2089.54 941.777 2088.55 938.389 2086.59 935.725C2084.37 932.722 2081.26 931.22 2077.25 931.22C2073.23 931.22 2070.11 932.722 2067.9 935.725C2065.91 938.389 2064.92 941.76 2064.92 945.836ZM2102.38 927.144H2112.98C2120.04 927.144 2124.59 929.235 2126.63 933.419C2127.36 934.957 2127.73 936.691 2127.73 938.622C2127.73 940.535 2127.47 942.153 2126.95 943.476C2126.45 944.799 2125.74 945.934 2124.83 946.882C2123.08 948.705 2120.66 949.903 2117.59 950.475C2118.86 954.391 2121.01 957.091 2124.05 958.575C2125.05 959.075 2125.89 959.343 2126.57 959.379C2127.72 959.415 2128.52 959.379 2128.99 959.272V964.475H2127.78C2123.76 964.475 2120.33 963.044 2117.51 960.184C2115.02 957.699 2113.35 954.57 2112.49 950.797H2107.75V964.475H2102.38V927.144ZM2112.63 946.506C2115.86 946.506 2118.26 945.881 2119.82 944.629C2121.37 943.378 2122.15 941.429 2122.15 938.783C2122.15 935.261 2120.51 932.99 2117.24 931.971C2116.1 931.613 2114.71 931.434 2113.08 931.434H2107.75V946.506H2112.63ZM2134.03 927.144H2158.14V931.81H2139.39V942.805H2153.58V947.311H2139.39V959.755H2158.14V964.475H2134.03V927.144Z" fill="black"/>
<path d="M448.607 324.101H458.038V350.037H489.067V324.101H498.498V389.742H489.067V358.336H458.038V389.742H448.607V324.101ZM513.022 324.101H555.415V332.306H522.453V351.64H547.399V359.562H522.453V381.443H555.415V389.742H513.022V324.101ZM569.421 324.101H578.852V381.443H606.957V389.742H569.421V324.101ZM617.803 324.101H627.234V381.443H655.339V389.742H617.803V324.101ZM664.063 357.016C664.063 351.891 664.833 347.254 666.374 343.105C667.914 338.955 670.052 335.418 672.787 332.495C678.54 326.396 686.007 323.346 695.186 323.346C704.397 323.346 711.848 326.396 717.538 332.495C723.323 338.688 726.215 346.861 726.215 357.016C726.215 367.17 723.323 375.312 717.538 381.443C711.88 387.479 704.429 390.497 695.186 390.497C685.975 390.497 678.509 387.479 672.787 381.443C666.971 375.281 664.063 367.139 664.063 357.016ZM673.494 356.969C673.494 364.136 675.239 370.062 678.729 374.747C682.658 379.965 688.144 382.574 695.186 382.574C702.228 382.574 707.698 379.965 711.597 374.747C715.055 370.125 716.784 364.231 716.784 357.063C716.784 349.832 715.055 343.875 711.597 339.191C707.698 333.909 702.228 331.269 695.186 331.269C688.113 331.269 682.627 333.909 678.729 339.191C675.239 343.875 673.494 349.801 673.494 356.969ZM768.656 335.89C768.656 329.791 769.834 325.295 772.192 322.403C774.833 319.197 779.14 317.593 785.113 317.593V325.138C781.152 325.138 778.826 327.182 778.134 331.269C777.882 332.589 777.757 334.129 777.757 335.89V341.643H768.656V335.89ZM794.874 324.101H801.665L835.947 372.53L835.429 365.74V324.101H844.766V389.742H838.022L809.399 349.518L803.693 341.313L804.211 349.518V389.742H794.874V324.101ZM881.029 324.101H887.489L915.17 389.742H905.361L898.712 373.238H869.57L862.968 389.742H853.348L881.029 324.101ZM895.694 365.693L884.188 336.927L872.635 365.693H895.694ZM923.328 324.101H929.364L952.753 350.98L976.048 324.101H982.084V389.742H972.653V339.757L969.871 343.529L952.753 363.476L935.636 343.576L932.759 339.804V389.742H923.328V324.101ZM996.184 324.101H1038.58V332.306H1005.62V351.64H1030.56V359.562H1005.62V381.443H1038.58V389.742H996.184V324.101ZM1066.87 323.346C1066.87 329.445 1065.69 333.941 1063.33 336.833C1060.69 340.04 1056.39 341.643 1050.41 341.643V334.098C1054.37 334.098 1056.7 332.054 1057.39 327.968C1057.64 326.647 1057.77 325.107 1057.77 323.346V317.593H1066.87V323.346Z" fill="white"/>
<path d="M448.036 53.3365H454.95V95.3728H475.553V101.457H448.036V53.3365ZM481.948 77.4659C481.948 73.7094 482.513 70.3101 483.642 67.268C484.772 64.2259 486.339 61.6332 488.344 59.4899C492.561 55.0189 498.035 52.7834 504.764 52.7834C511.517 52.7834 516.979 55.0189 521.15 59.4899C525.391 64.03 527.511 70.022 527.511 77.4659C527.511 84.9098 525.391 90.8788 521.15 95.3728C517.002 99.7977 511.54 102.01 504.764 102.01C498.012 102.01 492.538 99.7977 488.344 95.3728C484.08 90.8558 481.948 84.8868 481.948 77.4659ZM488.862 77.4313C488.862 82.6859 490.141 87.0301 492.699 90.464C495.58 94.2897 499.602 96.2025 504.764 96.2025C509.927 96.2025 513.937 94.2897 516.794 90.464C519.329 87.0762 520.597 82.755 520.597 77.5005C520.597 72.1999 519.329 67.8326 516.794 64.3987C513.937 60.5269 509.927 58.5911 504.764 58.5911C499.579 58.5911 495.557 60.5269 492.699 64.3987C490.141 67.8326 488.862 72.1768 488.862 77.4313ZM572.693 100.973C570.043 101.664 566.54 102.01 562.184 102.01C557.851 102.01 554.129 101.469 551.018 100.385C547.93 99.3022 545.268 97.7005 543.032 95.5802C538.239 91.1093 535.842 84.8868 535.842 76.9128C535.842 71.7044 537.086 67.2104 539.575 63.4308C542.94 58.2915 548.114 55.0189 555.097 53.6131C557.24 53.1983 559.868 52.9908 562.979 52.9908C566.09 52.9908 568.775 53.1406 571.034 53.4402V60.0775C569.052 59.5705 566.217 59.317 562.53 59.317C558.865 59.317 555.858 59.7319 553.507 60.5615C551.156 61.3912 549.209 62.5781 547.665 64.1222C544.576 67.1412 543.032 71.4048 543.032 76.9128C543.032 82.513 544.553 86.9955 547.596 90.3603C550.914 94.0246 555.65 95.8568 561.804 95.8568C563.232 95.8568 564.558 95.7992 565.779 95.684V77.9499H572.693V100.973ZM582.269 77.4659C582.269 73.7094 582.833 70.3101 583.962 67.268C585.092 64.2259 586.659 61.6332 588.664 59.4899C592.881 55.0189 598.355 52.7834 605.084 52.7834C611.837 52.7834 617.299 55.0189 621.47 59.4899C625.711 64.03 627.831 70.022 627.831 77.4659C627.831 84.9098 625.711 90.8788 621.47 95.3728C617.322 99.7977 611.86 102.01 605.084 102.01C598.332 102.01 592.858 99.7977 588.664 95.3728C584.4 90.8558 582.269 84.8868 582.269 77.4659ZM589.182 77.4313C589.182 82.6859 590.462 87.0301 593.02 90.464C595.9 94.2897 599.922 96.2025 605.084 96.2025C610.247 96.2025 614.257 94.2897 617.114 90.464C619.65 87.0762 620.917 82.755 620.917 77.5005C620.917 72.1999 619.65 67.8326 617.114 64.3987C614.257 60.5269 610.247 58.5911 605.084 58.5911C599.899 58.5911 595.877 60.5269 593.02 64.3987C590.462 67.8326 589.182 72.1768 589.182 77.4313Z" fill="black"/>
<path d="M2439.34 56.716H2465.58V61.7946H2445.18V73.7614H2460.62V78.6649H2445.18V92.2078H2465.58V97.3447H2439.34V56.716ZM2483.91 76.7677L2471.07 56.716H2477.58L2487.18 72.2729L2496.99 56.716H2503.12L2490.04 76.3883L2504.25 97.3447H2497.77L2486.86 80.708L2476.73 97.3447H2470.34L2483.91 76.7677ZM2509.22 56.716H2515.05V97.3447H2509.22V56.716ZM2534.05 61.853H2521.82V56.716H2552.12V61.853H2539.89V97.3447H2534.05V61.853Z" fill="black"/>
<path d="M2111.82 97.1112C2109.89 97.4615 2107.29 97.6366 2104.03 97.6366C2100.78 97.6366 2097.84 97.1891 2095.21 96.294C2092.6 95.3989 2090.36 94.0758 2088.47 92.3245C2084.42 88.5691 2082.4 83.3348 2082.4 76.6218C2082.4 72.2437 2083.44 68.4493 2085.52 65.2387C2088.34 60.8996 2092.67 58.1365 2098.51 56.9495C2100.3 56.5993 2102.43 56.4242 2104.9 56.4242C2107.39 56.4242 2109.39 56.5604 2110.88 56.8328V62.4076C2109.52 61.9795 2107.41 61.7654 2104.55 61.7654C2101.71 61.7654 2099.3 62.1157 2097.31 62.8162C2095.33 63.5167 2093.68 64.5188 2092.38 65.8225C2089.77 68.3715 2088.47 71.9713 2088.47 76.6218C2088.47 81.3112 2089.75 85.0277 2092.32 87.7713C2095.1 90.7289 2099.1 92.2078 2104.32 92.2078C2107.37 92.2078 2109.87 91.9743 2111.82 91.5073V97.1112ZM2117.8 77.0888C2117.8 73.9171 2118.28 71.047 2119.23 68.4785C2120.19 65.91 2121.51 63.721 2123.2 61.9114C2126.76 58.1365 2131.38 56.249 2137.07 56.249C2142.77 56.249 2147.38 58.1365 2150.9 61.9114C2154.48 65.7446 2156.27 70.8038 2156.27 77.0888C2156.27 83.3738 2154.48 88.4134 2150.9 92.2078C2147.4 95.9437 2142.79 97.8117 2137.07 97.8117C2131.36 97.8117 2126.74 95.9437 2123.2 92.2078C2119.6 88.394 2117.8 83.3543 2117.8 77.0888ZM2123.64 77.0596C2123.64 81.496 2124.72 85.1639 2126.88 88.0632C2129.31 91.2932 2132.71 92.9083 2137.07 92.9083C2141.42 92.9083 2144.81 91.2932 2147.22 88.0632C2149.36 85.2028 2150.43 81.5544 2150.43 77.1179C2150.43 72.6426 2149.36 68.9552 2147.22 66.056C2144.81 62.787 2141.42 61.1525 2137.07 61.1525C2132.69 61.1525 2129.29 62.787 2126.88 66.056C2124.72 68.9552 2123.64 72.6231 2123.64 77.0596ZM2163.92 56.716H2168.12L2189.34 86.6914L2189.02 82.4884V56.716H2194.8V97.3447H2190.62L2172.91 72.448L2169.38 67.3694L2169.7 72.448V97.3447H2163.92V56.716ZM2213.77 61.853H2201.54V56.716H2231.84V61.853H2219.61V97.3447H2213.77V61.853ZM2252.15 56.716H2256.15L2273.28 97.3447H2267.21L2263.1 87.1292H2245.06L2240.97 97.3447H2235.02L2252.15 56.716ZM2261.23 82.4592L2254.11 64.655L2246.96 82.4592H2261.23ZM2306.21 97.1112C2304.28 97.4615 2301.68 97.6366 2298.41 97.6366C2295.16 97.6366 2292.23 97.1891 2289.6 96.294C2286.99 95.3989 2284.74 94.0758 2282.86 92.3245C2278.81 88.5691 2276.79 83.3348 2276.79 76.6218C2276.79 72.2437 2277.83 68.4493 2279.91 65.2387C2282.73 60.8996 2287.06 58.1365 2292.9 56.9495C2294.69 56.5993 2296.82 56.4242 2299.29 56.4242C2301.78 56.4242 2303.77 56.5604 2305.27 56.8328V62.4076C2303.91 61.9795 2301.8 61.7654 2298.94 61.7654C2296.1 61.7654 2293.68 62.1157 2291.7 62.8162C2289.72 63.5167 2288.07 64.5188 2286.77 65.8225C2284.16 68.3715 2282.86 71.9713 2282.86 76.6218C2282.86 81.3112 2284.14 85.0277 2286.71 87.7713C2289.49 90.7289 2293.49 92.2078 2298.7 92.2078C2301.76 92.2078 2304.26 91.9743 2306.21 91.5073V97.1112ZM2323.46 61.853H2311.23V56.716H2341.52V61.853H2329.29V97.3447H2323.46V61.853Z" fill="black"/>
<path d="M1847.62 56.716H1853.45V72.769H1872.66V56.716H1878.5V97.3447H1872.66V77.906H1853.45V97.3447H1847.62V56.716ZM1887.49 56.716H1913.72V61.7946H1893.32V73.7614H1908.76V78.6649H1893.32V92.2078H1913.72V97.3447H1887.49V56.716ZM1922.39 56.716H1928.23V92.2078H1945.63V97.3447H1922.39V56.716ZM1952.81 56.716H1964.34C1972.02 56.716 1976.97 58.9927 1979.19 63.5459C1979.99 65.2193 1980.39 67.204 1980.39 69.5001C1980.39 71.7961 1979.98 73.7614 1979.16 75.3959C1978.35 77.0304 1977.25 78.373 1975.86 79.4237C1973.18 81.4474 1969.59 82.4592 1965.09 82.4592H1958.64V97.3447H1952.81V56.716ZM1963.96 77.7893C1967.48 77.7893 1970.09 77.1082 1971.78 75.7461C1973.47 74.3841 1974.32 72.2631 1974.32 69.3833C1974.32 65.5501 1972.54 63.0789 1968.98 61.9698C1967.73 61.5806 1966.22 61.386 1964.45 61.386H1958.64V77.7893H1963.96Z" fill="black"/>
<rect x="437.954" y="589.448" width="1151.85" height="981.057" fill="#FCFCFC"/>
<line y1="-1.26425" x2="1512.21" y2="-1.26425" transform="matrix(0.760282 0.649594 -0.524491 0.851416 437.954 589.448)" stroke="black" stroke-width="2.5285"/>
<line y1="-1.26425" x2="1512.64" y2="-1.26425" transform="matrix(-0.761151 0.648574 0.525523 0.85078 1589.3 589.448)" stroke="black" stroke-width="2.5285"/>
<rect x="437.952" y="1570.51" width="1151.85" height="181.818" fill="#FCFCFC"/>
<rect x="795.39" y="1588" width="424.788" height="118.839" fill="#FCFCFC" stroke="black" stroke-width="2.5285"/>
<path d="M793.999 705.883H798.424L815.57 725.588L832.648 705.883H837.072V754.004H830.159V717.36L828.119 720.126L815.57 734.749L803.022 720.161L800.913 717.395V754.004H793.999V705.883ZM859.266 733.055L842.085 705.883H849.552L862.965 727.386L876.101 705.883H883.568L866.456 732.986V754.004H859.266V733.055ZM928.37 705.883H933.106L953.398 754.004H946.208L941.334 741.905H919.97L915.13 754.004H908.078L928.37 705.883ZM939.121 736.374L930.686 715.286L922.217 736.374H939.121ZM992.392 753.727C990.111 754.142 987.034 754.35 983.162 754.35C979.314 754.35 975.834 753.82 972.722 752.759C969.634 751.699 966.972 750.132 964.737 748.058C959.943 743.61 957.547 737.411 957.547 729.46C957.547 724.274 958.78 719.78 961.245 715.978C964.587 710.838 969.715 707.566 976.629 706.16C978.749 705.745 981.273 705.538 984.2 705.538C987.149 705.538 989.512 705.699 991.286 706.022V712.624C989.673 712.117 987.172 711.864 983.785 711.864C980.42 711.864 977.562 712.279 975.211 713.108C972.861 713.938 970.913 715.125 969.369 716.669C966.281 719.688 964.737 723.952 964.737 729.46C964.737 735.014 966.258 739.416 969.3 742.665C972.596 746.168 977.332 747.92 983.508 747.92C987.126 747.92 990.088 747.643 992.392 747.09V753.727ZM1033.74 753.727C1031.46 754.142 1028.38 754.35 1024.51 754.35C1020.66 754.35 1017.18 753.82 1014.07 752.759C1010.98 751.699 1008.32 750.132 1006.08 748.058C1001.29 743.61 998.891 737.411 998.891 729.46C998.891 724.274 1000.12 719.78 1002.59 715.978C1005.93 710.838 1011.06 707.566 1017.97 706.16C1020.09 705.745 1022.62 705.538 1025.54 705.538C1028.49 705.538 1030.86 705.699 1032.63 706.022V712.624C1031.02 712.117 1028.52 711.864 1025.13 711.864C1021.76 711.864 1018.91 712.279 1016.56 713.108C1014.21 713.938 1012.26 715.125 1010.71 716.669C1007.63 719.688 1006.08 723.952 1006.08 729.46C1006.08 735.014 1007.6 739.416 1010.65 742.665C1013.94 746.168 1018.68 747.92 1024.85 747.92C1028.47 747.92 1031.43 747.643 1033.74 747.09V753.727ZM1040.82 730.013C1040.82 726.256 1041.39 722.857 1042.52 719.815C1043.65 716.773 1045.21 714.18 1047.22 712.037C1051.44 707.566 1056.91 705.33 1063.64 705.33C1070.39 705.33 1075.85 707.566 1080.03 712.037C1084.27 716.577 1086.39 722.569 1086.39 730.013C1086.39 737.457 1084.27 743.426 1080.03 747.92C1075.88 752.345 1070.42 754.557 1063.64 754.557C1056.89 754.557 1051.41 752.345 1047.22 747.92C1042.96 743.403 1040.82 737.434 1040.82 730.013ZM1047.74 729.978C1047.74 735.233 1049.02 739.577 1051.58 743.011C1054.46 746.837 1058.48 748.749 1063.64 748.749C1068.8 748.749 1072.81 746.837 1075.67 743.011C1078.21 739.623 1079.47 735.302 1079.47 730.047C1079.47 724.747 1078.21 720.379 1075.67 716.946C1072.81 713.074 1068.8 711.138 1063.64 711.138C1058.45 711.138 1054.43 713.074 1051.58 716.946C1049.02 720.379 1047.74 724.724 1047.74 729.978ZM1113.77 748.611C1121.32 748.611 1125.1 743.967 1125.1 734.68V705.883H1132.02V734.68C1132.02 741.478 1130.3 746.572 1126.87 749.959C1123.76 753.024 1119.39 754.557 1113.77 754.557C1105.08 754.557 1099.44 750.973 1096.86 743.806C1095.94 741.294 1095.48 738.252 1095.48 734.68V705.883H1102.39V734.68C1102.39 743.967 1106.18 748.611 1113.77 748.611ZM1142.67 705.883H1147.64L1172.78 741.386L1172.39 736.408V705.883H1179.24V754.004H1174.3L1153.31 724.516L1149.13 718.501L1149.51 724.516V754.004H1142.67V705.883ZM1201.71 711.968H1187.23V705.883H1223.11V711.968H1208.62V754.004H1201.71V711.968Z" fill="black"/>
<path d="M872.377 1669.55C870.741 1670.71 868.644 1671.62 866.086 1672.28C863.527 1672.93 860.393 1673.25 856.683 1673.25C852.995 1673.25 849.273 1673.03 845.517 1672.6V1665.89C848.882 1666.65 852.269 1667.03 855.68 1667.03C859.091 1667.03 861.649 1666.85 863.355 1666.48C865.06 1666.08 866.431 1665.58 867.468 1664.96C869.381 1663.8 870.338 1662.3 870.338 1660.46C870.338 1659.03 869.969 1657.93 869.231 1657.14C868.056 1655.92 866.362 1654.8 864.15 1653.79L855.3 1649.74C852.258 1648.32 850.103 1646.99 848.835 1645.77C846.116 1643.14 844.756 1640.1 844.756 1636.64C844.756 1633.09 846.3 1630.22 849.389 1628.04C852.776 1625.64 857.593 1624.44 863.839 1624.44C867.872 1624.44 871.559 1624.6 874.901 1624.92V1631.53C872.066 1630.88 868.897 1630.56 865.394 1630.56C861.914 1630.56 859.379 1630.74 857.789 1631.11C856.222 1631.46 854.989 1631.91 854.09 1632.46C852.454 1633.47 851.636 1634.81 851.636 1636.47C851.636 1638.08 852.154 1639.42 853.191 1640.48C854.113 1641.38 855.795 1642.42 858.238 1643.59L867.33 1647.91C870.349 1649.34 872.458 1650.69 873.656 1651.96C874.878 1653.22 875.776 1654.5 876.353 1655.79C876.929 1657.06 877.217 1658.59 877.217 1660.39C877.217 1662.17 876.825 1663.85 876.042 1665.44C875.258 1667.01 874.036 1668.38 872.377 1669.55ZM886.309 1624.79H917.386V1630.8H893.222V1644.97H911.51V1650.78H893.222V1666.82H917.386V1672.91H886.309V1624.79ZM927.654 1624.79H958.731V1630.8H934.567V1644.97H952.855V1650.78H934.567V1666.82H958.731V1672.91H927.654V1624.79ZM992.264 1624.79H996.688L1013.83 1644.49L1030.91 1624.79H1035.34V1672.91H1028.42V1636.26L1026.38 1639.03L1013.83 1653.65L1001.29 1639.06L999.177 1636.3V1672.91H992.264V1624.79ZM1044.12 1648.92C1044.12 1645.16 1044.68 1641.76 1045.81 1638.72C1046.94 1635.68 1048.51 1633.08 1050.51 1630.94C1054.73 1626.47 1060.2 1624.23 1066.93 1624.23C1073.69 1624.23 1079.15 1626.47 1083.32 1630.94C1087.56 1635.48 1089.68 1641.47 1089.68 1648.92C1089.68 1656.36 1087.56 1662.33 1083.32 1666.82C1079.17 1671.25 1073.71 1673.46 1066.93 1673.46C1060.18 1673.46 1054.71 1671.25 1050.51 1666.82C1046.25 1662.3 1044.12 1656.34 1044.12 1648.92ZM1051.03 1648.88C1051.03 1654.14 1052.31 1658.48 1054.87 1661.91C1057.75 1665.74 1061.77 1667.65 1066.93 1667.65C1072.1 1667.65 1076.11 1665.74 1078.96 1661.91C1081.5 1658.53 1082.77 1654.2 1082.77 1648.95C1082.77 1643.65 1081.5 1639.28 1078.96 1635.85C1076.11 1631.98 1072.1 1630.04 1066.93 1630.04C1061.75 1630.04 1057.73 1631.98 1054.87 1635.85C1052.31 1639.28 1051.03 1643.63 1051.03 1648.88ZM1099.32 1624.79H1112.98C1122.08 1624.79 1127.95 1627.48 1130.58 1632.87C1131.52 1634.86 1131.99 1637.09 1131.99 1639.58C1131.99 1642.05 1131.66 1644.13 1130.99 1645.84C1130.34 1647.54 1129.43 1649.01 1128.26 1650.23C1126 1652.58 1122.89 1654.12 1118.93 1654.86C1120.56 1659.91 1123.34 1663.39 1127.26 1665.3C1128.55 1665.95 1129.63 1666.29 1130.51 1666.34C1131.98 1666.38 1133.02 1666.34 1133.62 1666.2V1672.91H1132.06C1126.88 1672.91 1122.46 1671.06 1118.82 1667.38C1115.62 1664.17 1113.46 1660.14 1112.36 1655.28H1106.24V1672.91H1099.32V1624.79ZM1112.53 1649.74C1116.7 1649.74 1119.79 1648.94 1121.79 1647.32C1123.8 1645.71 1124.8 1643.2 1124.8 1639.79C1124.8 1635.25 1122.69 1632.32 1118.48 1631.01C1117 1630.55 1115.22 1630.32 1113.12 1630.32H1106.24V1649.74H1112.53ZM1140.12 1624.79H1171.19V1630.8H1147.03V1644.97H1165.32V1650.78H1147.03V1666.82H1171.19V1672.91H1140.12V1624.79Z" fill="black"/>
<rect x="2888.14" y="-10" width="1301.26" height="2275.48" fill="#818181"/>
<rect x="2888.14" y="-10" width="1301.26" height="166.981" fill="#E9E9E9"/>
<path d="M2989.29 324.101H2999.1L3011.78 370.408L3013.62 378.566L3015.7 370.408L3028.99 324.101H3038.05L3051.2 370.408L3053.33 378.896L3055.35 370.408L3068.13 324.101H3077.56L3057.66 389.742H3048.61L3034.79 343.529L3033.24 337.635L3031.73 343.529L3018.05 389.742H3009L2989.29 324.101ZM3085.01 324.101H3127.41V332.306H3094.45V351.64H3119.39V359.562H3094.45V381.443H3127.41V389.742H3085.01V324.101ZM3141.41 324.101H3150.84V381.443H3178.95V389.742H3141.41V324.101ZM3234.41 389.365C3231.29 389.931 3227.1 390.214 3221.81 390.214C3216.56 390.214 3211.82 389.491 3207.57 388.045C3203.36 386.598 3199.73 384.461 3196.68 381.631C3190.14 375.564 3186.87 367.107 3186.87 356.261C3186.87 349.188 3188.55 343.058 3191.92 337.87C3196.48 330.86 3203.47 326.396 3212.9 324.478C3215.79 323.912 3219.24 323.629 3223.23 323.629C3227.25 323.629 3230.48 323.849 3232.9 324.289V333.296C3230.7 332.605 3227.29 332.259 3222.66 332.259C3218.07 332.259 3214.18 332.825 3210.97 333.956C3207.76 335.088 3205.11 336.707 3203 338.814C3198.79 342.932 3196.68 348.748 3196.68 356.261C3196.68 363.838 3198.76 369.842 3202.91 374.275C3207.4 379.053 3213.86 381.443 3222.29 381.443C3227.22 381.443 3231.26 381.065 3234.41 380.311V389.365ZM3244.07 357.016C3244.07 351.891 3244.84 347.254 3246.38 343.105C3247.92 338.955 3250.06 335.418 3252.8 332.495C3258.55 326.396 3266.02 323.346 3275.2 323.346C3284.41 323.346 3291.86 326.396 3297.55 332.495C3303.33 338.688 3306.22 346.861 3306.22 357.016C3306.22 367.17 3303.33 375.312 3297.55 381.443C3291.89 387.479 3284.44 390.497 3275.2 390.497C3265.98 390.497 3258.52 387.479 3252.8 381.443C3246.98 375.281 3244.07 367.139 3244.07 357.016ZM3253.5 356.969C3253.5 364.136 3255.25 370.062 3258.74 374.747C3262.67 379.965 3268.15 382.574 3275.2 382.574C3282.24 382.574 3287.71 379.965 3291.61 374.747C3295.06 370.125 3296.79 364.231 3296.79 357.063C3296.79 349.832 3295.06 343.875 3291.61 339.191C3287.71 333.909 3282.24 331.269 3275.2 331.269C3268.12 331.269 3262.64 333.909 3258.74 339.191C3255.25 343.875 3253.5 349.801 3253.5 356.969ZM3318.2 324.101H3324.24L3347.63 350.98L3370.92 324.101H3376.96V389.742H3367.53V339.757L3364.75 343.529L3347.63 363.476L3330.51 343.576L3327.63 339.804V389.742H3318.2V324.101ZM3391.06 324.101H3433.45V332.306H3400.49V351.64H3425.44V359.562H3400.49V381.443H3433.45V389.742H3391.06V324.101Z" fill="white"/>
<path d="M2994.55 53.4474H3001.31V94.5133H3021.43V100.457H2994.55V53.4474ZM3027.68 77.0198C3027.68 73.35 3028.23 70.0291 3029.34 67.0572C3030.44 64.0854 3031.97 61.5525 3033.93 59.4587C3038.05 55.091 3043.4 52.9071 3049.97 52.9071C3056.57 52.9071 3061.9 55.091 3065.98 59.4587C3070.12 63.894 3072.19 69.7477 3072.19 77.0198C3072.19 84.2919 3070.12 90.123 3065.98 94.5133C3061.93 98.836 3056.59 100.997 3049.97 100.997C3043.37 100.997 3038.03 98.836 3033.93 94.5133C3029.76 90.1005 3027.68 84.2693 3027.68 77.0198ZM3034.44 76.986C3034.44 82.1192 3035.68 86.3632 3038.18 89.7178C3041 93.4551 3044.93 95.3238 3049.97 95.3238C3055.01 95.3238 3058.93 93.4551 3061.72 89.7178C3064.2 86.4082 3065.44 82.1868 3065.44 77.0535C3065.44 71.8753 3064.2 67.6088 3061.72 64.2542C3058.93 60.4719 3055.01 58.5807 3049.97 58.5807C3044.9 58.5807 3040.98 60.4719 3038.18 64.2542C3035.68 67.6088 3034.44 71.8528 3034.44 76.986ZM3116.33 99.9842C3113.74 100.66 3110.32 100.997 3106.06 100.997C3101.83 100.997 3098.2 100.468 3095.16 99.4101C3092.14 98.352 3089.54 96.7872 3087.35 94.7159C3082.67 90.3482 3080.33 84.2693 3080.33 76.4794C3080.33 71.3912 3081.55 67.001 3083.98 63.3086C3087.26 58.288 3092.32 55.091 3099.14 53.7176C3101.23 53.3123 3103.8 53.1097 3106.84 53.1097C3109.88 53.1097 3112.5 53.2561 3114.71 53.5487V60.0328C3112.77 59.5375 3110 59.2899 3106.4 59.2899C3102.82 59.2899 3099.88 59.6951 3097.59 60.5056C3095.29 61.3161 3093.39 62.4756 3091.88 63.9841C3088.86 66.9334 3087.35 71.0985 3087.35 76.4794C3087.35 81.9504 3088.84 86.3294 3091.81 89.6165C3095.05 93.1962 3099.68 94.9861 3105.69 94.9861C3107.09 94.9861 3108.38 94.9298 3109.58 94.8172V77.4926H3116.33V99.9842ZM3125.69 77.0198C3125.69 73.35 3126.24 70.0291 3127.34 67.0572C3128.44 64.0854 3129.97 61.5525 3131.93 59.4587C3136.05 55.091 3141.4 52.9071 3147.97 52.9071C3154.57 52.9071 3159.91 55.091 3163.98 59.4587C3168.12 63.894 3170.2 69.7477 3170.2 77.0198C3170.2 84.2919 3168.12 90.123 3163.98 94.5133C3159.93 98.836 3154.59 100.997 3147.97 100.997C3141.38 100.997 3136.03 98.836 3131.93 94.5133C3127.77 90.1005 3125.69 84.2693 3125.69 77.0198ZM3132.44 76.986C3132.44 82.1192 3133.69 86.3632 3136.19 89.7178C3139 93.4551 3142.93 95.3238 3147.97 95.3238C3153.02 95.3238 3156.94 93.4551 3159.73 89.7178C3162.2 86.4082 3163.44 82.1868 3163.44 77.0535C3163.44 71.8753 3162.2 67.6088 3159.73 64.2542C3156.94 60.4719 3153.02 58.5807 3147.97 58.5807C3142.91 58.5807 3138.98 60.4719 3136.19 64.2542C3133.69 67.6088 3132.44 71.8528 3132.44 76.986Z" fill="black"/>
<path d="M3923.7 52.4191H3928.02L3944.77 71.6687L3961.45 52.4191H3965.78V99.4287H3959.02V63.6312L3957.03 66.3329L3944.77 80.6181L3932.51 66.3666L3930.45 63.6649V99.4287H3923.7V52.4191ZM3975.87 52.4191H4006.23V58.2953H3982.63V72.1415H4000.49V77.8151H3982.63V93.485H4006.23V99.4287H3975.87V52.4191ZM4016.23 52.4191H4021.09L4045.64 87.1022L4045.27 82.2391V52.4191H4051.96V99.4287H4047.13L4026.63 70.6218L4022.55 64.7456L4022.92 70.6218V99.4287H4016.23V52.4191ZM4080.26 94.1604C4087.65 94.1604 4091.34 89.6238 4091.34 80.5506V52.4191H4098.09V80.5506C4098.09 87.1923 4096.41 92.1679 4093.06 95.4775C4090.02 98.4719 4085.75 99.9691 4080.26 99.9691C4071.77 99.9691 4066.27 96.4681 4063.75 89.4662C4062.85 87.0121 4062.4 84.0403 4062.4 80.5506V52.4191H4069.15V80.5506C4069.15 89.6238 4072.85 94.1604 4080.26 94.1604Z" fill="black"/>
<rect x="2986.95" y="589.117" width="1103.65" height="1395.27" fill="#FCFCFC"/>
<line y1="-1.51683" x2="1612.91" y2="-1.51683" transform="matrix(0.682686 0.730712 -0.441276 0.897372 2987.43 588.759)" stroke="black" stroke-width="3.03366"/>
<line y1="-1.51683" x2="1612.88" y2="-1.51683" transform="matrix(-0.683675 0.729787 0.442241 0.896896 4090.11 588.758)" stroke="black" stroke-width="3.03366"/>
<rect x="2987.43" y="1765.82" width="1103.17" height="218.142" fill="#FCFCFC"/>
<path d="M3283.68 764.563H3288.99L3309.56 788.204L3330.05 764.563H3335.36V822.297H3327.07V778.333L3324.62 781.651L3309.56 799.195L3294.51 781.692L3291.98 778.374V822.297H3283.68V764.563ZM3361.99 797.163L3341.37 764.563H3350.33L3366.43 790.361L3382.19 764.563H3391.15L3370.62 797.08V822.297H3361.99V797.163ZM3444.9 764.563H3450.58L3474.93 822.297H3466.3L3460.45 807.78H3434.82L3429.01 822.297H3420.55L3444.9 764.563ZM3457.8 801.144L3447.68 775.844L3437.52 801.144H3457.8ZM3521.71 821.965C3518.97 822.463 3515.28 822.712 3510.64 822.712C3506.02 822.712 3501.84 822.076 3498.11 820.804C3494.41 819.532 3491.21 817.652 3488.53 815.163C3482.78 809.826 3479.9 802.389 3479.9 792.849C3479.9 786.628 3481.38 781.236 3484.34 776.674C3488.35 770.507 3494.5 766.581 3502.8 764.894C3505.34 764.397 3508.37 764.148 3511.88 764.148C3515.42 764.148 3518.26 764.341 3520.38 764.729V772.65C3518.45 772.042 3515.45 771.738 3511.38 771.738C3507.35 771.738 3503.92 772.236 3501.1 773.231C3498.28 774.226 3495.94 775.65 3494.09 777.503C3490.38 781.125 3488.53 786.241 3488.53 792.849C3488.53 799.513 3490.36 804.794 3494.01 808.693C3497.96 812.896 3503.64 814.997 3511.05 814.997C3515.39 814.997 3518.95 814.665 3521.71 814.002V821.965ZM3571.32 821.965C3568.58 822.463 3564.89 822.712 3560.24 822.712C3555.62 822.712 3551.45 822.076 3547.72 820.804C3544.01 819.532 3540.82 817.652 3538.14 815.163C3532.38 809.826 3529.51 802.389 3529.51 792.849C3529.51 786.628 3530.99 781.236 3533.95 776.674C3537.96 770.507 3544.11 766.581 3552.4 764.894C3554.95 764.397 3557.97 764.148 3561.49 764.148C3565.03 764.148 3567.86 764.341 3569.99 764.729V772.65C3568.05 772.042 3565.05 771.738 3560.99 771.738C3556.95 771.738 3553.52 772.236 3550.7 773.231C3547.88 774.226 3545.55 775.65 3543.69 777.503C3539.99 781.125 3538.14 786.241 3538.14 792.849C3538.14 799.513 3539.96 804.794 3543.61 808.693C3547.56 812.896 3553.25 814.997 3560.66 814.997C3565 814.997 3568.55 814.665 3571.32 814.002V821.965ZM3579.82 793.513C3579.82 789.006 3580.5 784.927 3581.85 781.277C3583.21 777.627 3585.09 774.517 3587.49 771.945C3592.55 766.581 3599.12 763.899 3607.19 763.899C3615.29 763.899 3621.85 766.581 3626.85 771.945C3631.94 777.392 3634.48 784.582 3634.48 793.513C3634.48 802.444 3631.94 809.605 3626.85 814.997C3621.88 820.306 3615.32 822.96 3607.19 822.96C3599.09 822.96 3592.52 820.306 3587.49 814.997C3582.38 809.578 3579.82 802.416 3579.82 793.513ZM3588.11 793.471C3588.11 799.776 3589.65 804.988 3592.72 809.108C3596.17 813.698 3601 815.993 3607.19 815.993C3613.39 815.993 3618.2 813.698 3621.63 809.108C3624.67 805.043 3626.19 799.858 3626.19 793.554C3626.19 787.195 3624.67 781.955 3621.63 777.835C3618.2 773.19 3613.39 770.867 3607.19 770.867C3600.97 770.867 3596.15 773.19 3592.72 777.835C3589.65 781.955 3588.11 787.167 3588.11 793.471ZM3667.33 815.827C3676.4 815.827 3680.94 810.255 3680.94 799.112V764.563H3689.23V799.112C3689.23 807.269 3687.17 813.38 3683.05 817.444C3679.32 821.122 3674.08 822.96 3667.33 822.96C3656.91 822.96 3650.15 818.661 3647.05 810.062C3645.95 807.048 3645.39 803.398 3645.39 799.112V764.563H3653.69V799.112C3653.69 810.255 3658.24 815.827 3667.33 815.827ZM3702.01 764.563H3707.98L3738.13 807.158L3737.68 801.186V764.563H3745.89V822.297H3739.96L3714.78 786.918L3709.76 779.701L3710.22 786.918V822.297H3702.01V764.563ZM3772.85 771.862H3755.47V764.563H3798.52V771.862H3781.14V822.297H3772.85V771.862Z" fill="black"/>
<rect x="3283.64" y="1696.66" width="509.654" height="142.582" fill="#FCFCFC" stroke="black" stroke-width="3.03366"/>
<path d="M3376.01 1794.32C3374.05 1795.71 3371.53 1796.8 3368.46 1797.6C3365.39 1798.37 3361.63 1798.76 3357.18 1798.76C3352.76 1798.76 3348.29 1798.5 3343.78 1797.97V1789.93C3347.82 1790.84 3351.88 1791.29 3355.98 1791.29C3360.07 1791.29 3363.14 1791.07 3365.18 1790.63C3367.23 1790.16 3368.88 1789.55 3370.12 1788.81C3372.42 1787.42 3373.56 1785.63 3373.56 1783.41C3373.56 1781.7 3373.12 1780.37 3372.24 1779.43C3370.83 1777.97 3368.79 1776.63 3366.14 1775.41L3355.52 1770.56C3351.87 1768.84 3349.29 1767.25 3347.76 1765.79C3344.5 1762.64 3342.87 1758.99 3342.87 1754.84C3342.87 1750.58 3344.72 1747.14 3348.43 1744.51C3352.49 1741.63 3358.27 1740.2 3365.77 1740.2C3370.6 1740.2 3375.03 1740.39 3379.04 1740.78V1748.7C3375.64 1747.92 3371.83 1747.54 3367.63 1747.54C3363.46 1747.54 3360.42 1747.76 3358.51 1748.2C3356.63 1748.62 3355.15 1749.16 3354.07 1749.82C3352.11 1751.04 3351.12 1752.64 3351.12 1754.63C3351.12 1756.57 3351.75 1758.17 3352.99 1759.44C3354.1 1760.52 3356.12 1761.76 3359.05 1763.17L3369.95 1768.36C3373.58 1770.07 3376.11 1771.69 3377.54 1773.21C3379.01 1774.73 3380.09 1776.27 3380.78 1777.82C3381.47 1779.34 3381.82 1781.17 3381.82 1783.33C3381.82 1785.46 3381.35 1787.48 3380.41 1789.39C3379.47 1791.27 3378 1792.91 3376.01 1794.32ZM3392.72 1740.61H3430.01V1747.83H3401.02V1764.83H3422.96V1771.8H3401.02V1791.05H3430.01V1798.35H3392.72V1740.61ZM3442.33 1740.61H3479.62V1747.83H3450.62V1764.83H3472.57V1771.8H3450.62V1791.05H3479.62V1798.35H3442.33V1740.61ZM3519.85 1740.61H3525.16L3545.73 1764.25L3566.22 1740.61H3571.53V1798.35H3563.23V1754.38L3560.78 1757.7L3545.73 1775.24L3530.67 1757.74L3528.14 1754.42V1798.35H3519.85V1740.61ZM3582.06 1769.56C3582.06 1765.05 3582.74 1760.98 3584.09 1757.33C3585.45 1753.68 3587.33 1750.57 3589.73 1747.99C3594.79 1742.63 3601.36 1739.95 3609.44 1739.95C3617.54 1739.95 3624.09 1742.63 3629.1 1747.99C3634.18 1753.44 3636.73 1760.63 3636.73 1769.56C3636.73 1778.49 3634.18 1785.65 3629.1 1791.05C3624.12 1796.35 3617.56 1799.01 3609.44 1799.01C3601.33 1799.01 3594.77 1796.35 3589.73 1791.05C3584.62 1785.63 3582.06 1778.46 3582.06 1769.56ZM3590.36 1769.52C3590.36 1775.82 3591.89 1781.04 3594.96 1785.16C3598.42 1789.75 3603.24 1792.04 3609.44 1792.04C3615.63 1792.04 3620.44 1789.75 3623.87 1785.16C3626.91 1781.09 3628.43 1775.91 3628.43 1769.6C3628.43 1763.24 3626.91 1758 3623.87 1753.88C3620.44 1749.24 3615.63 1746.92 3609.44 1746.92C3603.21 1746.92 3598.39 1749.24 3594.96 1753.88C3591.89 1758 3590.36 1763.22 3590.36 1769.52ZM3648.3 1740.61H3664.68C3675.6 1740.61 3682.64 1743.85 3685.79 1750.32C3686.93 1752.69 3687.49 1755.38 3687.49 1758.36C3687.49 1761.32 3687.09 1763.82 3686.29 1765.87C3685.52 1767.92 3684.42 1769.67 3683.01 1771.14C3680.3 1773.96 3676.57 1775.81 3671.82 1776.7C3673.78 1782.75 3677.11 1786.93 3681.81 1789.22C3683.36 1790 3684.66 1790.41 3685.71 1790.47C3687.48 1790.52 3688.72 1790.47 3689.44 1790.3V1798.35H3687.58C3681.35 1798.35 3676.06 1796.13 3671.69 1791.71C3667.85 1787.87 3665.26 1783.03 3663.93 1777.19H3656.59V1798.35H3648.3V1740.61ZM3664.14 1770.56C3669.15 1770.56 3672.85 1769.59 3675.26 1767.65C3677.66 1765.72 3678.87 1762.7 3678.87 1758.61C3678.87 1753.16 3676.34 1749.65 3671.28 1748.08C3669.51 1747.52 3667.36 1747.25 3664.85 1747.25H3656.59V1770.56H3664.14ZM3697.24 1740.61H3734.53V1747.83H3705.53V1764.83H3727.48V1771.8H3705.53V1791.05H3734.53V1798.35H3697.24V1740.61Z" fill="black"/>
</g>
<defs>
<clipPath id="clip0">
<rect width="4424" height="2256" fill="white"/>
</clipPath>
</defs>
</svg>
